<mxfile host="Electron" modified="2024-01-29T16:52:50.932Z" agent="Mozilla/5.0 (Windows NT 10.0; Win64; x64) AppleWebKit/537.36 (KHTML, like Gecko) draw.io/22.1.2 Chrome/114.0.5735.289 Electron/25.9.4 Safari/537.36" etag="Ao8I-q2L-k_mckQRoudt" version="22.1.2" type="device">
  <diagram name="Seite-1" id="1dblJQV0sVZCJUXrRQLO">
    <mxGraphModel dx="660" dy="385" grid="1" gridSize="10" guides="1" tooltips="1" connect="1" arrows="1" fold="1" page="1" pageScale="1" pageWidth="3300" pageHeight="2339" math="0" shadow="0">
      <root>
        <mxCell id="0" />
        <mxCell id="1" parent="0" />
        <mxCell id="2c5nBVZ5A8PJ-XaKH1z_-89" value="" style="edgeStyle=elbowEdgeStyle;fontSize=12;html=1;endArrow=ERoneToMany;startArrow=ERone;rounded=0;startFill=0;jumpStyle=line;entryX=0;entryY=0.5;entryDx=0;entryDy=0;exitX=1;exitY=0.5;exitDx=0;exitDy=0;" parent="1" source="m-uryQRzLKnpch2HjsIr-208" target="2c5nBVZ5A8PJ-XaKH1z_-56" edge="1">
          <mxGeometry width="100" height="100" relative="1" as="geometry">
            <mxPoint x="1751" y="1649" as="sourcePoint" />
            <mxPoint x="2573" y="1331" as="targetPoint" />
            <Array as="points">
              <mxPoint x="1835" y="1782" />
            </Array>
          </mxGeometry>
        </mxCell>
        <mxCell id="HP4pHk8FHyrEkAVyZ_Qv-56" value="" style="edgeStyle=entityRelationEdgeStyle;fontSize=12;html=1;endArrow=ERzeroToMany;startArrow=ERone;rounded=0;startFill=0;exitX=1;exitY=0.5;exitDx=0;exitDy=0;entryX=0;entryY=0.5;entryDx=0;entryDy=0;jumpStyle=line;endFill=0;" parent="1" source="HP4pHk8FHyrEkAVyZ_Qv-2" target="HP4pHk8FHyrEkAVyZ_Qv-53" edge="1">
          <mxGeometry width="100" height="100" relative="1" as="geometry">
            <mxPoint x="2053" y="1129" as="sourcePoint" />
            <mxPoint x="2153" y="1029" as="targetPoint" />
          </mxGeometry>
        </mxCell>
        <mxCell id="HP4pHk8FHyrEkAVyZ_Qv-114" value="" style="edgeStyle=elbowEdgeStyle;fontSize=12;html=1;endArrow=ERoneToMany;startArrow=ERone;rounded=0;startFill=0;entryX=0;entryY=0.5;entryDx=0;entryDy=0;jumpStyle=line;exitX=1;exitY=0.082;exitDx=0;exitDy=0;exitPerimeter=0;" parent="1" source="HP4pHk8FHyrEkAVyZ_Qv-99" edge="1">
          <mxGeometry width="100" height="100" relative="1" as="geometry">
            <mxPoint x="865" y="1231" as="sourcePoint" />
            <mxPoint x="1415" y="1026" as="targetPoint" />
            <Array as="points">
              <mxPoint x="955" y="1142" />
            </Array>
          </mxGeometry>
        </mxCell>
        <mxCell id="HP4pHk8FHyrEkAVyZ_Qv-115" value="" style="edgeStyle=entityRelationEdgeStyle;fontSize=12;html=1;endArrow=ERzeroToMany;startArrow=ERone;rounded=0;startFill=0;exitX=0;exitY=0.5;exitDx=0;exitDy=0;entryX=1;entryY=0.5;entryDx=0;entryDy=0;jumpStyle=line;endFill=0;" parent="1" source="HP4pHk8FHyrEkAVyZ_Qv-15" target="HP4pHk8FHyrEkAVyZ_Qv-8" edge="1">
          <mxGeometry width="100" height="100" relative="1" as="geometry">
            <mxPoint x="1733" y="874" as="sourcePoint" />
            <mxPoint x="1793" y="904" as="targetPoint" />
          </mxGeometry>
        </mxCell>
        <mxCell id="HP4pHk8FHyrEkAVyZ_Qv-116" value="" style="edgeStyle=elbowEdgeStyle;fontSize=12;html=1;endArrow=ERoneToMany;startArrow=ERone;rounded=0;startFill=0;exitX=1;exitY=0.226;exitDx=0;exitDy=0;entryX=0;entryY=0.5;entryDx=0;entryDy=0;jumpStyle=line;exitPerimeter=0;" parent="1" source="HP4pHk8FHyrEkAVyZ_Qv-15" target="SrimqY8IVKDhNXtefk8D-107" edge="1">
          <mxGeometry width="100" height="100" relative="1" as="geometry">
            <mxPoint x="2173" y="864" as="sourcePoint" />
            <mxPoint x="2268.0000000000005" y="864" as="targetPoint" />
            <Array as="points">
              <mxPoint x="1835" y="752" />
            </Array>
          </mxGeometry>
        </mxCell>
        <mxCell id="HP4pHk8FHyrEkAVyZ_Qv-130" value="" style="edgeStyle=entityRelationEdgeStyle;fontSize=12;html=1;endArrow=ERzeroToMany;startArrow=ERone;rounded=0;startFill=0;exitX=0;exitY=0.5;exitDx=0;exitDy=0;entryX=1;entryY=0.5;entryDx=0;entryDy=0;jumpStyle=line;endFill=0;" parent="1" source="HP4pHk8FHyrEkAVyZ_Qv-41" target="SrimqY8IVKDhNXtefk8D-110" edge="1">
          <mxGeometry width="100" height="100" relative="1" as="geometry">
            <mxPoint x="2388" y="1004" as="sourcePoint" />
            <mxPoint x="2738" y="1024" as="targetPoint" />
          </mxGeometry>
        </mxCell>
        <mxCell id="m-uryQRzLKnpch2HjsIr-14" value="" style="edgeStyle=elbowEdgeStyle;fontSize=12;html=1;endArrow=ERoneToMany;startArrow=ERone;rounded=0;startFill=0;exitX=1;exitY=0.5;exitDx=0;exitDy=0;jumpStyle=line;entryX=0;entryY=0.5;entryDx=0;entryDy=0;" parent="1" source="HP4pHk8FHyrEkAVyZ_Qv-15" target="m-uryQRzLKnpch2HjsIr-29" edge="1">
          <mxGeometry width="100" height="100" relative="1" as="geometry">
            <mxPoint x="2173" y="864" as="sourcePoint" />
            <mxPoint x="2218" y="1149" as="targetPoint" />
            <Array as="points">
              <mxPoint x="1835" y="882" />
            </Array>
          </mxGeometry>
        </mxCell>
        <mxCell id="m-uryQRzLKnpch2HjsIr-41" value="" style="edgeStyle=elbowEdgeStyle;fontSize=12;html=1;endArrow=ERoneToMany;startArrow=ERone;rounded=0;startFill=0;exitX=0;exitY=0.5;exitDx=0;exitDy=0;jumpStyle=line;entryX=1;entryY=0.5;entryDx=0;entryDy=0;" parent="1" source="m-uryQRzLKnpch2HjsIr-2" target="m-uryQRzLKnpch2HjsIr-32" edge="1">
          <mxGeometry width="100" height="100" relative="1" as="geometry">
            <mxPoint x="2333" y="1004" as="sourcePoint" />
            <mxPoint x="2403" y="1294" as="targetPoint" />
            <Array as="points">
              <mxPoint x="2655" y="952" />
            </Array>
          </mxGeometry>
        </mxCell>
        <mxCell id="m-uryQRzLKnpch2HjsIr-55" value="" style="edgeStyle=elbowEdgeStyle;fontSize=12;html=1;endArrow=ERoneToMany;startArrow=ERone;rounded=0;startFill=0;exitX=1;exitY=0.5;exitDx=0;exitDy=0;entryX=0;entryY=0.5;entryDx=0;entryDy=0;jumpStyle=line;" parent="1" source="m-uryQRzLKnpch2HjsIr-43" target="m-uryQRzLKnpch2HjsIr-11" edge="1">
          <mxGeometry width="100" height="100" relative="1" as="geometry">
            <mxPoint x="1943" y="1164" as="sourcePoint" />
            <mxPoint x="2003" y="1244" as="targetPoint" />
            <Array as="points">
              <mxPoint x="2675" y="1042" />
            </Array>
          </mxGeometry>
        </mxCell>
        <mxCell id="m-uryQRzLKnpch2HjsIr-56" value="" style="edgeStyle=elbowEdgeStyle;fontSize=12;html=1;endArrow=ERzeroToMany;startArrow=ERone;rounded=0;startFill=0;exitX=1;exitY=0.776;exitDx=0;exitDy=0;entryX=0;entryY=0.5;entryDx=0;entryDy=0;jumpStyle=line;endFill=0;exitPerimeter=0;" parent="1" source="HP4pHk8FHyrEkAVyZ_Qv-15" target="m-uryQRzLKnpch2HjsIr-49" edge="1">
          <mxGeometry width="100" height="100" relative="1" as="geometry">
            <mxPoint x="1703" y="1034" as="sourcePoint" />
            <mxPoint x="1793" y="1114" as="targetPoint" />
            <Array as="points">
              <mxPoint x="1825" y="992" />
            </Array>
          </mxGeometry>
        </mxCell>
        <mxCell id="m-uryQRzLKnpch2HjsIr-82" value="" style="edgeStyle=elbowEdgeStyle;fontSize=12;html=1;endArrow=ERzeroToMany;startArrow=ERone;rounded=0;startFill=0;exitX=1;exitY=0.5;exitDx=0;exitDy=0;entryX=0;entryY=0.5;entryDx=0;entryDy=0;jumpStyle=line;endFill=0;" parent="1" source="m-uryQRzLKnpch2HjsIr-58" target="m-uryQRzLKnpch2HjsIr-52" edge="1">
          <mxGeometry width="100" height="100" relative="1" as="geometry">
            <mxPoint x="1703" y="1244" as="sourcePoint" />
            <mxPoint x="1763" y="1274" as="targetPoint" />
            <Array as="points">
              <mxPoint x="2255" y="1232" />
            </Array>
          </mxGeometry>
        </mxCell>
        <mxCell id="m-uryQRzLKnpch2HjsIr-223" value="" style="edgeStyle=elbowEdgeStyle;fontSize=12;html=1;endArrow=ERzeroToMany;startArrow=ERone;rounded=0;startFill=0;exitX=1;exitY=0.218;exitDx=0;exitDy=0;entryX=0;entryY=0.5;entryDx=0;entryDy=0;jumpStyle=line;endFill=0;exitPerimeter=0;" parent="1" source="m-uryQRzLKnpch2HjsIr-208" target="m-uryQRzLKnpch2HjsIr-220" edge="1">
          <mxGeometry width="100" height="100" relative="1" as="geometry">
            <mxPoint x="1763" y="1434" as="sourcePoint" />
            <mxPoint x="1703" y="1334" as="targetPoint" />
            <Array as="points">
              <mxPoint x="1835" y="1502" />
            </Array>
          </mxGeometry>
        </mxCell>
        <mxCell id="CS_ih2mzuImwQKUxb3Ah-14" value="" style="edgeStyle=elbowEdgeStyle;fontSize=12;html=1;endArrow=ERoneToMany;startArrow=ERone;rounded=0;startFill=0;exitX=0;exitY=0.5;exitDx=0;exitDy=0;entryX=1;entryY=0.5;entryDx=0;entryDy=0;jumpStyle=line;" parent="1" source="m-uryQRzLKnpch2HjsIr-208" target="CS_ih2mzuImwQKUxb3Ah-5" edge="1">
          <mxGeometry width="100" height="100" relative="1" as="geometry">
            <mxPoint x="1675" y="1634" as="sourcePoint" />
            <mxPoint x="1344.9999999999998" y="1424" as="targetPoint" />
            <Array as="points">
              <mxPoint x="1355" y="1452" />
            </Array>
          </mxGeometry>
        </mxCell>
        <mxCell id="CS_ih2mzuImwQKUxb3Ah-15" value="" style="edgeStyle=elbowEdgeStyle;fontSize=12;html=1;endArrow=ERoneToMany;startArrow=ERone;rounded=0;startFill=0;jumpStyle=line;exitX=1;exitY=0.344;exitDx=0;exitDy=0;entryX=0;entryY=0.5;entryDx=0;entryDy=0;exitPerimeter=0;" parent="1" source="HP4pHk8FHyrEkAVyZ_Qv-99" edge="1" target="CS_ih2mzuImwQKUxb3Ah-2">
          <mxGeometry width="100" height="100" relative="1" as="geometry">
            <mxPoint x="824.6399999999999" y="1244.79" as="sourcePoint" />
            <mxPoint x="1034" y="1169" as="targetPoint" />
            <Array as="points">
              <mxPoint x="965" y="1212" />
            </Array>
          </mxGeometry>
        </mxCell>
        <mxCell id="CS_ih2mzuImwQKUxb3Ah-19" value="" style="edgeStyle=elbowEdgeStyle;fontSize=12;html=1;endArrow=ERoneToMany;startArrow=ERone;rounded=0;startFill=0;exitX=0;exitY=0.5;exitDx=0;exitDy=0;entryX=1;entryY=0.5;entryDx=0;entryDy=0;jumpStyle=line;" parent="1" source="m-uryQRzLKnpch2HjsIr-165" target="SrimqY8IVKDhNXtefk8D-93" edge="1">
          <mxGeometry width="100" height="100" relative="1" as="geometry">
            <mxPoint x="1735" y="1434" as="sourcePoint" />
            <mxPoint x="1035" y="1704" as="targetPoint" />
            <Array as="points">
              <mxPoint x="2695" y="1492" />
            </Array>
          </mxGeometry>
        </mxCell>
        <mxCell id="d06NPiq7ME--_39FHo1s-8" value="" style="edgeStyle=elbowEdgeStyle;fontSize=12;html=1;endArrow=ERoneToMany;startArrow=ERone;rounded=0;startFill=0;exitX=1;exitY=0.698;exitDx=0;exitDy=0;entryX=0;entryY=0.5;entryDx=0;entryDy=0;jumpStyle=line;exitPerimeter=0;" parent="1" source="m-uryQRzLKnpch2HjsIr-58" target="SrimqY8IVKDhNXtefk8D-96" edge="1">
          <mxGeometry width="100" height="100" relative="1" as="geometry">
            <mxPoint x="1763" y="1434" as="sourcePoint" />
            <mxPoint x="1355" y="1674" as="targetPoint" />
            <Array as="points">
              <mxPoint x="2255" y="1402" />
            </Array>
          </mxGeometry>
        </mxCell>
        <mxCell id="d06NPiq7ME--_39FHo1s-16" value="" style="edgeStyle=elbowEdgeStyle;fontSize=12;html=1;endArrow=ERoneToMany;startArrow=ERone;rounded=0;startFill=0;exitX=1;exitY=0.5;exitDx=0;exitDy=0;jumpStyle=line;entryX=0;entryY=0.5;entryDx=0;entryDy=0;" parent="1" source="SrimqY8IVKDhNXtefk8D-90" target="d06NPiq7ME--_39FHo1s-23" edge="1">
          <mxGeometry width="100" height="100" relative="1" as="geometry">
            <mxPoint x="2123" y="1214" as="sourcePoint" />
            <mxPoint x="2183" y="1309" as="targetPoint" />
            <Array as="points">
              <mxPoint x="2745" y="1612" />
            </Array>
          </mxGeometry>
        </mxCell>
        <mxCell id="d06NPiq7ME--_39FHo1s-17" value="" style="edgeStyle=elbowEdgeStyle;fontSize=12;html=1;endArrow=ERoneToMany;startArrow=ERone;rounded=0;startFill=0;exitX=1;exitY=0.5;exitDx=0;exitDy=0;jumpStyle=line;entryX=0;entryY=0.5;entryDx=0;entryDy=0;" parent="1" source="m-uryQRzLKnpch2HjsIr-182" target="d06NPiq7ME--_39FHo1s-26" edge="1">
          <mxGeometry width="100" height="100" relative="1" as="geometry">
            <mxPoint x="2123" y="1214" as="sourcePoint" />
            <mxPoint x="2503" y="1264" as="targetPoint" />
            <Array as="points">
              <mxPoint x="2745" y="1762" />
            </Array>
          </mxGeometry>
        </mxCell>
        <mxCell id="2c5nBVZ5A8PJ-XaKH1z_-51" value="" style="edgeStyle=elbowEdgeStyle;fontSize=12;html=1;endArrow=ERoneToMany;startArrow=ERone;rounded=0;startFill=0;entryX=0;entryY=0.5;entryDx=0;entryDy=0;jumpStyle=line;exitX=1;exitY=0.862;exitDx=0;exitDy=0;exitPerimeter=0;" parent="1" source="HP4pHk8FHyrEkAVyZ_Qv-99" target="2c5nBVZ5A8PJ-XaKH1z_-20" edge="1">
          <mxGeometry width="100" height="100" relative="1" as="geometry">
            <mxPoint x="835" y="1279" as="sourcePoint" />
            <mxPoint x="1773" y="1529" as="targetPoint" />
            <Array as="points">
              <mxPoint x="955" y="1532" />
            </Array>
          </mxGeometry>
        </mxCell>
        <mxCell id="2c5nBVZ5A8PJ-XaKH1z_-54" value="" style="edgeStyle=elbowEdgeStyle;fontSize=12;html=1;endArrow=ERoneToMany;startArrow=ERone;rounded=0;startFill=0;exitX=0;exitY=0.5;exitDx=0;exitDy=0;jumpStyle=line;entryX=1;entryY=0.5;entryDx=0;entryDy=0;" parent="1" source="m-uryQRzLKnpch2HjsIr-58" target="m-uryQRzLKnpch2HjsIr-132" edge="1">
          <mxGeometry width="100" height="100" relative="1" as="geometry">
            <mxPoint x="2133" y="1434" as="sourcePoint" />
            <mxPoint x="2193" y="1314" as="targetPoint" />
            <Array as="points">
              <mxPoint x="1785" y="1312" />
            </Array>
          </mxGeometry>
        </mxCell>
        <mxCell id="2c5nBVZ5A8PJ-XaKH1z_-55" value="" style="edgeStyle=elbowEdgeStyle;fontSize=12;html=1;endArrow=ERoneToMany;startArrow=ERone;rounded=0;startFill=0;exitX=1;exitY=0.229;exitDx=0;exitDy=0;jumpStyle=line;entryX=0;entryY=0.5;entryDx=0;entryDy=0;exitPerimeter=0;" parent="1" source="m-uryQRzLKnpch2HjsIr-100" target="m-uryQRzLKnpch2HjsIr-129" edge="1">
          <mxGeometry width="100" height="100" relative="1" as="geometry">
            <mxPoint x="2133" y="1434" as="sourcePoint" />
            <mxPoint x="2563" y="1704" as="targetPoint" />
            <Array as="points">
              <mxPoint x="1385" y="1422" />
            </Array>
          </mxGeometry>
        </mxCell>
        <mxCell id="2c5nBVZ5A8PJ-XaKH1z_-65" value="" style="edgeStyle=elbowEdgeStyle;fontSize=12;html=1;endArrow=ERoneToMany;startArrow=ERone;rounded=0;startFill=0;jumpStyle=line;entryX=1;entryY=0.5;entryDx=0;entryDy=0;exitX=0;exitY=0.5;exitDx=0;exitDy=0;" parent="1" source="SrimqY8IVKDhNXtefk8D-90" target="m-uryQRzLKnpch2HjsIr-158" edge="1">
          <mxGeometry width="100" height="100" relative="1" as="geometry">
            <mxPoint x="2445" y="1389" as="sourcePoint" />
            <mxPoint x="2513" y="1284" as="targetPoint" />
            <Array as="points">
              <mxPoint x="2215" y="1682" />
            </Array>
          </mxGeometry>
        </mxCell>
        <mxCell id="2c5nBVZ5A8PJ-XaKH1z_-66" value="" style="edgeStyle=elbowEdgeStyle;fontSize=12;html=1;endArrow=ERoneToMany;startArrow=ERone;rounded=0;startFill=0;exitX=1;exitY=0.5;exitDx=0;exitDy=0;jumpStyle=line;entryX=0;entryY=0.5;entryDx=0;entryDy=0;" parent="1" source="m-uryQRzLKnpch2HjsIr-100" target="m-uryQRzLKnpch2HjsIr-161" edge="1">
          <mxGeometry width="100" height="100" relative="1" as="geometry">
            <mxPoint x="2613" y="1424" as="sourcePoint" />
            <mxPoint x="2495" y="1429" as="targetPoint" />
            <Array as="points">
              <mxPoint x="1345" y="1692" />
            </Array>
          </mxGeometry>
        </mxCell>
        <mxCell id="2c5nBVZ5A8PJ-XaKH1z_-67" value="" style="fontSize=12;html=1;endArrow=ERoneToMany;startArrow=ERone;rounded=0;startFill=0;exitX=0;exitY=0.5;exitDx=0;exitDy=0;jumpStyle=line;entryX=1;entryY=0.5;entryDx=0;entryDy=0;elbow=vertical;edgeStyle=entityRelationEdgeStyle;" parent="1" source="m-uryQRzLKnpch2HjsIr-185" target="m-uryQRzLKnpch2HjsIr-155" edge="1">
          <mxGeometry width="100" height="100" relative="1" as="geometry">
            <mxPoint x="3130" y="1504.0000000000002" as="sourcePoint" />
            <mxPoint x="3260" y="1349" as="targetPoint" />
          </mxGeometry>
        </mxCell>
        <mxCell id="SrimqY8IVKDhNXtefk8D-60" value="" style="edgeStyle=elbowEdgeStyle;fontSize=12;html=1;endArrow=ERoneToMany;startArrow=ERone;rounded=0;startFill=0;exitX=1;exitY=0.5;exitDx=0;exitDy=0;entryX=0;entryY=0.5;entryDx=0;entryDy=0;jumpStyle=line;" parent="1" source="CpBTHu7pFJ8_8jRN4DaD-15" target="SrimqY8IVKDhNXtefk8D-57" edge="1">
          <mxGeometry width="100" height="100" relative="1" as="geometry">
            <mxPoint x="1663" y="1639" as="sourcePoint" />
            <mxPoint x="1723" y="1529" as="targetPoint" />
            <Array as="points">
              <mxPoint x="935" y="1462" />
            </Array>
          </mxGeometry>
        </mxCell>
        <mxCell id="SrimqY8IVKDhNXtefk8D-61" value="" style="edgeStyle=elbowEdgeStyle;fontSize=12;html=1;endArrow=ERoneToMany;startArrow=ERone;rounded=0;startFill=0;entryX=0;entryY=0.5;entryDx=0;entryDy=0;jumpStyle=line;exitX=1;exitY=0.601;exitDx=0;exitDy=0;exitPerimeter=0;" parent="1" source="HP4pHk8FHyrEkAVyZ_Qv-99" edge="1" target="SrimqY8IVKDhNXtefk8D-54">
          <mxGeometry width="100" height="100" relative="1" as="geometry">
            <mxPoint x="825" y="1252" as="sourcePoint" />
            <mxPoint x="1015" y="1334" as="targetPoint" />
            <Array as="points">
              <mxPoint x="965" y="1302" />
            </Array>
          </mxGeometry>
        </mxCell>
        <mxCell id="SrimqY8IVKDhNXtefk8D-62" value="" style="edgeStyle=elbowEdgeStyle;fontSize=12;html=1;endArrow=ERzeroToMany;startArrow=ERone;rounded=0;startFill=0;exitX=1;exitY=0.69;exitDx=0;exitDy=0;entryX=0;entryY=0.5;entryDx=0;entryDy=0;jumpStyle=line;exitPerimeter=0;endFill=0;" parent="1" source="CpBTHu7pFJ8_8jRN4DaD-15" target="SrimqY8IVKDhNXtefk8D-7" edge="1">
          <mxGeometry width="100" height="100" relative="1" as="geometry">
            <mxPoint x="1685" y="1769" as="sourcePoint" />
            <mxPoint x="1778" y="1769" as="targetPoint" />
            <Array as="points">
              <mxPoint x="935" y="1712" />
            </Array>
          </mxGeometry>
        </mxCell>
        <mxCell id="CpBTHu7pFJ8_8jRN4DaD-31" value="" style="group" parent="1" vertex="1" connectable="0">
          <mxGeometry x="575" y="1203" width="320" height="211" as="geometry" />
        </mxCell>
        <mxCell id="HP4pHk8FHyrEkAVyZ_Qv-98" value="tbl_country" style="shape=table;startSize=30;container=1;collapsible=1;childLayout=tableLayout;fixedRows=1;rowLines=0;fontStyle=1;align=center;resizeLast=1;html=1;fillColor=#1ba1e2;fontColor=#ffffff;strokeColor=#006EAF;" parent="CpBTHu7pFJ8_8jRN4DaD-31" vertex="1">
          <mxGeometry width="320" height="180" as="geometry" />
        </mxCell>
        <mxCell id="HP4pHk8FHyrEkAVyZ_Qv-99" value="" style="shape=tableRow;horizontal=0;startSize=0;swimlaneHead=0;swimlaneBody=0;fillColor=none;collapsible=0;dropTarget=0;points=[[0,0.5],[1,0.5]];portConstraint=eastwest;top=0;left=0;right=0;bottom=1;" parent="HP4pHk8FHyrEkAVyZ_Qv-98" vertex="1">
          <mxGeometry y="30" width="320" height="30" as="geometry" />
        </mxCell>
        <mxCell id="HP4pHk8FHyrEkAVyZ_Qv-100" value="PK" style="shape=partialRectangle;connectable=0;fillColor=none;top=0;left=0;bottom=0;right=0;fontStyle=1;overflow=hidden;whiteSpace=wrap;html=1;" parent="HP4pHk8FHyrEkAVyZ_Qv-99" vertex="1">
          <mxGeometry width="30" height="30" as="geometry">
            <mxRectangle width="30" height="30" as="alternateBounds" />
          </mxGeometry>
        </mxCell>
        <mxCell id="HP4pHk8FHyrEkAVyZ_Qv-101" value="countryIsoAlpha3, CHAR(3), NOT NULL" style="shape=partialRectangle;connectable=0;fillColor=none;top=0;left=0;bottom=0;right=0;align=left;spacingLeft=6;fontStyle=5;overflow=hidden;whiteSpace=wrap;html=1;" parent="HP4pHk8FHyrEkAVyZ_Qv-99" vertex="1">
          <mxGeometry x="30" width="290" height="30" as="geometry">
            <mxRectangle width="290" height="30" as="alternateBounds" />
          </mxGeometry>
        </mxCell>
        <mxCell id="SrimqY8IVKDhNXtefk8D-119" value="" style="shape=tableRow;horizontal=0;startSize=0;swimlaneHead=0;swimlaneBody=0;fillColor=none;collapsible=0;dropTarget=0;points=[[0,0.5],[1,0.5]];portConstraint=eastwest;top=0;left=0;right=0;bottom=0;" parent="HP4pHk8FHyrEkAVyZ_Qv-98" vertex="1">
          <mxGeometry y="60" width="320" height="30" as="geometry" />
        </mxCell>
        <mxCell id="SrimqY8IVKDhNXtefk8D-120" value="" style="shape=partialRectangle;connectable=0;fillColor=none;top=0;left=0;bottom=0;right=0;editable=1;overflow=hidden;whiteSpace=wrap;html=1;" parent="SrimqY8IVKDhNXtefk8D-119" vertex="1">
          <mxGeometry width="30" height="30" as="geometry">
            <mxRectangle width="30" height="30" as="alternateBounds" />
          </mxGeometry>
        </mxCell>
        <mxCell id="SrimqY8IVKDhNXtefk8D-121" value="countryIsoAlpha2, CHAR(2), NOT NULL" style="shape=partialRectangle;connectable=0;fillColor=none;top=0;left=0;bottom=0;right=0;align=left;spacingLeft=6;overflow=hidden;whiteSpace=wrap;html=1;" parent="SrimqY8IVKDhNXtefk8D-119" vertex="1">
          <mxGeometry x="30" width="290" height="30" as="geometry">
            <mxRectangle width="290" height="30" as="alternateBounds" />
          </mxGeometry>
        </mxCell>
        <mxCell id="HP4pHk8FHyrEkAVyZ_Qv-102" value="" style="shape=tableRow;horizontal=0;startSize=0;swimlaneHead=0;swimlaneBody=0;fillColor=none;collapsible=0;dropTarget=0;points=[[0,0.5],[1,0.5]];portConstraint=eastwest;top=0;left=0;right=0;bottom=0;" parent="HP4pHk8FHyrEkAVyZ_Qv-98" vertex="1">
          <mxGeometry y="90" width="320" height="30" as="geometry" />
        </mxCell>
        <mxCell id="HP4pHk8FHyrEkAVyZ_Qv-103" value="" style="shape=partialRectangle;connectable=0;fillColor=none;top=0;left=0;bottom=0;right=0;editable=1;overflow=hidden;whiteSpace=wrap;html=1;" parent="HP4pHk8FHyrEkAVyZ_Qv-102" vertex="1">
          <mxGeometry width="30" height="30" as="geometry">
            <mxRectangle width="30" height="30" as="alternateBounds" />
          </mxGeometry>
        </mxCell>
        <mxCell id="HP4pHk8FHyrEkAVyZ_Qv-104" value="countryNameGerman, VARCHAR(45), NOT NULL" style="shape=partialRectangle;connectable=0;fillColor=none;top=0;left=0;bottom=0;right=0;align=left;spacingLeft=6;overflow=hidden;whiteSpace=wrap;html=1;" parent="HP4pHk8FHyrEkAVyZ_Qv-102" vertex="1">
          <mxGeometry x="30" width="290" height="30" as="geometry">
            <mxRectangle width="290" height="30" as="alternateBounds" />
          </mxGeometry>
        </mxCell>
        <mxCell id="HP4pHk8FHyrEkAVyZ_Qv-108" value="" style="shape=tableRow;horizontal=0;startSize=0;swimlaneHead=0;swimlaneBody=0;fillColor=none;collapsible=0;dropTarget=0;points=[[0,0.5],[1,0.5]];portConstraint=eastwest;top=0;left=0;right=0;bottom=0;" parent="HP4pHk8FHyrEkAVyZ_Qv-98" vertex="1">
          <mxGeometry y="120" width="320" height="30" as="geometry" />
        </mxCell>
        <mxCell id="HP4pHk8FHyrEkAVyZ_Qv-109" value="" style="shape=partialRectangle;connectable=0;fillColor=none;top=0;left=0;bottom=0;right=0;editable=1;overflow=hidden;whiteSpace=wrap;html=1;" parent="HP4pHk8FHyrEkAVyZ_Qv-108" vertex="1">
          <mxGeometry width="30" height="30" as="geometry">
            <mxRectangle width="30" height="30" as="alternateBounds" />
          </mxGeometry>
        </mxCell>
        <mxCell id="HP4pHk8FHyrEkAVyZ_Qv-110" value="countryNameEnglish, VARCHAR(45), NOT NULL" style="shape=partialRectangle;connectable=0;fillColor=none;top=0;left=0;bottom=0;right=0;align=left;spacingLeft=6;overflow=hidden;whiteSpace=wrap;html=1;" parent="HP4pHk8FHyrEkAVyZ_Qv-108" vertex="1">
          <mxGeometry x="30" width="290" height="30" as="geometry">
            <mxRectangle width="290" height="30" as="alternateBounds" />
          </mxGeometry>
        </mxCell>
        <mxCell id="HP4pHk8FHyrEkAVyZ_Qv-111" value="" style="shape=tableRow;horizontal=0;startSize=0;swimlaneHead=0;swimlaneBody=0;fillColor=none;collapsible=0;dropTarget=0;points=[[0,0.5],[1,0.5]];portConstraint=eastwest;top=0;left=0;right=0;bottom=0;" parent="HP4pHk8FHyrEkAVyZ_Qv-98" vertex="1">
          <mxGeometry y="150" width="320" height="30" as="geometry" />
        </mxCell>
        <mxCell id="HP4pHk8FHyrEkAVyZ_Qv-112" value="" style="shape=partialRectangle;connectable=0;fillColor=none;top=0;left=0;bottom=0;right=0;editable=1;overflow=hidden;whiteSpace=wrap;html=1;" parent="HP4pHk8FHyrEkAVyZ_Qv-111" vertex="1">
          <mxGeometry width="30" height="30" as="geometry">
            <mxRectangle width="30" height="30" as="alternateBounds" />
          </mxGeometry>
        </mxCell>
        <mxCell id="HP4pHk8FHyrEkAVyZ_Qv-113" value="countryNameOriginal, VARCHAR(45)" style="shape=partialRectangle;connectable=0;fillColor=none;top=0;left=0;bottom=0;right=0;align=left;spacingLeft=6;overflow=hidden;whiteSpace=wrap;html=1;" parent="HP4pHk8FHyrEkAVyZ_Qv-111" vertex="1">
          <mxGeometry x="30" width="290" height="30" as="geometry">
            <mxRectangle width="290" height="30" as="alternateBounds" />
          </mxGeometry>
        </mxCell>
        <mxCell id="CpBTHu7pFJ8_8jRN4DaD-30" value="&lt;font color=&quot;#009900&quot;&gt;/* csv-file with 249 countrys */&lt;/font&gt;" style="rounded=0;whiteSpace=wrap;html=1;fillColor=none;fontColor=#ffffff;strokeColor=#006eaf;" parent="CpBTHu7pFJ8_8jRN4DaD-31" vertex="1">
          <mxGeometry y="181" width="320" height="30" as="geometry" />
        </mxCell>
        <mxCell id="CpBTHu7pFJ8_8jRN4DaD-33" value="" style="group" parent="1" vertex="1" connectable="0">
          <mxGeometry x="575" y="1494" width="320" height="90" as="geometry" />
        </mxCell>
        <mxCell id="CpBTHu7pFJ8_8jRN4DaD-14" value="tbl_phonePrefix" style="shape=table;startSize=30;container=1;collapsible=1;childLayout=tableLayout;fixedRows=1;rowLines=0;fontStyle=1;align=center;resizeLast=1;html=1;fillColor=#1ba1e2;fontColor=#ffffff;strokeColor=#006EAF;" parent="CpBTHu7pFJ8_8jRN4DaD-33" vertex="1">
          <mxGeometry width="320" height="60" as="geometry" />
        </mxCell>
        <mxCell id="CpBTHu7pFJ8_8jRN4DaD-15" value="" style="shape=tableRow;horizontal=0;startSize=0;swimlaneHead=0;swimlaneBody=0;fillColor=none;collapsible=0;dropTarget=0;points=[[0,0.5],[1,0.5]];portConstraint=eastwest;top=0;left=0;right=0;bottom=1;" parent="CpBTHu7pFJ8_8jRN4DaD-14" vertex="1">
          <mxGeometry y="30" width="320" height="30" as="geometry" />
        </mxCell>
        <mxCell id="CpBTHu7pFJ8_8jRN4DaD-16" value="PK" style="shape=partialRectangle;connectable=0;fillColor=none;top=0;left=0;bottom=0;right=0;fontStyle=1;overflow=hidden;whiteSpace=wrap;html=1;" parent="CpBTHu7pFJ8_8jRN4DaD-15" vertex="1">
          <mxGeometry width="30" height="30" as="geometry">
            <mxRectangle width="30" height="30" as="alternateBounds" />
          </mxGeometry>
        </mxCell>
        <mxCell id="CpBTHu7pFJ8_8jRN4DaD-17" value="phonePrefix, VARCHAR(6), NOT NULL" style="shape=partialRectangle;connectable=0;fillColor=none;top=0;left=0;bottom=0;right=0;align=left;spacingLeft=6;fontStyle=5;overflow=hidden;whiteSpace=wrap;html=1;" parent="CpBTHu7pFJ8_8jRN4DaD-15" vertex="1">
          <mxGeometry x="30" width="290" height="30" as="geometry">
            <mxRectangle width="290" height="30" as="alternateBounds" />
          </mxGeometry>
        </mxCell>
        <mxCell id="CpBTHu7pFJ8_8jRN4DaD-32" value="&lt;font color=&quot;#009900&quot;&gt;/* csv-file with 220 phone prefixes */&lt;/font&gt;" style="rounded=0;whiteSpace=wrap;html=1;fillColor=none;fontColor=#ffffff;strokeColor=#006eaf;" parent="CpBTHu7pFJ8_8jRN4DaD-33" vertex="1">
          <mxGeometry y="60" width="320" height="30" as="geometry" />
        </mxCell>
        <mxCell id="CpBTHu7pFJ8_8jRN4DaD-38" value="" style="group" parent="1" vertex="1" connectable="0">
          <mxGeometry x="2295" y="1082" width="320" height="180" as="geometry" />
        </mxCell>
        <mxCell id="m-uryQRzLKnpch2HjsIr-42" value="tbl_project" style="shape=table;startSize=30;container=1;collapsible=1;childLayout=tableLayout;fixedRows=1;rowLines=0;fontStyle=1;align=center;resizeLast=1;html=1;fillColor=#008a00;fontColor=#ffffff;strokeColor=#005700;" parent="CpBTHu7pFJ8_8jRN4DaD-38" vertex="1">
          <mxGeometry width="320" height="150" as="geometry" />
        </mxCell>
        <mxCell id="m-uryQRzLKnpch2HjsIr-43" value="" style="shape=tableRow;horizontal=0;startSize=0;swimlaneHead=0;swimlaneBody=0;fillColor=none;collapsible=0;dropTarget=0;points=[[0,0.5],[1,0.5]];portConstraint=eastwest;top=0;left=0;right=0;bottom=1;" parent="m-uryQRzLKnpch2HjsIr-42" vertex="1">
          <mxGeometry y="30" width="320" height="30" as="geometry" />
        </mxCell>
        <mxCell id="m-uryQRzLKnpch2HjsIr-44" value="PK" style="shape=partialRectangle;connectable=0;fillColor=none;top=0;left=0;bottom=0;right=0;fontStyle=1;overflow=hidden;whiteSpace=wrap;html=1;" parent="m-uryQRzLKnpch2HjsIr-43" vertex="1">
          <mxGeometry width="30" height="30" as="geometry">
            <mxRectangle width="30" height="30" as="alternateBounds" />
          </mxGeometry>
        </mxCell>
        <mxCell id="m-uryQRzLKnpch2HjsIr-45" value="projectId, INT, NOT NULL, AIK" style="shape=partialRectangle;connectable=0;fillColor=none;top=0;left=0;bottom=0;right=0;align=left;spacingLeft=6;fontStyle=5;overflow=hidden;whiteSpace=wrap;html=1;" parent="m-uryQRzLKnpch2HjsIr-43" vertex="1">
          <mxGeometry x="30" width="290" height="30" as="geometry">
            <mxRectangle width="290" height="30" as="alternateBounds" />
          </mxGeometry>
        </mxCell>
        <mxCell id="m-uryQRzLKnpch2HjsIr-46" value="" style="shape=tableRow;horizontal=0;startSize=0;swimlaneHead=0;swimlaneBody=0;fillColor=none;collapsible=0;dropTarget=0;points=[[0,0.5],[1,0.5]];portConstraint=eastwest;top=0;left=0;right=0;bottom=0;" parent="m-uryQRzLKnpch2HjsIr-42" vertex="1">
          <mxGeometry y="60" width="320" height="30" as="geometry" />
        </mxCell>
        <mxCell id="m-uryQRzLKnpch2HjsIr-47" value="" style="shape=partialRectangle;connectable=0;fillColor=none;top=0;left=0;bottom=0;right=0;editable=1;overflow=hidden;whiteSpace=wrap;html=1;" parent="m-uryQRzLKnpch2HjsIr-46" vertex="1">
          <mxGeometry width="30" height="30" as="geometry">
            <mxRectangle width="30" height="30" as="alternateBounds" />
          </mxGeometry>
        </mxCell>
        <mxCell id="m-uryQRzLKnpch2HjsIr-48" value="projectName, VARCHAR(125), NOT NULL" style="shape=partialRectangle;connectable=0;fillColor=none;top=0;left=0;bottom=0;right=0;align=left;spacingLeft=6;overflow=hidden;whiteSpace=wrap;html=1;" parent="m-uryQRzLKnpch2HjsIr-46" vertex="1">
          <mxGeometry x="30" width="290" height="30" as="geometry">
            <mxRectangle width="290" height="30" as="alternateBounds" />
          </mxGeometry>
        </mxCell>
        <mxCell id="m-uryQRzLKnpch2HjsIr-49" value="" style="shape=tableRow;horizontal=0;startSize=0;swimlaneHead=0;swimlaneBody=0;fillColor=none;collapsible=0;dropTarget=0;points=[[0,0.5],[1,0.5]];portConstraint=eastwest;top=0;left=0;right=0;bottom=0;" parent="m-uryQRzLKnpch2HjsIr-42" vertex="1">
          <mxGeometry y="90" width="320" height="30" as="geometry" />
        </mxCell>
        <mxCell id="m-uryQRzLKnpch2HjsIr-50" value="FK" style="shape=partialRectangle;connectable=0;fillColor=none;top=0;left=0;bottom=0;right=0;editable=1;overflow=hidden;whiteSpace=wrap;html=1;fontStyle=2" parent="m-uryQRzLKnpch2HjsIr-49" vertex="1">
          <mxGeometry width="30" height="30" as="geometry">
            <mxRectangle width="30" height="30" as="alternateBounds" />
          </mxGeometry>
        </mxCell>
        <mxCell id="m-uryQRzLKnpch2HjsIr-51" value="projectHead, INT" style="shape=partialRectangle;connectable=0;fillColor=none;top=0;left=0;bottom=0;right=0;align=left;spacingLeft=6;overflow=hidden;whiteSpace=wrap;html=1;fontStyle=2" parent="m-uryQRzLKnpch2HjsIr-49" vertex="1">
          <mxGeometry x="30" width="290" height="30" as="geometry">
            <mxRectangle width="290" height="30" as="alternateBounds" />
          </mxGeometry>
        </mxCell>
        <mxCell id="m-uryQRzLKnpch2HjsIr-52" value="" style="shape=tableRow;horizontal=0;startSize=0;swimlaneHead=0;swimlaneBody=0;fillColor=none;collapsible=0;dropTarget=0;points=[[0,0.5],[1,0.5]];portConstraint=eastwest;top=0;left=0;right=0;bottom=0;" parent="m-uryQRzLKnpch2HjsIr-42" vertex="1">
          <mxGeometry y="120" width="320" height="30" as="geometry" />
        </mxCell>
        <mxCell id="m-uryQRzLKnpch2HjsIr-53" value="FK" style="shape=partialRectangle;connectable=0;fillColor=none;top=0;left=0;bottom=0;right=0;editable=1;overflow=hidden;whiteSpace=wrap;html=1;fontStyle=2" parent="m-uryQRzLKnpch2HjsIr-52" vertex="1">
          <mxGeometry width="30" height="30" as="geometry">
            <mxRectangle width="30" height="30" as="alternateBounds" />
          </mxGeometry>
        </mxCell>
        <mxCell id="m-uryQRzLKnpch2HjsIr-54" value="gameId, INT" style="shape=partialRectangle;connectable=0;fillColor=none;top=0;left=0;bottom=0;right=0;align=left;spacingLeft=6;overflow=hidden;whiteSpace=wrap;html=1;fontStyle=2" parent="m-uryQRzLKnpch2HjsIr-52" vertex="1">
          <mxGeometry x="30" width="290" height="30" as="geometry">
            <mxRectangle width="290" height="30" as="alternateBounds" />
          </mxGeometry>
        </mxCell>
        <mxCell id="CpBTHu7pFJ8_8jRN4DaD-37" value="&lt;font color=&quot;#009900&quot;&gt;/* csv-file with 10&#39;000 employee */&lt;/font&gt;" style="rounded=0;whiteSpace=wrap;html=1;fillColor=none;fontColor=#ffffff;strokeColor=#005700;" parent="CpBTHu7pFJ8_8jRN4DaD-38" vertex="1">
          <mxGeometry y="150" width="320" height="30" as="geometry" />
        </mxCell>
        <mxCell id="CpBTHu7pFJ8_8jRN4DaD-40" value="" style="group" parent="1" vertex="1" connectable="0">
          <mxGeometry x="1415" y="744" width="360" height="327.5" as="geometry" />
        </mxCell>
        <mxCell id="HP4pHk8FHyrEkAVyZ_Qv-14" value="tbl_employee" style="shape=table;startSize=30;container=1;collapsible=1;childLayout=tableLayout;fixedRows=1;rowLines=0;fontStyle=1;align=center;resizeLast=1;html=1;fillColor=#008a00;fontColor=#ffffff;strokeColor=#005700;" parent="CpBTHu7pFJ8_8jRN4DaD-40" vertex="1">
          <mxGeometry width="360" height="300" as="geometry" />
        </mxCell>
        <mxCell id="HP4pHk8FHyrEkAVyZ_Qv-15" value="" style="shape=tableRow;horizontal=0;startSize=0;swimlaneHead=0;swimlaneBody=0;fillColor=none;collapsible=0;dropTarget=0;points=[[0,0.5],[1,0.5]];portConstraint=eastwest;top=0;left=0;right=0;bottom=1;" parent="HP4pHk8FHyrEkAVyZ_Qv-14" vertex="1">
          <mxGeometry y="30" width="360" height="30" as="geometry" />
        </mxCell>
        <mxCell id="HP4pHk8FHyrEkAVyZ_Qv-16" value="PK" style="shape=partialRectangle;connectable=0;fillColor=none;top=0;left=0;bottom=0;right=0;fontStyle=1;overflow=hidden;whiteSpace=wrap;html=1;" parent="HP4pHk8FHyrEkAVyZ_Qv-15" vertex="1">
          <mxGeometry width="30" height="30" as="geometry">
            <mxRectangle width="30" height="30" as="alternateBounds" />
          </mxGeometry>
        </mxCell>
        <mxCell id="HP4pHk8FHyrEkAVyZ_Qv-17" value="emplId, INT, NOT NULL, AIK" style="shape=partialRectangle;connectable=0;fillColor=none;top=0;left=0;bottom=0;right=0;align=left;spacingLeft=6;fontStyle=5;overflow=hidden;whiteSpace=wrap;html=1;" parent="HP4pHk8FHyrEkAVyZ_Qv-15" vertex="1">
          <mxGeometry x="30" width="330" height="30" as="geometry">
            <mxRectangle width="330" height="30" as="alternateBounds" />
          </mxGeometry>
        </mxCell>
        <mxCell id="HP4pHk8FHyrEkAVyZ_Qv-53" value="" style="shape=tableRow;horizontal=0;startSize=0;swimlaneHead=0;swimlaneBody=0;fillColor=none;collapsible=0;dropTarget=0;points=[[0,0.5],[1,0.5]];portConstraint=eastwest;top=0;left=0;right=0;bottom=0;" parent="HP4pHk8FHyrEkAVyZ_Qv-14" vertex="1">
          <mxGeometry y="60" width="360" height="30" as="geometry" />
        </mxCell>
        <mxCell id="HP4pHk8FHyrEkAVyZ_Qv-54" value="FK" style="shape=partialRectangle;connectable=0;fillColor=none;top=0;left=0;bottom=0;right=0;editable=1;overflow=hidden;whiteSpace=wrap;html=1;fontStyle=2" parent="HP4pHk8FHyrEkAVyZ_Qv-53" vertex="1">
          <mxGeometry width="30" height="30" as="geometry">
            <mxRectangle width="30" height="30" as="alternateBounds" />
          </mxGeometry>
        </mxCell>
        <mxCell id="HP4pHk8FHyrEkAVyZ_Qv-55" value="emplDepartment, INT" style="shape=partialRectangle;connectable=0;fillColor=none;top=0;left=0;bottom=0;right=0;align=left;spacingLeft=6;overflow=hidden;whiteSpace=wrap;html=1;fontStyle=2" parent="HP4pHk8FHyrEkAVyZ_Qv-53" vertex="1">
          <mxGeometry x="30" width="330" height="30" as="geometry">
            <mxRectangle width="330" height="30" as="alternateBounds" />
          </mxGeometry>
        </mxCell>
        <mxCell id="HP4pHk8FHyrEkAVyZ_Qv-18" value="" style="shape=tableRow;horizontal=0;startSize=0;swimlaneHead=0;swimlaneBody=0;fillColor=none;collapsible=0;dropTarget=0;points=[[0,0.5],[1,0.5]];portConstraint=eastwest;top=0;left=0;right=0;bottom=0;" parent="HP4pHk8FHyrEkAVyZ_Qv-14" vertex="1">
          <mxGeometry y="90" width="360" height="30" as="geometry" />
        </mxCell>
        <mxCell id="HP4pHk8FHyrEkAVyZ_Qv-19" value="" style="shape=partialRectangle;connectable=0;fillColor=none;top=0;left=0;bottom=0;right=0;editable=1;overflow=hidden;whiteSpace=wrap;html=1;" parent="HP4pHk8FHyrEkAVyZ_Qv-18" vertex="1">
          <mxGeometry width="30" height="30" as="geometry">
            <mxRectangle width="30" height="30" as="alternateBounds" />
          </mxGeometry>
        </mxCell>
        <mxCell id="HP4pHk8FHyrEkAVyZ_Qv-20" value="emplFirstName, VARCHAR(45), NOT NULL" style="shape=partialRectangle;connectable=0;fillColor=none;top=0;left=0;bottom=0;right=0;align=left;spacingLeft=6;overflow=hidden;whiteSpace=wrap;html=1;" parent="HP4pHk8FHyrEkAVyZ_Qv-18" vertex="1">
          <mxGeometry x="30" width="330" height="30" as="geometry">
            <mxRectangle width="330" height="30" as="alternateBounds" />
          </mxGeometry>
        </mxCell>
        <mxCell id="HP4pHk8FHyrEkAVyZ_Qv-21" value="" style="shape=tableRow;horizontal=0;startSize=0;swimlaneHead=0;swimlaneBody=0;fillColor=none;collapsible=0;dropTarget=0;points=[[0,0.5],[1,0.5]];portConstraint=eastwest;top=0;left=0;right=0;bottom=0;" parent="HP4pHk8FHyrEkAVyZ_Qv-14" vertex="1">
          <mxGeometry y="120" width="360" height="30" as="geometry" />
        </mxCell>
        <mxCell id="HP4pHk8FHyrEkAVyZ_Qv-22" value="" style="shape=partialRectangle;connectable=0;fillColor=none;top=0;left=0;bottom=0;right=0;editable=1;overflow=hidden;whiteSpace=wrap;html=1;" parent="HP4pHk8FHyrEkAVyZ_Qv-21" vertex="1">
          <mxGeometry width="30" height="30" as="geometry">
            <mxRectangle width="30" height="30" as="alternateBounds" />
          </mxGeometry>
        </mxCell>
        <mxCell id="HP4pHk8FHyrEkAVyZ_Qv-23" value="emplLastName, VARCHAR(45), NOT NULL" style="shape=partialRectangle;connectable=0;fillColor=none;top=0;left=0;bottom=0;right=0;align=left;spacingLeft=6;overflow=hidden;whiteSpace=wrap;html=1;" parent="HP4pHk8FHyrEkAVyZ_Qv-21" vertex="1">
          <mxGeometry x="30" width="330" height="30" as="geometry">
            <mxRectangle width="330" height="30" as="alternateBounds" />
          </mxGeometry>
        </mxCell>
        <mxCell id="HP4pHk8FHyrEkAVyZ_Qv-24" value="" style="shape=tableRow;horizontal=0;startSize=0;swimlaneHead=0;swimlaneBody=0;fillColor=none;collapsible=0;dropTarget=0;points=[[0,0.5],[1,0.5]];portConstraint=eastwest;top=0;left=0;right=0;bottom=0;" parent="HP4pHk8FHyrEkAVyZ_Qv-14" vertex="1">
          <mxGeometry y="150" width="360" height="30" as="geometry" />
        </mxCell>
        <mxCell id="HP4pHk8FHyrEkAVyZ_Qv-25" value="" style="shape=partialRectangle;connectable=0;fillColor=none;top=0;left=0;bottom=0;right=0;editable=1;overflow=hidden;whiteSpace=wrap;html=1;" parent="HP4pHk8FHyrEkAVyZ_Qv-24" vertex="1">
          <mxGeometry width="30" height="30" as="geometry">
            <mxRectangle width="30" height="30" as="alternateBounds" />
          </mxGeometry>
        </mxCell>
        <mxCell id="HP4pHk8FHyrEkAVyZ_Qv-26" value="emplStreet, VARCHAR(50), NOT NULL" style="shape=partialRectangle;connectable=0;fillColor=none;top=0;left=0;bottom=0;right=0;align=left;spacingLeft=6;overflow=hidden;whiteSpace=wrap;html=1;" parent="HP4pHk8FHyrEkAVyZ_Qv-24" vertex="1">
          <mxGeometry x="30" width="330" height="30" as="geometry">
            <mxRectangle width="330" height="30" as="alternateBounds" />
          </mxGeometry>
        </mxCell>
        <mxCell id="HP4pHk8FHyrEkAVyZ_Qv-60" value="" style="shape=tableRow;horizontal=0;startSize=0;swimlaneHead=0;swimlaneBody=0;fillColor=none;collapsible=0;dropTarget=0;points=[[0,0.5],[1,0.5]];portConstraint=eastwest;top=0;left=0;right=0;bottom=0;" parent="HP4pHk8FHyrEkAVyZ_Qv-14" vertex="1">
          <mxGeometry y="180" width="360" height="30" as="geometry" />
        </mxCell>
        <mxCell id="HP4pHk8FHyrEkAVyZ_Qv-61" value="" style="shape=partialRectangle;connectable=0;fillColor=none;top=0;left=0;bottom=0;right=0;editable=1;overflow=hidden;whiteSpace=wrap;html=1;" parent="HP4pHk8FHyrEkAVyZ_Qv-60" vertex="1">
          <mxGeometry width="30" height="30" as="geometry">
            <mxRectangle width="30" height="30" as="alternateBounds" />
          </mxGeometry>
        </mxCell>
        <mxCell id="HP4pHk8FHyrEkAVyZ_Qv-62" value="emplStreetNr, SMALLINT, NOT NULL" style="shape=partialRectangle;connectable=0;fillColor=none;top=0;left=0;bottom=0;right=0;align=left;spacingLeft=6;overflow=hidden;whiteSpace=wrap;html=1;" parent="HP4pHk8FHyrEkAVyZ_Qv-60" vertex="1">
          <mxGeometry x="30" width="330" height="30" as="geometry">
            <mxRectangle width="330" height="30" as="alternateBounds" />
          </mxGeometry>
        </mxCell>
        <mxCell id="HP4pHk8FHyrEkAVyZ_Qv-63" value="" style="shape=tableRow;horizontal=0;startSize=0;swimlaneHead=0;swimlaneBody=0;fillColor=none;collapsible=0;dropTarget=0;points=[[0,0.5],[1,0.5]];portConstraint=eastwest;top=0;left=0;right=0;bottom=0;" parent="HP4pHk8FHyrEkAVyZ_Qv-14" vertex="1">
          <mxGeometry y="210" width="360" height="30" as="geometry" />
        </mxCell>
        <mxCell id="HP4pHk8FHyrEkAVyZ_Qv-64" value="" style="shape=partialRectangle;connectable=0;fillColor=none;top=0;left=0;bottom=0;right=0;editable=1;overflow=hidden;whiteSpace=wrap;html=1;" parent="HP4pHk8FHyrEkAVyZ_Qv-63" vertex="1">
          <mxGeometry width="30" height="30" as="geometry">
            <mxRectangle width="30" height="30" as="alternateBounds" />
          </mxGeometry>
        </mxCell>
        <mxCell id="HP4pHk8FHyrEkAVyZ_Qv-65" value="emplZip, MEDIUMINT, NOT NULL" style="shape=partialRectangle;connectable=0;fillColor=none;top=0;left=0;bottom=0;right=0;align=left;spacingLeft=6;overflow=hidden;whiteSpace=wrap;html=1;" parent="HP4pHk8FHyrEkAVyZ_Qv-63" vertex="1">
          <mxGeometry x="30" width="330" height="30" as="geometry">
            <mxRectangle width="330" height="30" as="alternateBounds" />
          </mxGeometry>
        </mxCell>
        <mxCell id="HP4pHk8FHyrEkAVyZ_Qv-66" value="" style="shape=tableRow;horizontal=0;startSize=0;swimlaneHead=0;swimlaneBody=0;fillColor=none;collapsible=0;dropTarget=0;points=[[0,0.5],[1,0.5]];portConstraint=eastwest;top=0;left=0;right=0;bottom=0;" parent="HP4pHk8FHyrEkAVyZ_Qv-14" vertex="1">
          <mxGeometry y="240" width="360" height="30" as="geometry" />
        </mxCell>
        <mxCell id="HP4pHk8FHyrEkAVyZ_Qv-67" value="" style="shape=partialRectangle;connectable=0;fillColor=none;top=0;left=0;bottom=0;right=0;editable=1;overflow=hidden;whiteSpace=wrap;html=1;" parent="HP4pHk8FHyrEkAVyZ_Qv-66" vertex="1">
          <mxGeometry width="30" height="30" as="geometry">
            <mxRectangle width="30" height="30" as="alternateBounds" />
          </mxGeometry>
        </mxCell>
        <mxCell id="HP4pHk8FHyrEkAVyZ_Qv-68" value="emplTown, VARCHAR(50), NOT NULL" style="shape=partialRectangle;connectable=0;fillColor=none;top=0;left=0;bottom=0;right=0;align=left;spacingLeft=6;overflow=hidden;whiteSpace=wrap;html=1;" parent="HP4pHk8FHyrEkAVyZ_Qv-66" vertex="1">
          <mxGeometry x="30" width="330" height="30" as="geometry">
            <mxRectangle width="330" height="30" as="alternateBounds" />
          </mxGeometry>
        </mxCell>
        <mxCell id="HP4pHk8FHyrEkAVyZ_Qv-69" value="" style="shape=tableRow;horizontal=0;startSize=0;swimlaneHead=0;swimlaneBody=0;fillColor=none;collapsible=0;dropTarget=0;points=[[0,0.5],[1,0.5]];portConstraint=eastwest;top=0;left=0;right=0;bottom=0;" parent="HP4pHk8FHyrEkAVyZ_Qv-14" vertex="1">
          <mxGeometry y="270" width="360" height="30" as="geometry" />
        </mxCell>
        <mxCell id="HP4pHk8FHyrEkAVyZ_Qv-70" value="FK" style="shape=partialRectangle;connectable=0;fillColor=none;top=0;left=0;bottom=0;right=0;editable=1;overflow=hidden;whiteSpace=wrap;html=1;fontStyle=2" parent="HP4pHk8FHyrEkAVyZ_Qv-69" vertex="1">
          <mxGeometry width="30" height="30" as="geometry">
            <mxRectangle width="30" height="30" as="alternateBounds" />
          </mxGeometry>
        </mxCell>
        <mxCell id="HP4pHk8FHyrEkAVyZ_Qv-71" value="emplCountry, CHAR(3), NOT NULL, DEFAULT &#39;CHE&#39;" style="shape=partialRectangle;connectable=0;fillColor=none;top=0;left=0;bottom=0;right=0;align=left;spacingLeft=6;overflow=hidden;whiteSpace=wrap;html=1;fontStyle=2" parent="HP4pHk8FHyrEkAVyZ_Qv-69" vertex="1">
          <mxGeometry x="30" width="330" height="30" as="geometry">
            <mxRectangle width="330" height="30" as="alternateBounds" />
          </mxGeometry>
        </mxCell>
        <mxCell id="CpBTHu7pFJ8_8jRN4DaD-35" value="&lt;font color=&quot;#009900&quot;&gt;/* csv-file with 10&#39;000 employee */&lt;/font&gt;" style="rounded=0;whiteSpace=wrap;html=1;fillColor=none;fontColor=#ffffff;strokeColor=#005700;" parent="CpBTHu7pFJ8_8jRN4DaD-40" vertex="1">
          <mxGeometry y="300" width="360" height="27.5" as="geometry" />
        </mxCell>
        <mxCell id="CpBTHu7pFJ8_8jRN4DaD-42" value="" style="group" parent="1" vertex="1" connectable="0">
          <mxGeometry x="995" y="1296" width="300" height="120" as="geometry" />
        </mxCell>
        <mxCell id="SrimqY8IVKDhNXtefk8D-53" value="tbl_countryPhone" style="shape=table;startSize=30;container=1;collapsible=1;childLayout=tableLayout;fixedRows=1;rowLines=0;fontStyle=1;align=center;resizeLast=1;html=1;whiteSpace=wrap;" parent="CpBTHu7pFJ8_8jRN4DaD-42" vertex="1">
          <mxGeometry width="300" height="90" as="geometry" />
        </mxCell>
        <mxCell id="SrimqY8IVKDhNXtefk8D-54" value="" style="shape=tableRow;horizontal=0;startSize=0;swimlaneHead=0;swimlaneBody=0;fillColor=none;collapsible=0;dropTarget=0;points=[[0,0.5],[1,0.5]];portConstraint=eastwest;top=0;left=0;right=0;bottom=1;html=1;" parent="SrimqY8IVKDhNXtefk8D-53" vertex="1">
          <mxGeometry y="30" width="300" height="30" as="geometry" />
        </mxCell>
        <mxCell id="SrimqY8IVKDhNXtefk8D-55" value="PK, FK" style="shape=partialRectangle;connectable=0;fillColor=none;top=0;left=0;bottom=0;right=0;fontStyle=1;overflow=hidden;html=1;whiteSpace=wrap;" parent="SrimqY8IVKDhNXtefk8D-54" vertex="1">
          <mxGeometry width="60" height="30" as="geometry">
            <mxRectangle width="60" height="30" as="alternateBounds" />
          </mxGeometry>
        </mxCell>
        <mxCell id="SrimqY8IVKDhNXtefk8D-56" value="countryIsoAlpha3, CHAR(3), NOT NULL" style="shape=partialRectangle;connectable=0;fillColor=none;top=0;left=0;bottom=0;right=0;align=left;spacingLeft=6;fontStyle=5;overflow=hidden;html=1;whiteSpace=wrap;" parent="SrimqY8IVKDhNXtefk8D-54" vertex="1">
          <mxGeometry x="60" width="240" height="30" as="geometry">
            <mxRectangle width="240" height="30" as="alternateBounds" />
          </mxGeometry>
        </mxCell>
        <mxCell id="SrimqY8IVKDhNXtefk8D-57" value="" style="shape=tableRow;horizontal=0;startSize=0;swimlaneHead=0;swimlaneBody=0;fillColor=none;collapsible=0;dropTarget=0;points=[[0,0.5],[1,0.5]];portConstraint=eastwest;top=0;left=0;right=0;bottom=0;html=1;" parent="SrimqY8IVKDhNXtefk8D-53" vertex="1">
          <mxGeometry y="60" width="300" height="30" as="geometry" />
        </mxCell>
        <mxCell id="SrimqY8IVKDhNXtefk8D-58" value="PK, FK" style="shape=partialRectangle;connectable=0;fillColor=none;top=0;left=0;bottom=0;right=0;fontStyle=1;overflow=hidden;html=1;whiteSpace=wrap;" parent="SrimqY8IVKDhNXtefk8D-57" vertex="1">
          <mxGeometry width="60" height="30" as="geometry">
            <mxRectangle width="60" height="30" as="alternateBounds" />
          </mxGeometry>
        </mxCell>
        <mxCell id="SrimqY8IVKDhNXtefk8D-59" value="phonePrefix, VARCHAR(6), NOT NULL" style="shape=partialRectangle;connectable=0;fillColor=none;top=0;left=0;bottom=0;right=0;align=left;spacingLeft=6;fontStyle=5;overflow=hidden;html=1;whiteSpace=wrap;" parent="SrimqY8IVKDhNXtefk8D-57" vertex="1">
          <mxGeometry x="60" width="240" height="30" as="geometry">
            <mxRectangle width="240" height="30" as="alternateBounds" />
          </mxGeometry>
        </mxCell>
        <mxCell id="CpBTHu7pFJ8_8jRN4DaD-41" value="&lt;font color=&quot;#009900&quot;&gt;/* csv-file with 226 entrys */&lt;/font&gt;" style="rounded=0;whiteSpace=wrap;html=1;fillColor=none;fontColor=#ffffff;strokeColor=#ffffff;" parent="CpBTHu7pFJ8_8jRN4DaD-42" vertex="1">
          <mxGeometry y="90" width="300" height="30" as="geometry" />
        </mxCell>
        <mxCell id="CpBTHu7pFJ8_8jRN4DaD-43" value="" style="group" parent="1" vertex="1" connectable="0">
          <mxGeometry x="995" y="1132" width="300" height="120" as="geometry" />
        </mxCell>
        <mxCell id="CS_ih2mzuImwQKUxb3Ah-1" value="tbl_countryCurrency" style="shape=table;startSize=30;container=1;collapsible=1;childLayout=tableLayout;fixedRows=1;rowLines=0;fontStyle=1;align=center;resizeLast=1;html=1;whiteSpace=wrap;" parent="CpBTHu7pFJ8_8jRN4DaD-43" vertex="1">
          <mxGeometry width="300" height="90" as="geometry" />
        </mxCell>
        <mxCell id="CS_ih2mzuImwQKUxb3Ah-2" value="" style="shape=tableRow;horizontal=0;startSize=0;swimlaneHead=0;swimlaneBody=0;fillColor=none;collapsible=0;dropTarget=0;points=[[0,0.5],[1,0.5]];portConstraint=eastwest;top=0;left=0;right=0;bottom=0;html=1;" parent="CS_ih2mzuImwQKUxb3Ah-1" vertex="1">
          <mxGeometry y="30" width="300" height="30" as="geometry" />
        </mxCell>
        <mxCell id="CS_ih2mzuImwQKUxb3Ah-3" value="PK, FK" style="shape=partialRectangle;connectable=0;fillColor=none;top=0;left=0;bottom=0;right=0;fontStyle=1;overflow=hidden;html=1;whiteSpace=wrap;" parent="CS_ih2mzuImwQKUxb3Ah-2" vertex="1">
          <mxGeometry width="60" height="30" as="geometry">
            <mxRectangle width="60" height="30" as="alternateBounds" />
          </mxGeometry>
        </mxCell>
        <mxCell id="CS_ih2mzuImwQKUxb3Ah-4" value="countryIsoAlpha3, CHAR(3), NOT NULL" style="shape=partialRectangle;connectable=0;fillColor=none;top=0;left=0;bottom=0;right=0;align=left;spacingLeft=6;fontStyle=5;overflow=hidden;html=1;whiteSpace=wrap;" parent="CS_ih2mzuImwQKUxb3Ah-2" vertex="1">
          <mxGeometry x="60" width="240" height="30" as="geometry">
            <mxRectangle width="240" height="30" as="alternateBounds" />
          </mxGeometry>
        </mxCell>
        <mxCell id="CS_ih2mzuImwQKUxb3Ah-5" value="" style="shape=tableRow;horizontal=0;startSize=0;swimlaneHead=0;swimlaneBody=0;fillColor=none;collapsible=0;dropTarget=0;points=[[0,0.5],[1,0.5]];portConstraint=eastwest;top=0;left=0;right=0;bottom=1;html=1;" parent="CS_ih2mzuImwQKUxb3Ah-1" vertex="1">
          <mxGeometry y="60" width="300" height="30" as="geometry" />
        </mxCell>
        <mxCell id="CS_ih2mzuImwQKUxb3Ah-6" value="PK, FK" style="shape=partialRectangle;connectable=0;fillColor=none;top=0;left=0;bottom=0;right=0;fontStyle=1;overflow=hidden;html=1;whiteSpace=wrap;" parent="CS_ih2mzuImwQKUxb3Ah-5" vertex="1">
          <mxGeometry width="60" height="30" as="geometry">
            <mxRectangle width="60" height="30" as="alternateBounds" />
          </mxGeometry>
        </mxCell>
        <mxCell id="CS_ih2mzuImwQKUxb3Ah-7" value="currencyCode, CHAR(3), NOT NULL" style="shape=partialRectangle;connectable=0;fillColor=none;top=0;left=0;bottom=0;right=0;align=left;spacingLeft=6;fontStyle=5;overflow=hidden;html=1;whiteSpace=wrap;" parent="CS_ih2mzuImwQKUxb3Ah-5" vertex="1">
          <mxGeometry x="60" width="240" height="30" as="geometry">
            <mxRectangle width="240" height="30" as="alternateBounds" />
          </mxGeometry>
        </mxCell>
        <mxCell id="CpBTHu7pFJ8_8jRN4DaD-39" value="&lt;font color=&quot;#009900&quot;&gt;/* csv-file with 263 entrys */&lt;/font&gt;" style="rounded=0;whiteSpace=wrap;html=1;fillColor=none;fontColor=#ffffff;strokeColor=#ffffff;" parent="CpBTHu7pFJ8_8jRN4DaD-43" vertex="1">
          <mxGeometry y="90" width="300" height="30" as="geometry" />
        </mxCell>
        <mxCell id="CpBTHu7pFJ8_8jRN4DaD-47" value="" style="group" parent="1" vertex="1" connectable="0">
          <mxGeometry x="2465" y="584" width="280" height="150" as="geometry" />
        </mxCell>
        <mxCell id="HP4pHk8FHyrEkAVyZ_Qv-40" value="tbl_salary" style="shape=table;startSize=30;container=1;collapsible=1;childLayout=tableLayout;fixedRows=1;rowLines=0;fontStyle=1;align=center;resizeLast=1;html=1;fillColor=#1ba1e2;fontColor=#ffffff;strokeColor=#006EAF;" parent="CpBTHu7pFJ8_8jRN4DaD-47" vertex="1">
          <mxGeometry width="280" height="120" as="geometry" />
        </mxCell>
        <mxCell id="HP4pHk8FHyrEkAVyZ_Qv-41" value="" style="shape=tableRow;horizontal=0;startSize=0;swimlaneHead=0;swimlaneBody=0;fillColor=none;collapsible=0;dropTarget=0;points=[[0,0.5],[1,0.5]];portConstraint=eastwest;top=0;left=0;right=0;bottom=1;" parent="HP4pHk8FHyrEkAVyZ_Qv-40" vertex="1">
          <mxGeometry y="30" width="280" height="30" as="geometry" />
        </mxCell>
        <mxCell id="HP4pHk8FHyrEkAVyZ_Qv-42" value="PK" style="shape=partialRectangle;connectable=0;fillColor=none;top=0;left=0;bottom=0;right=0;fontStyle=1;overflow=hidden;whiteSpace=wrap;html=1;" parent="HP4pHk8FHyrEkAVyZ_Qv-41" vertex="1">
          <mxGeometry width="30" height="30" as="geometry">
            <mxRectangle width="30" height="30" as="alternateBounds" />
          </mxGeometry>
        </mxCell>
        <mxCell id="HP4pHk8FHyrEkAVyZ_Qv-43" value="salaryId, INT, NOT NULL, AIK" style="shape=partialRectangle;connectable=0;fillColor=none;top=0;left=0;bottom=0;right=0;align=left;spacingLeft=6;fontStyle=5;overflow=hidden;whiteSpace=wrap;html=1;" parent="HP4pHk8FHyrEkAVyZ_Qv-41" vertex="1">
          <mxGeometry x="30" width="250" height="30" as="geometry">
            <mxRectangle width="250" height="30" as="alternateBounds" />
          </mxGeometry>
        </mxCell>
        <mxCell id="HP4pHk8FHyrEkAVyZ_Qv-44" value="" style="shape=tableRow;horizontal=0;startSize=0;swimlaneHead=0;swimlaneBody=0;fillColor=none;collapsible=0;dropTarget=0;points=[[0,0.5],[1,0.5]];portConstraint=eastwest;top=0;left=0;right=0;bottom=0;" parent="HP4pHk8FHyrEkAVyZ_Qv-40" vertex="1">
          <mxGeometry y="60" width="280" height="30" as="geometry" />
        </mxCell>
        <mxCell id="HP4pHk8FHyrEkAVyZ_Qv-45" value="" style="shape=partialRectangle;connectable=0;fillColor=none;top=0;left=0;bottom=0;right=0;editable=1;overflow=hidden;whiteSpace=wrap;html=1;" parent="HP4pHk8FHyrEkAVyZ_Qv-44" vertex="1">
          <mxGeometry width="30" height="30" as="geometry">
            <mxRectangle width="30" height="30" as="alternateBounds" />
          </mxGeometry>
        </mxCell>
        <mxCell id="HP4pHk8FHyrEkAVyZ_Qv-46" value="salaryAmount, DECIMAL(13,2), NOT NULL" style="shape=partialRectangle;connectable=0;fillColor=none;top=0;left=0;bottom=0;right=0;align=left;spacingLeft=6;overflow=hidden;whiteSpace=wrap;html=1;" parent="HP4pHk8FHyrEkAVyZ_Qv-44" vertex="1">
          <mxGeometry x="30" width="250" height="30" as="geometry">
            <mxRectangle width="250" height="30" as="alternateBounds" />
          </mxGeometry>
        </mxCell>
        <mxCell id="HP4pHk8FHyrEkAVyZ_Qv-47" value="" style="shape=tableRow;horizontal=0;startSize=0;swimlaneHead=0;swimlaneBody=0;fillColor=none;collapsible=0;dropTarget=0;points=[[0,0.5],[1,0.5]];portConstraint=eastwest;top=0;left=0;right=0;bottom=0;" parent="HP4pHk8FHyrEkAVyZ_Qv-40" vertex="1">
          <mxGeometry y="90" width="280" height="30" as="geometry" />
        </mxCell>
        <mxCell id="HP4pHk8FHyrEkAVyZ_Qv-48" value="" style="shape=partialRectangle;connectable=0;fillColor=none;top=0;left=0;bottom=0;right=0;editable=1;overflow=hidden;whiteSpace=wrap;html=1;" parent="HP4pHk8FHyrEkAVyZ_Qv-47" vertex="1">
          <mxGeometry width="30" height="30" as="geometry">
            <mxRectangle width="30" height="30" as="alternateBounds" />
          </mxGeometry>
        </mxCell>
        <mxCell id="HP4pHk8FHyrEkAVyZ_Qv-49" value="salaryName, VARCHAR(45)" style="shape=partialRectangle;connectable=0;fillColor=none;top=0;left=0;bottom=0;right=0;align=left;spacingLeft=6;overflow=hidden;whiteSpace=wrap;html=1;" parent="HP4pHk8FHyrEkAVyZ_Qv-47" vertex="1">
          <mxGeometry x="30" width="250" height="30" as="geometry">
            <mxRectangle width="250" height="30" as="alternateBounds" />
          </mxGeometry>
        </mxCell>
        <mxCell id="CpBTHu7pFJ8_8jRN4DaD-46" value="&lt;font color=&quot;#009900&quot;&gt;/* csv-file with 42 salary classes */&lt;/font&gt;" style="rounded=0;whiteSpace=wrap;html=1;fillColor=none;fontColor=#ffffff;strokeColor=#006eaf;" parent="CpBTHu7pFJ8_8jRN4DaD-47" vertex="1">
          <mxGeometry y="120" width="280" height="30" as="geometry" />
        </mxCell>
        <mxCell id="CpBTHu7pFJ8_8jRN4DaD-58" value="" style="group" parent="1" vertex="1" connectable="0">
          <mxGeometry x="1415" y="1642" width="320" height="120" as="geometry" />
        </mxCell>
        <mxCell id="m-uryQRzLKnpch2HjsIr-207" value="tbl_currency" style="shape=table;startSize=30;container=1;collapsible=1;childLayout=tableLayout;fixedRows=1;rowLines=0;fontStyle=1;align=center;resizeLast=1;html=1;fillColor=#1ba1e2;fontColor=#ffffff;strokeColor=#006EAF;" parent="CpBTHu7pFJ8_8jRN4DaD-58" vertex="1">
          <mxGeometry width="320" height="90" as="geometry" />
        </mxCell>
        <mxCell id="m-uryQRzLKnpch2HjsIr-208" value="" style="shape=tableRow;horizontal=0;startSize=0;swimlaneHead=0;swimlaneBody=0;fillColor=none;collapsible=0;dropTarget=0;points=[[0,0.5],[1,0.5]];portConstraint=eastwest;top=0;left=0;right=0;bottom=1;" parent="m-uryQRzLKnpch2HjsIr-207" vertex="1">
          <mxGeometry y="30" width="320" height="30" as="geometry" />
        </mxCell>
        <mxCell id="m-uryQRzLKnpch2HjsIr-209" value="PK" style="shape=partialRectangle;connectable=0;fillColor=none;top=0;left=0;bottom=0;right=0;fontStyle=1;overflow=hidden;whiteSpace=wrap;html=1;" parent="m-uryQRzLKnpch2HjsIr-208" vertex="1">
          <mxGeometry width="30" height="30" as="geometry">
            <mxRectangle width="30" height="30" as="alternateBounds" />
          </mxGeometry>
        </mxCell>
        <mxCell id="m-uryQRzLKnpch2HjsIr-210" value="currencyCode, CHAR(3), NOT NULL" style="shape=partialRectangle;connectable=0;fillColor=none;top=0;left=0;bottom=0;right=0;align=left;spacingLeft=6;fontStyle=5;overflow=hidden;whiteSpace=wrap;html=1;" parent="m-uryQRzLKnpch2HjsIr-208" vertex="1">
          <mxGeometry x="30" width="290" height="30" as="geometry">
            <mxRectangle width="290" height="30" as="alternateBounds" />
          </mxGeometry>
        </mxCell>
        <mxCell id="m-uryQRzLKnpch2HjsIr-211" value="" style="shape=tableRow;horizontal=0;startSize=0;swimlaneHead=0;swimlaneBody=0;fillColor=none;collapsible=0;dropTarget=0;points=[[0,0.5],[1,0.5]];portConstraint=eastwest;top=0;left=0;right=0;bottom=0;" parent="m-uryQRzLKnpch2HjsIr-207" vertex="1">
          <mxGeometry y="60" width="320" height="30" as="geometry" />
        </mxCell>
        <mxCell id="m-uryQRzLKnpch2HjsIr-212" value="" style="shape=partialRectangle;connectable=0;fillColor=none;top=0;left=0;bottom=0;right=0;editable=1;overflow=hidden;whiteSpace=wrap;html=1;" parent="m-uryQRzLKnpch2HjsIr-211" vertex="1">
          <mxGeometry width="30" height="30" as="geometry">
            <mxRectangle width="30" height="30" as="alternateBounds" />
          </mxGeometry>
        </mxCell>
        <mxCell id="m-uryQRzLKnpch2HjsIr-213" value="currencyName, VARCHAR(45), NOT NULL" style="shape=partialRectangle;connectable=0;fillColor=none;top=0;left=0;bottom=0;right=0;align=left;spacingLeft=6;overflow=hidden;whiteSpace=wrap;html=1;" parent="m-uryQRzLKnpch2HjsIr-211" vertex="1">
          <mxGeometry x="30" width="290" height="30" as="geometry">
            <mxRectangle width="290" height="30" as="alternateBounds" />
          </mxGeometry>
        </mxCell>
        <mxCell id="CpBTHu7pFJ8_8jRN4DaD-57" value="&lt;font color=&quot;#009900&quot;&gt;/* csv-file with 171 currencys */&lt;/font&gt;" style="rounded=0;whiteSpace=wrap;html=1;fillColor=none;fontColor=#ffffff;strokeColor=#006eaf;" parent="CpBTHu7pFJ8_8jRN4DaD-58" vertex="1">
          <mxGeometry y="90" width="320" height="30" as="geometry" />
        </mxCell>
        <mxCell id="CpBTHu7pFJ8_8jRN4DaD-59" value="" style="group" parent="1" vertex="1" connectable="0">
          <mxGeometry x="1865" y="1202" width="320" height="331" as="geometry" />
        </mxCell>
        <mxCell id="m-uryQRzLKnpch2HjsIr-57" value="tbl_game" style="shape=table;startSize=30;container=1;collapsible=1;childLayout=tableLayout;fixedRows=1;rowLines=0;fontStyle=1;align=center;resizeLast=1;html=1;fillColor=#008a00;fontColor=#ffffff;strokeColor=#005700;" parent="CpBTHu7pFJ8_8jRN4DaD-59" vertex="1">
          <mxGeometry width="320" height="290" as="geometry" />
        </mxCell>
        <mxCell id="m-uryQRzLKnpch2HjsIr-58" value="" style="shape=tableRow;horizontal=0;startSize=0;swimlaneHead=0;swimlaneBody=0;fillColor=none;collapsible=0;dropTarget=0;points=[[0,0.5],[1,0.5]];portConstraint=eastwest;top=0;left=0;right=0;bottom=1;" parent="m-uryQRzLKnpch2HjsIr-57" vertex="1">
          <mxGeometry y="30" width="320" height="30" as="geometry" />
        </mxCell>
        <mxCell id="m-uryQRzLKnpch2HjsIr-59" value="PK" style="shape=partialRectangle;connectable=0;fillColor=none;top=0;left=0;bottom=0;right=0;fontStyle=1;overflow=hidden;whiteSpace=wrap;html=1;" parent="m-uryQRzLKnpch2HjsIr-58" vertex="1">
          <mxGeometry width="30" height="30" as="geometry">
            <mxRectangle width="30" height="30" as="alternateBounds" />
          </mxGeometry>
        </mxCell>
        <mxCell id="m-uryQRzLKnpch2HjsIr-60" value="gameId, INT, NOT NULL, AIK" style="shape=partialRectangle;connectable=0;fillColor=none;top=0;left=0;bottom=0;right=0;align=left;spacingLeft=6;fontStyle=5;overflow=hidden;whiteSpace=wrap;html=1;" parent="m-uryQRzLKnpch2HjsIr-58" vertex="1">
          <mxGeometry x="30" width="290" height="30" as="geometry">
            <mxRectangle width="290" height="30" as="alternateBounds" />
          </mxGeometry>
        </mxCell>
        <mxCell id="m-uryQRzLKnpch2HjsIr-61" value="" style="shape=tableRow;horizontal=0;startSize=0;swimlaneHead=0;swimlaneBody=0;fillColor=none;collapsible=0;dropTarget=0;points=[[0,0.5],[1,0.5]];portConstraint=eastwest;top=0;left=0;right=0;bottom=0;" parent="m-uryQRzLKnpch2HjsIr-57" vertex="1">
          <mxGeometry y="60" width="320" height="30" as="geometry" />
        </mxCell>
        <mxCell id="m-uryQRzLKnpch2HjsIr-62" value="" style="shape=partialRectangle;connectable=0;fillColor=none;top=0;left=0;bottom=0;right=0;editable=1;overflow=hidden;whiteSpace=wrap;html=1;" parent="m-uryQRzLKnpch2HjsIr-61" vertex="1">
          <mxGeometry width="30" height="30" as="geometry">
            <mxRectangle width="30" height="30" as="alternateBounds" />
          </mxGeometry>
        </mxCell>
        <mxCell id="m-uryQRzLKnpch2HjsIr-63" value="gameTitle, VARCHAR(45), NOT NULL" style="shape=partialRectangle;connectable=0;fillColor=none;top=0;left=0;bottom=0;right=0;align=left;spacingLeft=6;overflow=hidden;whiteSpace=wrap;html=1;" parent="m-uryQRzLKnpch2HjsIr-61" vertex="1">
          <mxGeometry x="30" width="290" height="30" as="geometry">
            <mxRectangle width="290" height="30" as="alternateBounds" />
          </mxGeometry>
        </mxCell>
        <mxCell id="m-uryQRzLKnpch2HjsIr-67" value="" style="shape=tableRow;horizontal=0;startSize=0;swimlaneHead=0;swimlaneBody=0;fillColor=none;collapsible=0;dropTarget=0;points=[[0,0.5],[1,0.5]];portConstraint=eastwest;top=0;left=0;right=0;bottom=0;" parent="m-uryQRzLKnpch2HjsIr-57" vertex="1">
          <mxGeometry y="90" width="320" height="30" as="geometry" />
        </mxCell>
        <mxCell id="m-uryQRzLKnpch2HjsIr-68" value="" style="shape=partialRectangle;connectable=0;fillColor=none;top=0;left=0;bottom=0;right=0;editable=1;overflow=hidden;whiteSpace=wrap;html=1;" parent="m-uryQRzLKnpch2HjsIr-67" vertex="1">
          <mxGeometry width="30" height="30" as="geometry">
            <mxRectangle width="30" height="30" as="alternateBounds" />
          </mxGeometry>
        </mxCell>
        <mxCell id="m-uryQRzLKnpch2HjsIr-69" value="gameDescription, TEXT" style="shape=partialRectangle;connectable=0;fillColor=none;top=0;left=0;bottom=0;right=0;align=left;spacingLeft=6;overflow=hidden;whiteSpace=wrap;html=1;" parent="m-uryQRzLKnpch2HjsIr-67" vertex="1">
          <mxGeometry x="30" width="290" height="30" as="geometry">
            <mxRectangle width="290" height="30" as="alternateBounds" />
          </mxGeometry>
        </mxCell>
        <mxCell id="m-uryQRzLKnpch2HjsIr-220" value="" style="shape=tableRow;horizontal=0;startSize=0;swimlaneHead=0;swimlaneBody=0;fillColor=none;collapsible=0;dropTarget=0;points=[[0,0.5],[1,0.5]];portConstraint=eastwest;top=0;left=0;right=0;bottom=0;" parent="m-uryQRzLKnpch2HjsIr-57" vertex="1">
          <mxGeometry y="120" width="320" height="30" as="geometry" />
        </mxCell>
        <mxCell id="m-uryQRzLKnpch2HjsIr-221" value="FK" style="shape=partialRectangle;connectable=0;fillColor=none;top=0;left=0;bottom=0;right=0;editable=1;overflow=hidden;whiteSpace=wrap;html=1;fontStyle=2" parent="m-uryQRzLKnpch2HjsIr-220" vertex="1">
          <mxGeometry width="30" height="30" as="geometry">
            <mxRectangle width="30" height="30" as="alternateBounds" />
          </mxGeometry>
        </mxCell>
        <mxCell id="m-uryQRzLKnpch2HjsIr-222" value="gameCurrency, CHAR(3)" style="shape=partialRectangle;connectable=0;fillColor=none;top=0;left=0;bottom=0;right=0;align=left;spacingLeft=6;overflow=hidden;whiteSpace=wrap;html=1;fontStyle=2" parent="m-uryQRzLKnpch2HjsIr-220" vertex="1">
          <mxGeometry x="30" width="290" height="30" as="geometry">
            <mxRectangle width="290" height="30" as="alternateBounds" />
          </mxGeometry>
        </mxCell>
        <mxCell id="m-uryQRzLKnpch2HjsIr-70" value="" style="shape=tableRow;horizontal=0;startSize=0;swimlaneHead=0;swimlaneBody=0;fillColor=none;collapsible=0;dropTarget=0;points=[[0,0.5],[1,0.5]];portConstraint=eastwest;top=0;left=0;right=0;bottom=0;" parent="m-uryQRzLKnpch2HjsIr-57" vertex="1">
          <mxGeometry y="150" width="320" height="30" as="geometry" />
        </mxCell>
        <mxCell id="m-uryQRzLKnpch2HjsIr-71" value="" style="shape=partialRectangle;connectable=0;fillColor=none;top=0;left=0;bottom=0;right=0;editable=1;overflow=hidden;whiteSpace=wrap;html=1;" parent="m-uryQRzLKnpch2HjsIr-70" vertex="1">
          <mxGeometry width="30" height="30" as="geometry">
            <mxRectangle width="30" height="30" as="alternateBounds" />
          </mxGeometry>
        </mxCell>
        <mxCell id="m-uryQRzLKnpch2HjsIr-72" value="gameBasePrice, DECIMAL(6,2)" style="shape=partialRectangle;connectable=0;fillColor=none;top=0;left=0;bottom=0;right=0;align=left;spacingLeft=6;overflow=hidden;whiteSpace=wrap;html=1;" parent="m-uryQRzLKnpch2HjsIr-70" vertex="1">
          <mxGeometry x="30" width="290" height="30" as="geometry">
            <mxRectangle width="290" height="30" as="alternateBounds" />
          </mxGeometry>
        </mxCell>
        <mxCell id="m-uryQRzLKnpch2HjsIr-73" value="" style="shape=tableRow;horizontal=0;startSize=0;swimlaneHead=0;swimlaneBody=0;fillColor=none;collapsible=0;dropTarget=0;points=[[0,0.5],[1,0.5]];portConstraint=eastwest;top=0;left=0;right=0;bottom=0;" parent="m-uryQRzLKnpch2HjsIr-57" vertex="1">
          <mxGeometry y="180" width="320" height="30" as="geometry" />
        </mxCell>
        <mxCell id="m-uryQRzLKnpch2HjsIr-74" value="" style="shape=partialRectangle;connectable=0;fillColor=none;top=0;left=0;bottom=0;right=0;editable=1;overflow=hidden;whiteSpace=wrap;html=1;" parent="m-uryQRzLKnpch2HjsIr-73" vertex="1">
          <mxGeometry width="30" height="30" as="geometry">
            <mxRectangle width="30" height="30" as="alternateBounds" />
          </mxGeometry>
        </mxCell>
        <mxCell id="m-uryQRzLKnpch2HjsIr-75" value="gameRelease, DATE" style="shape=partialRectangle;connectable=0;fillColor=none;top=0;left=0;bottom=0;right=0;align=left;spacingLeft=6;overflow=hidden;whiteSpace=wrap;html=1;" parent="m-uryQRzLKnpch2HjsIr-73" vertex="1">
          <mxGeometry x="30" width="290" height="30" as="geometry">
            <mxRectangle width="290" height="30" as="alternateBounds" />
          </mxGeometry>
        </mxCell>
        <mxCell id="m-uryQRzLKnpch2HjsIr-76" value="" style="shape=tableRow;horizontal=0;startSize=0;swimlaneHead=0;swimlaneBody=0;fillColor=none;collapsible=0;dropTarget=0;points=[[0,0.5],[1,0.5]];portConstraint=eastwest;top=0;left=0;right=0;bottom=0;" parent="m-uryQRzLKnpch2HjsIr-57" vertex="1">
          <mxGeometry y="210" width="320" height="50" as="geometry" />
        </mxCell>
        <mxCell id="m-uryQRzLKnpch2HjsIr-77" value="" style="shape=partialRectangle;connectable=0;fillColor=none;top=0;left=0;bottom=0;right=0;editable=1;overflow=hidden;whiteSpace=wrap;html=1;" parent="m-uryQRzLKnpch2HjsIr-76" vertex="1">
          <mxGeometry width="30" height="50" as="geometry">
            <mxRectangle width="30" height="50" as="alternateBounds" />
          </mxGeometry>
        </mxCell>
        <mxCell id="m-uryQRzLKnpch2HjsIr-78" value="gameStatus,&lt;br&gt;ENUM (&#39;Planning&#39;,&amp;nbsp; &#39;In Development&#39;,&amp;nbsp; &#39;Beta Phase&#39;,&amp;nbsp; &#39;Released&#39;,&amp;nbsp; &#39;Deleted&#39;,&amp;nbsp; &#39;Maintenance&#39;, &#39;Cancelled&#39;)" style="shape=partialRectangle;connectable=0;fillColor=none;top=0;left=0;bottom=0;right=0;align=left;spacingLeft=6;overflow=hidden;whiteSpace=wrap;html=1;" parent="m-uryQRzLKnpch2HjsIr-76" vertex="1">
          <mxGeometry x="30" width="290" height="50" as="geometry">
            <mxRectangle width="290" height="50" as="alternateBounds" />
          </mxGeometry>
        </mxCell>
        <mxCell id="SrimqY8IVKDhNXtefk8D-66" value="" style="shape=tableRow;horizontal=0;startSize=0;swimlaneHead=0;swimlaneBody=0;fillColor=none;collapsible=0;dropTarget=0;points=[[0,0.5],[1,0.5]];portConstraint=eastwest;top=0;left=0;right=0;bottom=0;" parent="m-uryQRzLKnpch2HjsIr-57" vertex="1">
          <mxGeometry y="260" width="320" height="30" as="geometry" />
        </mxCell>
        <mxCell id="SrimqY8IVKDhNXtefk8D-67" value="" style="shape=partialRectangle;connectable=0;fillColor=none;top=0;left=0;bottom=0;right=0;editable=1;overflow=hidden;whiteSpace=wrap;html=1;" parent="SrimqY8IVKDhNXtefk8D-66" vertex="1">
          <mxGeometry width="30" height="30" as="geometry">
            <mxRectangle width="30" height="30" as="alternateBounds" />
          </mxGeometry>
        </mxCell>
        <mxCell id="SrimqY8IVKDhNXtefk8D-68" value="gameReviewNumber, INT, NOT NULL, DEFAULT 0" style="shape=partialRectangle;connectable=0;fillColor=none;top=0;left=0;bottom=0;right=0;align=left;spacingLeft=6;overflow=hidden;whiteSpace=wrap;html=1;" parent="SrimqY8IVKDhNXtefk8D-66" vertex="1">
          <mxGeometry x="30" width="290" height="30" as="geometry">
            <mxRectangle width="290" height="30" as="alternateBounds" />
          </mxGeometry>
        </mxCell>
        <mxCell id="CpBTHu7pFJ8_8jRN4DaD-53" value="&lt;font color=&quot;#009900&quot;&gt;/* csv-file with 500 employees.&amp;nbsp;Every INSERT or&amp;nbsp;&lt;span style=&quot;background-color: initial;&quot;&gt;DELETE &lt;br&gt;in the table &#39;review&#39; counts &#39;ReviewNumber&#39; up or down&lt;/span&gt;&lt;/font&gt;&lt;span style=&quot;color: rgb(0, 153, 0);&quot;&gt;&amp;nbsp;&lt;/span&gt;&lt;font color=&quot;#009900&quot;&gt;*/&lt;/font&gt;" style="rounded=0;whiteSpace=wrap;html=1;fillColor=none;fontColor=#ffffff;strokeColor=#005700;" parent="CpBTHu7pFJ8_8jRN4DaD-59" vertex="1">
          <mxGeometry y="290" width="320" height="41" as="geometry" />
        </mxCell>
        <mxCell id="CpBTHu7pFJ8_8jRN4DaD-61" value="" style="group" parent="1" vertex="1" connectable="0">
          <mxGeometry x="2775" y="1311" width="320" height="90" as="geometry" />
        </mxCell>
        <mxCell id="m-uryQRzLKnpch2HjsIr-164" value="tbl_operatingSystem" style="shape=table;startSize=30;container=1;collapsible=1;childLayout=tableLayout;fixedRows=1;rowLines=0;fontStyle=1;align=center;resizeLast=1;html=1;fillColor=#1ba1e2;fontColor=#ffffff;strokeColor=#006EAF;" parent="CpBTHu7pFJ8_8jRN4DaD-61" vertex="1">
          <mxGeometry width="320" height="60" as="geometry" />
        </mxCell>
        <mxCell id="m-uryQRzLKnpch2HjsIr-165" value="" style="shape=tableRow;horizontal=0;startSize=0;swimlaneHead=0;swimlaneBody=0;fillColor=none;collapsible=0;dropTarget=0;points=[[0,0.5],[1,0.5]];portConstraint=eastwest;top=0;left=0;right=0;bottom=1;" parent="m-uryQRzLKnpch2HjsIr-164" vertex="1">
          <mxGeometry y="30" width="320" height="30" as="geometry" />
        </mxCell>
        <mxCell id="m-uryQRzLKnpch2HjsIr-166" value="PK" style="shape=partialRectangle;connectable=0;fillColor=none;top=0;left=0;bottom=0;right=0;fontStyle=1;overflow=hidden;whiteSpace=wrap;html=1;" parent="m-uryQRzLKnpch2HjsIr-165" vertex="1">
          <mxGeometry width="30" height="30" as="geometry">
            <mxRectangle width="30" height="30" as="alternateBounds" />
          </mxGeometry>
        </mxCell>
        <mxCell id="m-uryQRzLKnpch2HjsIr-167" value="systemName, VARCHAR(45), NOT NULL" style="shape=partialRectangle;connectable=0;fillColor=none;top=0;left=0;bottom=0;right=0;align=left;spacingLeft=6;fontStyle=5;overflow=hidden;whiteSpace=wrap;html=1;" parent="m-uryQRzLKnpch2HjsIr-165" vertex="1">
          <mxGeometry x="30" width="290" height="30" as="geometry">
            <mxRectangle width="290" height="30" as="alternateBounds" />
          </mxGeometry>
        </mxCell>
        <mxCell id="CpBTHu7pFJ8_8jRN4DaD-60" value="&lt;font color=&quot;#009900&quot;&gt;/* csv-file with 10 operating systems */&lt;/font&gt;" style="rounded=0;whiteSpace=wrap;html=1;fillColor=none;fontColor=#ffffff;strokeColor=#006eaf;" parent="CpBTHu7pFJ8_8jRN4DaD-61" vertex="1">
          <mxGeometry y="60" width="320" height="30" as="geometry" />
        </mxCell>
        <mxCell id="CpBTHu7pFJ8_8jRN4DaD-63" value="" style="group" parent="1" vertex="1" connectable="0">
          <mxGeometry x="2295" y="1482" width="310" height="150" as="geometry" />
        </mxCell>
        <mxCell id="SrimqY8IVKDhNXtefk8D-89" value="tbl_opSysGame" style="shape=table;startSize=30;container=1;collapsible=1;childLayout=tableLayout;fixedRows=1;rowLines=0;fontStyle=1;align=center;resizeLast=1;html=1;fillColor=#008a00;fontColor=#ffffff;strokeColor=#005700;" parent="CpBTHu7pFJ8_8jRN4DaD-63" vertex="1">
          <mxGeometry width="310" height="120" as="geometry" />
        </mxCell>
        <mxCell id="SrimqY8IVKDhNXtefk8D-90" value="" style="shape=tableRow;horizontal=0;startSize=0;swimlaneHead=0;swimlaneBody=0;fillColor=none;collapsible=0;dropTarget=0;points=[[0,0.5],[1,0.5]];portConstraint=eastwest;top=0;left=0;right=0;bottom=1;" parent="SrimqY8IVKDhNXtefk8D-89" vertex="1">
          <mxGeometry y="30" width="310" height="30" as="geometry" />
        </mxCell>
        <mxCell id="SrimqY8IVKDhNXtefk8D-91" value="PK" style="shape=partialRectangle;connectable=0;fillColor=none;top=0;left=0;bottom=0;right=0;fontStyle=1;overflow=hidden;whiteSpace=wrap;html=1;" parent="SrimqY8IVKDhNXtefk8D-90" vertex="1">
          <mxGeometry width="52.5" height="30" as="geometry">
            <mxRectangle width="52.5" height="30" as="alternateBounds" />
          </mxGeometry>
        </mxCell>
        <mxCell id="SrimqY8IVKDhNXtefk8D-92" value="opSysGameId, INT, NOT NULL, AIK" style="shape=partialRectangle;connectable=0;fillColor=none;top=0;left=0;bottom=0;right=0;align=left;spacingLeft=6;fontStyle=5;overflow=hidden;whiteSpace=wrap;html=1;" parent="SrimqY8IVKDhNXtefk8D-90" vertex="1">
          <mxGeometry x="52.5" width="257.5" height="30" as="geometry">
            <mxRectangle width="257.5" height="30" as="alternateBounds" />
          </mxGeometry>
        </mxCell>
        <mxCell id="SrimqY8IVKDhNXtefk8D-96" value="" style="shape=tableRow;horizontal=0;startSize=0;swimlaneHead=0;swimlaneBody=0;fillColor=none;collapsible=0;dropTarget=0;points=[[0,0.5],[1,0.5]];portConstraint=eastwest;top=0;left=0;right=0;bottom=0;" parent="SrimqY8IVKDhNXtefk8D-89" vertex="1">
          <mxGeometry y="60" width="310" height="30" as="geometry" />
        </mxCell>
        <mxCell id="SrimqY8IVKDhNXtefk8D-97" value="FK, UK" style="shape=partialRectangle;connectable=0;fillColor=none;top=0;left=0;bottom=0;right=0;editable=1;overflow=hidden;whiteSpace=wrap;html=1;fontStyle=2" parent="SrimqY8IVKDhNXtefk8D-96" vertex="1">
          <mxGeometry width="52.5" height="30" as="geometry">
            <mxRectangle width="52.5" height="30" as="alternateBounds" />
          </mxGeometry>
        </mxCell>
        <mxCell id="SrimqY8IVKDhNXtefk8D-98" value="gameId, INT, NOT NULL" style="shape=partialRectangle;connectable=0;fillColor=none;top=0;left=0;bottom=0;right=0;align=left;spacingLeft=6;overflow=hidden;whiteSpace=wrap;html=1;fontStyle=2" parent="SrimqY8IVKDhNXtefk8D-96" vertex="1">
          <mxGeometry x="52.5" width="257.5" height="30" as="geometry">
            <mxRectangle width="257.5" height="30" as="alternateBounds" />
          </mxGeometry>
        </mxCell>
        <mxCell id="SrimqY8IVKDhNXtefk8D-93" value="" style="shape=tableRow;horizontal=0;startSize=0;swimlaneHead=0;swimlaneBody=0;fillColor=none;collapsible=0;dropTarget=0;points=[[0,0.5],[1,0.5]];portConstraint=eastwest;top=0;left=0;right=0;bottom=0;" parent="SrimqY8IVKDhNXtefk8D-89" vertex="1">
          <mxGeometry y="90" width="310" height="30" as="geometry" />
        </mxCell>
        <mxCell id="SrimqY8IVKDhNXtefk8D-94" value="FK, UK" style="shape=partialRectangle;connectable=0;fillColor=none;top=0;left=0;bottom=0;right=0;editable=1;overflow=hidden;whiteSpace=wrap;html=1;fontStyle=2" parent="SrimqY8IVKDhNXtefk8D-93" vertex="1">
          <mxGeometry width="52.5" height="30" as="geometry">
            <mxRectangle width="52.5" height="30" as="alternateBounds" />
          </mxGeometry>
        </mxCell>
        <mxCell id="SrimqY8IVKDhNXtefk8D-95" value="systemName, VARCHAR(45), NOT NULL" style="shape=partialRectangle;connectable=0;fillColor=none;top=0;left=0;bottom=0;right=0;align=left;spacingLeft=6;overflow=hidden;whiteSpace=wrap;html=1;fontStyle=2" parent="SrimqY8IVKDhNXtefk8D-93" vertex="1">
          <mxGeometry x="52.5" width="257.5" height="30" as="geometry">
            <mxRectangle width="257.5" height="30" as="alternateBounds" />
          </mxGeometry>
        </mxCell>
        <mxCell id="CpBTHu7pFJ8_8jRN4DaD-62" value="&lt;font color=&quot;#009900&quot;&gt;/* csv-file with 1&#39;500 employees&amp;nbsp;&lt;/font&gt;&lt;font color=&quot;#009900&quot;&gt;*/&lt;/font&gt;" style="rounded=0;whiteSpace=wrap;html=1;fillColor=none;fontColor=#ffffff;strokeColor=#005700;" parent="CpBTHu7pFJ8_8jRN4DaD-63" vertex="1">
          <mxGeometry y="120" width="310" height="30" as="geometry" />
        </mxCell>
        <mxCell id="CpBTHu7pFJ8_8jRN4DaD-68" value="" style="group" parent="1" vertex="1" connectable="0">
          <mxGeometry x="2295" y="1759" width="320" height="120" as="geometry" />
        </mxCell>
        <mxCell id="m-uryQRzLKnpch2HjsIr-181" value="tbl_webService" style="shape=table;startSize=30;container=1;collapsible=1;childLayout=tableLayout;fixedRows=1;rowLines=0;fontStyle=1;align=center;resizeLast=1;html=1;fillColor=#1ba1e2;fontColor=#ffffff;strokeColor=#006EAF;" parent="CpBTHu7pFJ8_8jRN4DaD-68" vertex="1">
          <mxGeometry width="320" height="90" as="geometry" />
        </mxCell>
        <mxCell id="m-uryQRzLKnpch2HjsIr-182" value="" style="shape=tableRow;horizontal=0;startSize=0;swimlaneHead=0;swimlaneBody=0;fillColor=none;collapsible=0;dropTarget=0;points=[[0,0.5],[1,0.5]];portConstraint=eastwest;top=0;left=0;right=0;bottom=1;" parent="m-uryQRzLKnpch2HjsIr-181" vertex="1">
          <mxGeometry y="30" width="320" height="30" as="geometry" />
        </mxCell>
        <mxCell id="m-uryQRzLKnpch2HjsIr-183" value="PK" style="shape=partialRectangle;connectable=0;fillColor=none;top=0;left=0;bottom=0;right=0;fontStyle=1;overflow=hidden;whiteSpace=wrap;html=1;" parent="m-uryQRzLKnpch2HjsIr-182" vertex="1">
          <mxGeometry width="30" height="30" as="geometry">
            <mxRectangle width="30" height="30" as="alternateBounds" />
          </mxGeometry>
        </mxCell>
        <mxCell id="m-uryQRzLKnpch2HjsIr-184" value="webServiceId, INT, NOT NULL, AIK" style="shape=partialRectangle;connectable=0;fillColor=none;top=0;left=0;bottom=0;right=0;align=left;spacingLeft=6;fontStyle=5;overflow=hidden;whiteSpace=wrap;html=1;" parent="m-uryQRzLKnpch2HjsIr-182" vertex="1">
          <mxGeometry x="30" width="290" height="30" as="geometry">
            <mxRectangle width="290" height="30" as="alternateBounds" />
          </mxGeometry>
        </mxCell>
        <mxCell id="m-uryQRzLKnpch2HjsIr-185" value="" style="shape=tableRow;horizontal=0;startSize=0;swimlaneHead=0;swimlaneBody=0;fillColor=none;collapsible=0;dropTarget=0;points=[[0,0.5],[1,0.5]];portConstraint=eastwest;top=0;left=0;right=0;bottom=0;" parent="m-uryQRzLKnpch2HjsIr-181" vertex="1">
          <mxGeometry y="60" width="320" height="30" as="geometry" />
        </mxCell>
        <mxCell id="m-uryQRzLKnpch2HjsIr-186" value="" style="shape=partialRectangle;connectable=0;fillColor=none;top=0;left=0;bottom=0;right=0;editable=1;overflow=hidden;whiteSpace=wrap;html=1;" parent="m-uryQRzLKnpch2HjsIr-185" vertex="1">
          <mxGeometry width="30" height="30" as="geometry">
            <mxRectangle width="30" height="30" as="alternateBounds" />
          </mxGeometry>
        </mxCell>
        <mxCell id="m-uryQRzLKnpch2HjsIr-187" value="webServiceName, VARCHAR(45), NOT NULL" style="shape=partialRectangle;connectable=0;fillColor=none;top=0;left=0;bottom=0;right=0;align=left;spacingLeft=6;overflow=hidden;whiteSpace=wrap;html=1;" parent="m-uryQRzLKnpch2HjsIr-185" vertex="1">
          <mxGeometry x="30" width="290" height="30" as="geometry">
            <mxRectangle width="290" height="30" as="alternateBounds" />
          </mxGeometry>
        </mxCell>
        <mxCell id="CpBTHu7pFJ8_8jRN4DaD-67" value="&lt;font color=&quot;#009900&quot;&gt;/* csv-file with 30 webservices */&lt;/font&gt;" style="rounded=0;whiteSpace=wrap;html=1;fillColor=none;fontColor=#ffffff;strokeColor=#006eaf;" parent="CpBTHu7pFJ8_8jRN4DaD-68" vertex="1">
          <mxGeometry y="90" width="320" height="30" as="geometry" />
        </mxCell>
        <mxCell id="CpBTHu7pFJ8_8jRN4DaD-70" value="" style="group" parent="1" vertex="1" connectable="0">
          <mxGeometry x="2705" y="844" width="310" height="240" as="geometry" />
        </mxCell>
        <mxCell id="m-uryQRzLKnpch2HjsIr-1" value="tbl_assignment" style="shape=table;startSize=30;container=1;collapsible=1;childLayout=tableLayout;fixedRows=1;rowLines=0;fontStyle=1;align=center;resizeLast=1;html=1;fillColor=#008a00;fontColor=#ffffff;strokeColor=#005700;" parent="CpBTHu7pFJ8_8jRN4DaD-70" vertex="1">
          <mxGeometry width="310" height="210" as="geometry" />
        </mxCell>
        <mxCell id="m-uryQRzLKnpch2HjsIr-2" value="" style="shape=tableRow;horizontal=0;startSize=0;swimlaneHead=0;swimlaneBody=0;fillColor=none;collapsible=0;dropTarget=0;points=[[0,0.5],[1,0.5]];portConstraint=eastwest;top=0;left=0;right=0;bottom=1;" parent="m-uryQRzLKnpch2HjsIr-1" vertex="1">
          <mxGeometry y="30" width="310" height="30" as="geometry" />
        </mxCell>
        <mxCell id="m-uryQRzLKnpch2HjsIr-3" value="PK" style="shape=partialRectangle;connectable=0;fillColor=none;top=0;left=0;bottom=0;right=0;fontStyle=1;overflow=hidden;whiteSpace=wrap;html=1;" parent="m-uryQRzLKnpch2HjsIr-2" vertex="1">
          <mxGeometry width="30" height="30" as="geometry">
            <mxRectangle width="30" height="30" as="alternateBounds" />
          </mxGeometry>
        </mxCell>
        <mxCell id="m-uryQRzLKnpch2HjsIr-4" value="assignmentId, INT, NOT NULL, AIK" style="shape=partialRectangle;connectable=0;fillColor=none;top=0;left=0;bottom=0;right=0;align=left;spacingLeft=6;fontStyle=5;overflow=hidden;whiteSpace=wrap;html=1;" parent="m-uryQRzLKnpch2HjsIr-2" vertex="1">
          <mxGeometry x="30" width="280" height="30" as="geometry">
            <mxRectangle width="280" height="30" as="alternateBounds" />
          </mxGeometry>
        </mxCell>
        <mxCell id="m-uryQRzLKnpch2HjsIr-5" value="" style="shape=tableRow;horizontal=0;startSize=0;swimlaneHead=0;swimlaneBody=0;fillColor=none;collapsible=0;dropTarget=0;points=[[0,0.5],[1,0.5]];portConstraint=eastwest;top=0;left=0;right=0;bottom=0;" parent="m-uryQRzLKnpch2HjsIr-1" vertex="1">
          <mxGeometry y="60" width="310" height="30" as="geometry" />
        </mxCell>
        <mxCell id="m-uryQRzLKnpch2HjsIr-6" value="" style="shape=partialRectangle;connectable=0;fillColor=none;top=0;left=0;bottom=0;right=0;editable=1;overflow=hidden;whiteSpace=wrap;html=1;" parent="m-uryQRzLKnpch2HjsIr-5" vertex="1">
          <mxGeometry width="30" height="30" as="geometry">
            <mxRectangle width="30" height="30" as="alternateBounds" />
          </mxGeometry>
        </mxCell>
        <mxCell id="m-uryQRzLKnpch2HjsIr-7" value="assignmentName, VARCHAR(125), NOT NULL" style="shape=partialRectangle;connectable=0;fillColor=none;top=0;left=0;bottom=0;right=0;align=left;spacingLeft=6;overflow=hidden;whiteSpace=wrap;html=1;" parent="m-uryQRzLKnpch2HjsIr-5" vertex="1">
          <mxGeometry x="30" width="280" height="30" as="geometry">
            <mxRectangle width="280" height="30" as="alternateBounds" />
          </mxGeometry>
        </mxCell>
        <mxCell id="m-uryQRzLKnpch2HjsIr-11" value="" style="shape=tableRow;horizontal=0;startSize=0;swimlaneHead=0;swimlaneBody=0;fillColor=none;collapsible=0;dropTarget=0;points=[[0,0.5],[1,0.5]];portConstraint=eastwest;top=0;left=0;right=0;bottom=0;" parent="m-uryQRzLKnpch2HjsIr-1" vertex="1">
          <mxGeometry y="90" width="310" height="30" as="geometry" />
        </mxCell>
        <mxCell id="m-uryQRzLKnpch2HjsIr-12" value="FK" style="shape=partialRectangle;connectable=0;fillColor=none;top=0;left=0;bottom=0;right=0;editable=1;overflow=hidden;whiteSpace=wrap;html=1;fontStyle=2" parent="m-uryQRzLKnpch2HjsIr-11" vertex="1">
          <mxGeometry width="30" height="30" as="geometry">
            <mxRectangle width="30" height="30" as="alternateBounds" />
          </mxGeometry>
        </mxCell>
        <mxCell id="m-uryQRzLKnpch2HjsIr-13" value="projectId, INT, NOT NULL" style="shape=partialRectangle;connectable=0;fillColor=none;top=0;left=0;bottom=0;right=0;align=left;spacingLeft=6;overflow=hidden;whiteSpace=wrap;html=1;fontStyle=2" parent="m-uryQRzLKnpch2HjsIr-11" vertex="1">
          <mxGeometry x="30" width="280" height="30" as="geometry">
            <mxRectangle width="280" height="30" as="alternateBounds" />
          </mxGeometry>
        </mxCell>
        <mxCell id="m-uryQRzLKnpch2HjsIr-8" value="" style="shape=tableRow;horizontal=0;startSize=0;swimlaneHead=0;swimlaneBody=0;fillColor=none;collapsible=0;dropTarget=0;points=[[0,0.5],[1,0.5]];portConstraint=eastwest;top=0;left=0;right=0;bottom=0;" parent="m-uryQRzLKnpch2HjsIr-1" vertex="1">
          <mxGeometry y="120" width="310" height="50" as="geometry" />
        </mxCell>
        <mxCell id="m-uryQRzLKnpch2HjsIr-9" value="" style="shape=partialRectangle;connectable=0;fillColor=none;top=0;left=0;bottom=0;right=0;editable=1;overflow=hidden;whiteSpace=wrap;html=1;" parent="m-uryQRzLKnpch2HjsIr-8" vertex="1">
          <mxGeometry width="30" height="50" as="geometry">
            <mxRectangle width="30" height="50" as="alternateBounds" />
          </mxGeometry>
        </mxCell>
        <mxCell id="m-uryQRzLKnpch2HjsIr-10" value="assignmentPriority, ENUM(&#39;urgent&#39;, &#39;high&#39;, &#39;moderate&#39;, &#39;low&#39;), NOT NULL, DEFAULT &#39;moderate&#39;" style="shape=partialRectangle;connectable=0;fillColor=none;top=0;left=0;bottom=0;right=0;align=left;spacingLeft=6;overflow=hidden;whiteSpace=wrap;html=1;" parent="m-uryQRzLKnpch2HjsIr-8" vertex="1">
          <mxGeometry x="30" width="280" height="50" as="geometry">
            <mxRectangle width="280" height="50" as="alternateBounds" />
          </mxGeometry>
        </mxCell>
        <mxCell id="m-uryQRzLKnpch2HjsIr-15" value="" style="shape=tableRow;horizontal=0;startSize=0;swimlaneHead=0;swimlaneBody=0;fillColor=none;collapsible=0;dropTarget=0;points=[[0,0.5],[1,0.5]];portConstraint=eastwest;top=0;left=0;right=0;bottom=0;" parent="m-uryQRzLKnpch2HjsIr-1" vertex="1">
          <mxGeometry y="170" width="310" height="40" as="geometry" />
        </mxCell>
        <mxCell id="m-uryQRzLKnpch2HjsIr-16" value="" style="shape=partialRectangle;connectable=0;fillColor=none;top=0;left=0;bottom=0;right=0;editable=1;overflow=hidden;whiteSpace=wrap;html=1;" parent="m-uryQRzLKnpch2HjsIr-15" vertex="1">
          <mxGeometry width="30" height="40" as="geometry">
            <mxRectangle width="30" height="40" as="alternateBounds" />
          </mxGeometry>
        </mxCell>
        <mxCell id="m-uryQRzLKnpch2HjsIr-17" value="assignmentStatus, ENUM(&#39;InProgress&#39;, &#39;Pending&#39;, &#39;Completed&#39;)" style="shape=partialRectangle;connectable=0;fillColor=none;top=0;left=0;bottom=0;right=0;align=left;spacingLeft=6;overflow=hidden;whiteSpace=wrap;html=1;" parent="m-uryQRzLKnpch2HjsIr-15" vertex="1">
          <mxGeometry x="30" width="280" height="40" as="geometry">
            <mxRectangle width="280" height="40" as="alternateBounds" />
          </mxGeometry>
        </mxCell>
        <mxCell id="CpBTHu7pFJ8_8jRN4DaD-69" value="&lt;font color=&quot;#009900&quot;&gt;/* csv-file with 50&#39;000 reviews&amp;nbsp;*/&lt;/font&gt;" style="rounded=0;whiteSpace=wrap;html=1;fillColor=none;fontColor=#ffffff;strokeColor=#005700;" parent="CpBTHu7pFJ8_8jRN4DaD-70" vertex="1">
          <mxGeometry y="210" width="310" height="30" as="geometry" />
        </mxCell>
        <mxCell id="CpBTHu7pFJ8_8jRN4DaD-71" value="" style="group" parent="1" vertex="1" connectable="0">
          <mxGeometry x="1075" y="734" width="240" height="150" as="geometry" />
        </mxCell>
        <mxCell id="HP4pHk8FHyrEkAVyZ_Qv-1" value="tbl_department" style="shape=table;startSize=30;container=1;collapsible=1;childLayout=tableLayout;fixedRows=1;rowLines=0;fontStyle=1;align=center;resizeLast=1;html=1;fillColor=#1ba1e2;fontColor=#ffffff;strokeColor=#006EAF;" parent="CpBTHu7pFJ8_8jRN4DaD-71" vertex="1">
          <mxGeometry width="240" height="120" as="geometry" />
        </mxCell>
        <mxCell id="HP4pHk8FHyrEkAVyZ_Qv-2" value="" style="shape=tableRow;horizontal=0;startSize=0;swimlaneHead=0;swimlaneBody=0;fillColor=none;collapsible=0;dropTarget=0;points=[[0,0.5],[1,0.5]];portConstraint=eastwest;top=0;left=0;right=0;bottom=1;" parent="HP4pHk8FHyrEkAVyZ_Qv-1" vertex="1">
          <mxGeometry y="30" width="240" height="30" as="geometry" />
        </mxCell>
        <mxCell id="HP4pHk8FHyrEkAVyZ_Qv-3" value="PK" style="shape=partialRectangle;connectable=0;fillColor=none;top=0;left=0;bottom=0;right=0;fontStyle=1;overflow=hidden;whiteSpace=wrap;html=1;" parent="HP4pHk8FHyrEkAVyZ_Qv-2" vertex="1">
          <mxGeometry width="30" height="30" as="geometry">
            <mxRectangle width="30" height="30" as="alternateBounds" />
          </mxGeometry>
        </mxCell>
        <mxCell id="HP4pHk8FHyrEkAVyZ_Qv-4" value="departmentId, INT, NOT NULL, AIK" style="shape=partialRectangle;connectable=0;fillColor=none;top=0;left=0;bottom=0;right=0;align=left;spacingLeft=6;fontStyle=5;overflow=hidden;whiteSpace=wrap;html=1;" parent="HP4pHk8FHyrEkAVyZ_Qv-2" vertex="1">
          <mxGeometry x="30" width="210" height="30" as="geometry">
            <mxRectangle width="210" height="30" as="alternateBounds" />
          </mxGeometry>
        </mxCell>
        <mxCell id="HP4pHk8FHyrEkAVyZ_Qv-5" value="" style="shape=tableRow;horizontal=0;startSize=0;swimlaneHead=0;swimlaneBody=0;fillColor=none;collapsible=0;dropTarget=0;points=[[0,0.5],[1,0.5]];portConstraint=eastwest;top=0;left=0;right=0;bottom=0;" parent="HP4pHk8FHyrEkAVyZ_Qv-1" vertex="1">
          <mxGeometry y="60" width="240" height="30" as="geometry" />
        </mxCell>
        <mxCell id="HP4pHk8FHyrEkAVyZ_Qv-6" value="" style="shape=partialRectangle;connectable=0;fillColor=none;top=0;left=0;bottom=0;right=0;editable=1;overflow=hidden;whiteSpace=wrap;html=1;" parent="HP4pHk8FHyrEkAVyZ_Qv-5" vertex="1">
          <mxGeometry width="30" height="30" as="geometry">
            <mxRectangle width="30" height="30" as="alternateBounds" />
          </mxGeometry>
        </mxCell>
        <mxCell id="HP4pHk8FHyrEkAVyZ_Qv-7" value="departmentName, VARCHAR(45)" style="shape=partialRectangle;connectable=0;fillColor=none;top=0;left=0;bottom=0;right=0;align=left;spacingLeft=6;overflow=hidden;whiteSpace=wrap;html=1;" parent="HP4pHk8FHyrEkAVyZ_Qv-5" vertex="1">
          <mxGeometry x="30" width="210" height="30" as="geometry">
            <mxRectangle width="210" height="30" as="alternateBounds" />
          </mxGeometry>
        </mxCell>
        <mxCell id="HP4pHk8FHyrEkAVyZ_Qv-8" value="" style="shape=tableRow;horizontal=0;startSize=0;swimlaneHead=0;swimlaneBody=0;fillColor=none;collapsible=0;dropTarget=0;points=[[0,0.5],[1,0.5]];portConstraint=eastwest;top=0;left=0;right=0;bottom=0;" parent="HP4pHk8FHyrEkAVyZ_Qv-1" vertex="1">
          <mxGeometry y="90" width="240" height="30" as="geometry" />
        </mxCell>
        <mxCell id="HP4pHk8FHyrEkAVyZ_Qv-9" value="FK" style="shape=partialRectangle;connectable=0;fillColor=none;top=0;left=0;bottom=0;right=0;editable=1;overflow=hidden;whiteSpace=wrap;html=1;fontStyle=2" parent="HP4pHk8FHyrEkAVyZ_Qv-8" vertex="1">
          <mxGeometry width="30" height="30" as="geometry">
            <mxRectangle width="30" height="30" as="alternateBounds" />
          </mxGeometry>
        </mxCell>
        <mxCell id="HP4pHk8FHyrEkAVyZ_Qv-10" value="departmentHead, INT" style="shape=partialRectangle;connectable=0;fillColor=none;top=0;left=0;bottom=0;right=0;align=left;spacingLeft=6;overflow=hidden;whiteSpace=wrap;html=1;fontStyle=2" parent="HP4pHk8FHyrEkAVyZ_Qv-8" vertex="1">
          <mxGeometry x="30" width="210" height="30" as="geometry">
            <mxRectangle width="210" height="30" as="alternateBounds" />
          </mxGeometry>
        </mxCell>
        <mxCell id="CpBTHu7pFJ8_8jRN4DaD-34" value="&lt;font color=&quot;#009900&quot;&gt;/* csv-file with 50 departments */&lt;/font&gt;" style="rounded=0;whiteSpace=wrap;html=1;fillColor=none;fontColor=#ffffff;strokeColor=#006eaf;" parent="CpBTHu7pFJ8_8jRN4DaD-71" vertex="1">
          <mxGeometry y="120" width="240" height="30" as="geometry" />
        </mxCell>
        <mxCell id="CpBTHu7pFJ8_8jRN4DaD-74" value="" style="group" parent="1" vertex="1" connectable="0">
          <mxGeometry x="2775" y="1642" width="330" height="270" as="geometry" />
        </mxCell>
        <mxCell id="d06NPiq7ME--_39FHo1s-22" value="tbl_webServiceGame" style="shape=table;startSize=30;container=1;collapsible=1;childLayout=tableLayout;fixedRows=1;rowLines=0;fontStyle=1;align=center;resizeLast=1;html=1;whiteSpace=wrap;" parent="CpBTHu7pFJ8_8jRN4DaD-74" vertex="1">
          <mxGeometry width="330" height="193" as="geometry" />
        </mxCell>
        <mxCell id="d06NPiq7ME--_39FHo1s-23" value="" style="shape=tableRow;horizontal=0;startSize=0;swimlaneHead=0;swimlaneBody=0;fillColor=none;collapsible=0;dropTarget=0;points=[[0,0.5],[1,0.5]];portConstraint=eastwest;top=0;left=0;right=0;bottom=0;html=1;" parent="d06NPiq7ME--_39FHo1s-22" vertex="1">
          <mxGeometry y="30" width="330" height="30" as="geometry" />
        </mxCell>
        <mxCell id="d06NPiq7ME--_39FHo1s-24" value="PK, FK" style="shape=partialRectangle;connectable=0;fillColor=none;top=0;left=0;bottom=0;right=0;fontStyle=1;overflow=hidden;html=1;whiteSpace=wrap;" parent="d06NPiq7ME--_39FHo1s-23" vertex="1">
          <mxGeometry width="60" height="30" as="geometry">
            <mxRectangle width="60" height="30" as="alternateBounds" />
          </mxGeometry>
        </mxCell>
        <mxCell id="d06NPiq7ME--_39FHo1s-25" value="opSysGameId, INT, NOT NULL" style="shape=partialRectangle;connectable=0;fillColor=none;top=0;left=0;bottom=0;right=0;align=left;spacingLeft=6;fontStyle=5;overflow=hidden;html=1;whiteSpace=wrap;" parent="d06NPiq7ME--_39FHo1s-23" vertex="1">
          <mxGeometry x="60" width="270" height="30" as="geometry">
            <mxRectangle width="270" height="30" as="alternateBounds" />
          </mxGeometry>
        </mxCell>
        <mxCell id="d06NPiq7ME--_39FHo1s-26" value="" style="shape=tableRow;horizontal=0;startSize=0;swimlaneHead=0;swimlaneBody=0;fillColor=none;collapsible=0;dropTarget=0;points=[[0,0.5],[1,0.5]];portConstraint=eastwest;top=0;left=0;right=0;bottom=1;html=1;" parent="d06NPiq7ME--_39FHo1s-22" vertex="1">
          <mxGeometry y="60" width="330" height="30" as="geometry" />
        </mxCell>
        <mxCell id="d06NPiq7ME--_39FHo1s-27" value="PK, FK" style="shape=partialRectangle;connectable=0;fillColor=none;top=0;left=0;bottom=0;right=0;fontStyle=1;overflow=hidden;html=1;whiteSpace=wrap;" parent="d06NPiq7ME--_39FHo1s-26" vertex="1">
          <mxGeometry width="60" height="30" as="geometry">
            <mxRectangle width="60" height="30" as="alternateBounds" />
          </mxGeometry>
        </mxCell>
        <mxCell id="d06NPiq7ME--_39FHo1s-28" value="webServiceId, INT, NOT NULL" style="shape=partialRectangle;connectable=0;fillColor=none;top=0;left=0;bottom=0;right=0;align=left;spacingLeft=6;fontStyle=5;overflow=hidden;html=1;whiteSpace=wrap;" parent="d06NPiq7ME--_39FHo1s-26" vertex="1">
          <mxGeometry x="60" width="270" height="30" as="geometry">
            <mxRectangle width="270" height="30" as="alternateBounds" />
          </mxGeometry>
        </mxCell>
        <mxCell id="d06NPiq7ME--_39FHo1s-29" value="" style="shape=tableRow;horizontal=0;startSize=0;swimlaneHead=0;swimlaneBody=0;fillColor=none;collapsible=0;dropTarget=0;points=[[0,0.5],[1,0.5]];portConstraint=eastwest;top=0;left=0;right=0;bottom=0;html=1;" parent="d06NPiq7ME--_39FHo1s-22" vertex="1">
          <mxGeometry y="90" width="330" height="30" as="geometry" />
        </mxCell>
        <mxCell id="d06NPiq7ME--_39FHo1s-30" value="" style="shape=partialRectangle;connectable=0;fillColor=none;top=0;left=0;bottom=0;right=0;editable=1;overflow=hidden;html=1;whiteSpace=wrap;" parent="d06NPiq7ME--_39FHo1s-29" vertex="1">
          <mxGeometry width="60" height="30" as="geometry">
            <mxRectangle width="60" height="30" as="alternateBounds" />
          </mxGeometry>
        </mxCell>
        <mxCell id="d06NPiq7ME--_39FHo1s-31" value="WebServiceGameRelease, DATE" style="shape=partialRectangle;connectable=0;fillColor=none;top=0;left=0;bottom=0;right=0;align=left;spacingLeft=6;overflow=hidden;html=1;whiteSpace=wrap;" parent="d06NPiq7ME--_39FHo1s-29" vertex="1">
          <mxGeometry x="60" width="270" height="30" as="geometry">
            <mxRectangle width="270" height="30" as="alternateBounds" />
          </mxGeometry>
        </mxCell>
        <mxCell id="d06NPiq7ME--_39FHo1s-41" value="" style="shape=tableRow;horizontal=0;startSize=0;swimlaneHead=0;swimlaneBody=0;fillColor=none;collapsible=0;dropTarget=0;points=[[0,0.5],[1,0.5]];portConstraint=eastwest;top=0;left=0;right=0;bottom=0;html=1;" parent="d06NPiq7ME--_39FHo1s-22" vertex="1">
          <mxGeometry y="120" width="330" height="73" as="geometry" />
        </mxCell>
        <mxCell id="d06NPiq7ME--_39FHo1s-42" value="" style="shape=partialRectangle;connectable=0;fillColor=none;top=0;left=0;bottom=0;right=0;editable=1;overflow=hidden;html=1;whiteSpace=wrap;" parent="d06NPiq7ME--_39FHo1s-41" vertex="1">
          <mxGeometry width="60" height="73" as="geometry">
            <mxRectangle width="60" height="73" as="alternateBounds" />
          </mxGeometry>
        </mxCell>
        <mxCell id="d06NPiq7ME--_39FHo1s-43" value="webServiceGameStatus,&lt;br&gt;ENUM ( &#39;Planning&#39;, &#39;Beta Phase&#39;,&amp;nbsp; &#39;Released&#39;,&amp;nbsp; &#39;Deleted&#39;,&amp;nbsp; &#39;Maintenance&#39;, &#39;Cancelled&#39;) DEFAULT &#39;Released&#39;" style="shape=partialRectangle;connectable=0;fillColor=none;top=0;left=0;bottom=0;right=0;align=left;spacingLeft=6;overflow=hidden;html=1;whiteSpace=wrap;" parent="d06NPiq7ME--_39FHo1s-41" vertex="1">
          <mxGeometry x="60" width="270" height="73" as="geometry">
            <mxRectangle width="270" height="73" as="alternateBounds" />
          </mxGeometry>
        </mxCell>
        <mxCell id="CpBTHu7pFJ8_8jRN4DaD-73" value="&lt;font color=&quot;#009900&quot;&gt;/* csv-file with 2&#39;000 entrys &lt;br&gt;Use the following instruction to import the date correctly:&lt;br&gt;SET `webServiceGameRelease` = STR_TO_DATE(`webServiceGameRelease`, &#39;%Y-%m-%d&#39;) */&lt;/font&gt;" style="rounded=0;whiteSpace=wrap;html=1;fillColor=none;fontColor=#ffffff;strokeColor=#ffffff;" parent="CpBTHu7pFJ8_8jRN4DaD-74" vertex="1">
          <mxGeometry y="193" width="330" height="77" as="geometry" />
        </mxCell>
        <mxCell id="C5SoLIxLATqHLu1wQJfK-1" value="&lt;font&gt;ERD created by ArtemisDevelop&lt;/font&gt;" style="rounded=0;whiteSpace=wrap;html=1;fillColor=none;fontColor=#8f8f8f;strokeColor=none;" parent="1" vertex="1">
          <mxGeometry x="1415" y="1174.5" width="360" height="27.5" as="geometry" />
        </mxCell>
        <mxCell id="C5SoLIxLATqHLu1wQJfK-2" value="&lt;font&gt;ERD created by ArtemisDevelop&lt;/font&gt;" style="rounded=0;whiteSpace=wrap;html=1;fillColor=none;fontColor=#8f8f8f;strokeColor=none;" parent="1" vertex="1">
          <mxGeometry x="2295" y="1353.75" width="360" height="27.5" as="geometry" />
        </mxCell>
        <mxCell id="btX9GJ8fYtFLpP8O-0uu-2" value="" style="group" parent="1" vertex="1" connectable="0">
          <mxGeometry x="1865" y="932" width="320" height="210" as="geometry" />
        </mxCell>
        <mxCell id="m-uryQRzLKnpch2HjsIr-28" value="tbl_emplAssign" style="shape=table;startSize=30;container=1;collapsible=1;childLayout=tableLayout;fixedRows=1;rowLines=0;fontStyle=1;align=center;resizeLast=1;html=1;whiteSpace=wrap;" parent="btX9GJ8fYtFLpP8O-0uu-2" vertex="1">
          <mxGeometry width="320.00000000000006" height="150" as="geometry" />
        </mxCell>
        <mxCell id="m-uryQRzLKnpch2HjsIr-29" value="" style="shape=tableRow;horizontal=0;startSize=0;swimlaneHead=0;swimlaneBody=0;fillColor=none;collapsible=0;dropTarget=0;points=[[0,0.5],[1,0.5]];portConstraint=eastwest;top=0;left=0;right=0;bottom=0;html=1;" parent="m-uryQRzLKnpch2HjsIr-28" vertex="1">
          <mxGeometry y="30" width="320.00000000000006" height="30" as="geometry" />
        </mxCell>
        <mxCell id="m-uryQRzLKnpch2HjsIr-30" value="PK, FK" style="shape=partialRectangle;connectable=0;fillColor=none;top=0;left=0;bottom=0;right=0;fontStyle=1;overflow=hidden;html=1;whiteSpace=wrap;" parent="m-uryQRzLKnpch2HjsIr-29" vertex="1">
          <mxGeometry width="60" height="30" as="geometry">
            <mxRectangle width="60" height="30" as="alternateBounds" />
          </mxGeometry>
        </mxCell>
        <mxCell id="m-uryQRzLKnpch2HjsIr-31" value="emplId, INT, NOT NULL" style="shape=partialRectangle;connectable=0;fillColor=none;top=0;left=0;bottom=0;right=0;align=left;spacingLeft=6;fontStyle=5;overflow=hidden;html=1;whiteSpace=wrap;" parent="m-uryQRzLKnpch2HjsIr-29" vertex="1">
          <mxGeometry x="60" width="260.00000000000006" height="30" as="geometry">
            <mxRectangle width="260.00000000000006" height="30" as="alternateBounds" />
          </mxGeometry>
        </mxCell>
        <mxCell id="m-uryQRzLKnpch2HjsIr-32" value="" style="shape=tableRow;horizontal=0;startSize=0;swimlaneHead=0;swimlaneBody=0;fillColor=none;collapsible=0;dropTarget=0;points=[[0,0.5],[1,0.5]];portConstraint=eastwest;top=0;left=0;right=0;bottom=1;html=1;" parent="m-uryQRzLKnpch2HjsIr-28" vertex="1">
          <mxGeometry y="60" width="320.00000000000006" height="30" as="geometry" />
        </mxCell>
        <mxCell id="m-uryQRzLKnpch2HjsIr-33" value="PK, FK" style="shape=partialRectangle;connectable=0;fillColor=none;top=0;left=0;bottom=0;right=0;fontStyle=1;overflow=hidden;html=1;whiteSpace=wrap;" parent="m-uryQRzLKnpch2HjsIr-32" vertex="1">
          <mxGeometry width="60" height="30" as="geometry">
            <mxRectangle width="60" height="30" as="alternateBounds" />
          </mxGeometry>
        </mxCell>
        <mxCell id="m-uryQRzLKnpch2HjsIr-34" value="assignmentId, INT, NOT NULL" style="shape=partialRectangle;connectable=0;fillColor=none;top=0;left=0;bottom=0;right=0;align=left;spacingLeft=6;fontStyle=5;overflow=hidden;html=1;whiteSpace=wrap;" parent="m-uryQRzLKnpch2HjsIr-32" vertex="1">
          <mxGeometry x="60" width="260.00000000000006" height="30" as="geometry">
            <mxRectangle width="260.00000000000006" height="30" as="alternateBounds" />
          </mxGeometry>
        </mxCell>
        <mxCell id="m-uryQRzLKnpch2HjsIr-35" value="" style="shape=tableRow;horizontal=0;startSize=0;swimlaneHead=0;swimlaneBody=0;fillColor=none;collapsible=0;dropTarget=0;points=[[0,0.5],[1,0.5]];portConstraint=eastwest;top=0;left=0;right=0;bottom=0;html=1;" parent="m-uryQRzLKnpch2HjsIr-28" vertex="1">
          <mxGeometry y="90" width="320.00000000000006" height="30" as="geometry" />
        </mxCell>
        <mxCell id="m-uryQRzLKnpch2HjsIr-36" value="" style="shape=partialRectangle;connectable=0;fillColor=none;top=0;left=0;bottom=0;right=0;editable=1;overflow=hidden;html=1;whiteSpace=wrap;" parent="m-uryQRzLKnpch2HjsIr-35" vertex="1">
          <mxGeometry width="60" height="30" as="geometry">
            <mxRectangle width="60" height="30" as="alternateBounds" />
          </mxGeometry>
        </mxCell>
        <mxCell id="m-uryQRzLKnpch2HjsIr-37" value="DateStart, TIMESTAMP, NOT NULL" style="shape=partialRectangle;connectable=0;fillColor=none;top=0;left=0;bottom=0;right=0;align=left;spacingLeft=6;overflow=hidden;html=1;whiteSpace=wrap;" parent="m-uryQRzLKnpch2HjsIr-35" vertex="1">
          <mxGeometry x="60" width="260.00000000000006" height="30" as="geometry">
            <mxRectangle width="260.00000000000006" height="30" as="alternateBounds" />
          </mxGeometry>
        </mxCell>
        <mxCell id="m-uryQRzLKnpch2HjsIr-38" value="" style="shape=tableRow;horizontal=0;startSize=0;swimlaneHead=0;swimlaneBody=0;fillColor=none;collapsible=0;dropTarget=0;points=[[0,0.5],[1,0.5]];portConstraint=eastwest;top=0;left=0;right=0;bottom=0;html=1;" parent="m-uryQRzLKnpch2HjsIr-28" vertex="1">
          <mxGeometry y="120" width="320.00000000000006" height="30" as="geometry" />
        </mxCell>
        <mxCell id="m-uryQRzLKnpch2HjsIr-39" value="" style="shape=partialRectangle;connectable=0;fillColor=none;top=0;left=0;bottom=0;right=0;editable=1;overflow=hidden;html=1;whiteSpace=wrap;" parent="m-uryQRzLKnpch2HjsIr-38" vertex="1">
          <mxGeometry width="60" height="30" as="geometry">
            <mxRectangle width="60" height="30" as="alternateBounds" />
          </mxGeometry>
        </mxCell>
        <mxCell id="m-uryQRzLKnpch2HjsIr-40" value="DateEnd, DATETIME" style="shape=partialRectangle;connectable=0;fillColor=none;top=0;left=0;bottom=0;right=0;align=left;spacingLeft=6;overflow=hidden;html=1;whiteSpace=wrap;" parent="m-uryQRzLKnpch2HjsIr-38" vertex="1">
          <mxGeometry x="60" width="260.00000000000006" height="30" as="geometry">
            <mxRectangle width="260.00000000000006" height="30" as="alternateBounds" />
          </mxGeometry>
        </mxCell>
        <mxCell id="CpBTHu7pFJ8_8jRN4DaD-48" value="&lt;div style=&quot;&quot;&gt;&lt;font style=&quot;font-size: 12px;&quot; color=&quot;#009900&quot;&gt;/* csv-file with 100&#39;000 emplAssign entry&lt;/font&gt;&lt;/div&gt;&lt;div style=&quot;font-size: 9px;&quot;&gt;&lt;font style=&quot;font-size: 9px;&quot; color=&quot;#009900&quot;&gt;&amp;nbsp;Use the following instruction to import the date correctly:&lt;/font&gt;&lt;/div&gt;&lt;div style=&quot;font-size: 9px;&quot;&gt;&lt;font style=&quot;font-size: 9px;&quot; color=&quot;#009900&quot;&gt;&quot;SET dateStart = STR_TO_DATE(`dateStart`, &#39;%Y-%m-%d %H:%i:%s&#39;),&lt;/font&gt;&lt;/div&gt;&lt;div style=&quot;&quot;&gt;&lt;font style=&quot;font-size: 9px;&quot; color=&quot;#009900&quot;&gt;dateEnd = STR_TO_DATE(`dateEnd`, &#39;%Y-%m-%d %H:%i:%s&#39;)&quot; &lt;/font&gt;&lt;font style=&quot;font-size: 12px;&quot; color=&quot;#009900&quot;&gt;*/&lt;/font&gt;&lt;/div&gt;" style="rounded=0;whiteSpace=wrap;html=1;fillColor=none;fontColor=#ffffff;strokeColor=#ffffff;fontSize=9;" parent="btX9GJ8fYtFLpP8O-0uu-2" vertex="1">
          <mxGeometry y="150" width="320" height="60" as="geometry" />
        </mxCell>
        <mxCell id="btX9GJ8fYtFLpP8O-0uu-3" value="" style="group" parent="1" vertex="1" connectable="0">
          <mxGeometry x="1865" y="1729" width="320" height="300" as="geometry" />
        </mxCell>
        <mxCell id="m-uryQRzLKnpch2HjsIr-151" value="&lt;span style=&quot;font-style: normal;&quot;&gt;tbl_sale&lt;/span&gt;" style="shape=table;startSize=30;container=1;collapsible=1;childLayout=tableLayout;fixedRows=1;rowLines=0;fontStyle=3;align=center;resizeLast=1;html=1;fillColor=#008a00;fontColor=#ffffff;strokeColor=#005700;" parent="btX9GJ8fYtFLpP8O-0uu-3" vertex="1">
          <mxGeometry width="320" height="240" as="geometry" />
        </mxCell>
        <mxCell id="m-uryQRzLKnpch2HjsIr-152" value="" style="shape=tableRow;horizontal=0;startSize=0;swimlaneHead=0;swimlaneBody=0;fillColor=none;collapsible=0;dropTarget=0;points=[[0,0.5],[1,0.5]];portConstraint=eastwest;top=0;left=0;right=0;bottom=1;" parent="m-uryQRzLKnpch2HjsIr-151" vertex="1">
          <mxGeometry y="30" width="320" height="30" as="geometry" />
        </mxCell>
        <mxCell id="m-uryQRzLKnpch2HjsIr-153" value="PK" style="shape=partialRectangle;connectable=0;fillColor=none;top=0;left=0;bottom=0;right=0;fontStyle=1;overflow=hidden;whiteSpace=wrap;html=1;" parent="m-uryQRzLKnpch2HjsIr-152" vertex="1">
          <mxGeometry width="30" height="30" as="geometry">
            <mxRectangle width="30" height="30" as="alternateBounds" />
          </mxGeometry>
        </mxCell>
        <mxCell id="m-uryQRzLKnpch2HjsIr-154" value="saleId, INT, NOT NULL, AIK" style="shape=partialRectangle;connectable=0;fillColor=none;top=0;left=0;bottom=0;right=0;align=left;spacingLeft=6;fontStyle=5;overflow=hidden;whiteSpace=wrap;html=1;" parent="m-uryQRzLKnpch2HjsIr-152" vertex="1">
          <mxGeometry x="30" width="290" height="30" as="geometry">
            <mxRectangle width="290" height="30" as="alternateBounds" />
          </mxGeometry>
        </mxCell>
        <mxCell id="m-uryQRzLKnpch2HjsIr-158" value="" style="shape=tableRow;horizontal=0;startSize=0;swimlaneHead=0;swimlaneBody=0;fillColor=none;collapsible=0;dropTarget=0;points=[[0,0.5],[1,0.5]];portConstraint=eastwest;top=0;left=0;right=0;bottom=0;" parent="m-uryQRzLKnpch2HjsIr-151" vertex="1">
          <mxGeometry y="60" width="320" height="30" as="geometry" />
        </mxCell>
        <mxCell id="m-uryQRzLKnpch2HjsIr-159" value="FK" style="shape=partialRectangle;connectable=0;fillColor=none;top=0;left=0;bottom=0;right=0;editable=1;overflow=hidden;whiteSpace=wrap;html=1;fontStyle=2" parent="m-uryQRzLKnpch2HjsIr-158" vertex="1">
          <mxGeometry width="30" height="30" as="geometry">
            <mxRectangle width="30" height="30" as="alternateBounds" />
          </mxGeometry>
        </mxCell>
        <mxCell id="m-uryQRzLKnpch2HjsIr-160" value="opSysGameId, INT, NOT NULL" style="shape=partialRectangle;connectable=0;fillColor=none;top=0;left=0;bottom=0;right=0;align=left;spacingLeft=6;overflow=hidden;whiteSpace=wrap;html=1;fontStyle=2" parent="m-uryQRzLKnpch2HjsIr-158" vertex="1">
          <mxGeometry x="30" width="290" height="30" as="geometry">
            <mxRectangle width="290" height="30" as="alternateBounds" />
          </mxGeometry>
        </mxCell>
        <mxCell id="m-uryQRzLKnpch2HjsIr-155" value="" style="shape=tableRow;horizontal=0;startSize=0;swimlaneHead=0;swimlaneBody=0;fillColor=none;collapsible=0;dropTarget=0;points=[[0,0.5],[1,0.5]];portConstraint=eastwest;top=0;left=0;right=0;bottom=0;" parent="m-uryQRzLKnpch2HjsIr-151" vertex="1">
          <mxGeometry y="90" width="320" height="30" as="geometry" />
        </mxCell>
        <mxCell id="m-uryQRzLKnpch2HjsIr-156" value="FK" style="shape=partialRectangle;connectable=0;fillColor=none;top=0;left=0;bottom=0;right=0;editable=1;overflow=hidden;whiteSpace=wrap;html=1;fontStyle=2" parent="m-uryQRzLKnpch2HjsIr-155" vertex="1">
          <mxGeometry width="30" height="30" as="geometry">
            <mxRectangle width="30" height="30" as="alternateBounds" />
          </mxGeometry>
        </mxCell>
        <mxCell id="m-uryQRzLKnpch2HjsIr-157" value="webServiceId, INT, NOT NULL" style="shape=partialRectangle;connectable=0;fillColor=none;top=0;left=0;bottom=0;right=0;align=left;spacingLeft=6;overflow=hidden;whiteSpace=wrap;html=1;fontStyle=2" parent="m-uryQRzLKnpch2HjsIr-155" vertex="1">
          <mxGeometry x="30" width="290" height="30" as="geometry">
            <mxRectangle width="290" height="30" as="alternateBounds" />
          </mxGeometry>
        </mxCell>
        <mxCell id="m-uryQRzLKnpch2HjsIr-161" value="" style="shape=tableRow;horizontal=0;startSize=0;swimlaneHead=0;swimlaneBody=0;fillColor=none;collapsible=0;dropTarget=0;points=[[0,0.5],[1,0.5]];portConstraint=eastwest;top=0;left=0;right=0;bottom=0;" parent="m-uryQRzLKnpch2HjsIr-151" vertex="1">
          <mxGeometry y="120" width="320" height="30" as="geometry" />
        </mxCell>
        <mxCell id="m-uryQRzLKnpch2HjsIr-162" value="FK" style="shape=partialRectangle;connectable=0;fillColor=none;top=0;left=0;bottom=0;right=0;editable=1;overflow=hidden;whiteSpace=wrap;html=1;fontStyle=2" parent="m-uryQRzLKnpch2HjsIr-161" vertex="1">
          <mxGeometry width="30" height="30" as="geometry">
            <mxRectangle width="30" height="30" as="alternateBounds" />
          </mxGeometry>
        </mxCell>
        <mxCell id="m-uryQRzLKnpch2HjsIr-163" value="&lt;span style=&quot;color: rgb(240, 240, 240); font-family: Helvetica; font-size: 12px; font-variant-ligatures: normal; font-variant-caps: normal; letter-spacing: normal; orphans: 2; text-align: left; text-indent: 0px; text-transform: none; widows: 2; word-spacing: 0px; -webkit-text-stroke-width: 0px; background-color: rgb(27, 29, 30); float: none; display: inline !important;&quot;&gt;userId, INT, NOT NULL&lt;/span&gt;" style="shape=partialRectangle;connectable=0;fillColor=none;top=0;left=0;bottom=0;right=0;align=left;spacingLeft=6;overflow=hidden;whiteSpace=wrap;html=1;fontStyle=2" parent="m-uryQRzLKnpch2HjsIr-161" vertex="1">
          <mxGeometry x="30" width="290" height="30" as="geometry">
            <mxRectangle width="290" height="30" as="alternateBounds" />
          </mxGeometry>
        </mxCell>
        <mxCell id="2c5nBVZ5A8PJ-XaKH1z_-56" value="" style="shape=tableRow;horizontal=0;startSize=0;swimlaneHead=0;swimlaneBody=0;fillColor=none;collapsible=0;dropTarget=0;points=[[0,0.5],[1,0.5]];portConstraint=eastwest;top=0;left=0;right=0;bottom=0;" parent="m-uryQRzLKnpch2HjsIr-151" vertex="1">
          <mxGeometry y="150" width="320" height="30" as="geometry" />
        </mxCell>
        <mxCell id="2c5nBVZ5A8PJ-XaKH1z_-57" value="FK" style="shape=partialRectangle;connectable=0;fillColor=none;top=0;left=0;bottom=0;right=0;editable=1;overflow=hidden;whiteSpace=wrap;html=1;fontStyle=2" parent="2c5nBVZ5A8PJ-XaKH1z_-56" vertex="1">
          <mxGeometry width="30" height="30" as="geometry">
            <mxRectangle width="30" height="30" as="alternateBounds" />
          </mxGeometry>
        </mxCell>
        <mxCell id="2c5nBVZ5A8PJ-XaKH1z_-58" value="currencyCode, CHAR(3), NOT NULL" style="shape=partialRectangle;connectable=0;fillColor=none;top=0;left=0;bottom=0;right=0;align=left;spacingLeft=6;overflow=hidden;whiteSpace=wrap;html=1;fontStyle=2" parent="2c5nBVZ5A8PJ-XaKH1z_-56" vertex="1">
          <mxGeometry x="30" width="290" height="30" as="geometry">
            <mxRectangle width="290" height="30" as="alternateBounds" />
          </mxGeometry>
        </mxCell>
        <mxCell id="2c5nBVZ5A8PJ-XaKH1z_-59" value="" style="shape=tableRow;horizontal=0;startSize=0;swimlaneHead=0;swimlaneBody=0;fillColor=none;collapsible=0;dropTarget=0;points=[[0,0.5],[1,0.5]];portConstraint=eastwest;top=0;left=0;right=0;bottom=0;" parent="m-uryQRzLKnpch2HjsIr-151" vertex="1">
          <mxGeometry y="180" width="320" height="30" as="geometry" />
        </mxCell>
        <mxCell id="2c5nBVZ5A8PJ-XaKH1z_-60" value="" style="shape=partialRectangle;connectable=0;fillColor=none;top=0;left=0;bottom=0;right=0;editable=1;overflow=hidden;whiteSpace=wrap;html=1;" parent="2c5nBVZ5A8PJ-XaKH1z_-59" vertex="1">
          <mxGeometry width="30" height="30" as="geometry">
            <mxRectangle width="30" height="30" as="alternateBounds" />
          </mxGeometry>
        </mxCell>
        <mxCell id="2c5nBVZ5A8PJ-XaKH1z_-61" value="salePrice, DECIMAL(6,2), NOT NULL" style="shape=partialRectangle;connectable=0;fillColor=none;top=0;left=0;bottom=0;right=0;align=left;spacingLeft=6;overflow=hidden;whiteSpace=wrap;html=1;" parent="2c5nBVZ5A8PJ-XaKH1z_-59" vertex="1">
          <mxGeometry x="30" width="290" height="30" as="geometry">
            <mxRectangle width="290" height="30" as="alternateBounds" />
          </mxGeometry>
        </mxCell>
        <mxCell id="2c5nBVZ5A8PJ-XaKH1z_-62" value="" style="shape=tableRow;horizontal=0;startSize=0;swimlaneHead=0;swimlaneBody=0;fillColor=none;collapsible=0;dropTarget=0;points=[[0,0.5],[1,0.5]];portConstraint=eastwest;top=0;left=0;right=0;bottom=0;" parent="m-uryQRzLKnpch2HjsIr-151" vertex="1">
          <mxGeometry y="210" width="320" height="30" as="geometry" />
        </mxCell>
        <mxCell id="2c5nBVZ5A8PJ-XaKH1z_-63" value="" style="shape=partialRectangle;connectable=0;fillColor=none;top=0;left=0;bottom=0;right=0;editable=1;overflow=hidden;whiteSpace=wrap;html=1;" parent="2c5nBVZ5A8PJ-XaKH1z_-62" vertex="1">
          <mxGeometry width="30" height="30" as="geometry">
            <mxRectangle width="30" height="30" as="alternateBounds" />
          </mxGeometry>
        </mxCell>
        <mxCell id="2c5nBVZ5A8PJ-XaKH1z_-64" value="saleDate, Timestamp, NOT NULL" style="shape=partialRectangle;connectable=0;fillColor=none;top=0;left=0;bottom=0;right=0;align=left;spacingLeft=6;overflow=hidden;whiteSpace=wrap;html=1;" parent="2c5nBVZ5A8PJ-XaKH1z_-62" vertex="1">
          <mxGeometry x="30" width="290" height="30" as="geometry">
            <mxRectangle width="290" height="30" as="alternateBounds" />
          </mxGeometry>
        </mxCell>
        <mxCell id="CpBTHu7pFJ8_8jRN4DaD-64" value="&lt;font color=&quot;#009900&quot;&gt;/* csv-file with 2&#39;000&#39;000 sales&amp;nbsp;&lt;br&gt;&lt;font style=&quot;font-size: 9px;&quot;&gt;Use the following instruction to import the date correctly:&lt;/font&gt;&lt;font style=&quot;font-size: 9px;&quot;&gt;&lt;br&gt;SET `validDate` = STR_TO_DATE(`validDate`, &#39;%Y-%m-%d&#39;)&amp;nbsp;&lt;/font&gt;*/&lt;/font&gt;" style="rounded=0;whiteSpace=wrap;html=1;fillColor=none;fontColor=#ffffff;strokeColor=#005700;" parent="btX9GJ8fYtFLpP8O-0uu-3" vertex="1">
          <mxGeometry y="240" width="320" height="60" as="geometry" />
        </mxCell>
        <mxCell id="btX9GJ8fYtFLpP8O-0uu-4" value="" style="group" parent="1" vertex="1" connectable="0">
          <mxGeometry x="985" y="1464" width="320" height="570" as="geometry" />
        </mxCell>
        <mxCell id="m-uryQRzLKnpch2HjsIr-99" value="&lt;span style=&quot;font-style: normal;&quot;&gt;tbl_user&lt;/span&gt;" style="shape=table;startSize=30;container=1;collapsible=1;childLayout=tableLayout;fixedRows=1;rowLines=0;fontStyle=3;align=center;resizeLast=1;html=1;fillColor=#008a00;fontColor=#ffffff;strokeColor=#005700;" parent="btX9GJ8fYtFLpP8O-0uu-4" vertex="1">
          <mxGeometry width="320" height="480.0000000000002" as="geometry" />
        </mxCell>
        <mxCell id="m-uryQRzLKnpch2HjsIr-100" value="" style="shape=tableRow;horizontal=0;startSize=0;swimlaneHead=0;swimlaneBody=0;fillColor=none;collapsible=0;dropTarget=0;points=[[0,0.5],[1,0.5]];portConstraint=eastwest;top=0;left=0;right=0;bottom=1;" parent="m-uryQRzLKnpch2HjsIr-99" vertex="1">
          <mxGeometry y="30" width="320" height="30" as="geometry" />
        </mxCell>
        <mxCell id="m-uryQRzLKnpch2HjsIr-101" value="PK" style="shape=partialRectangle;connectable=0;fillColor=none;top=0;left=0;bottom=0;right=0;fontStyle=1;overflow=hidden;whiteSpace=wrap;html=1;" parent="m-uryQRzLKnpch2HjsIr-100" vertex="1">
          <mxGeometry width="30" height="30" as="geometry">
            <mxRectangle width="30" height="30" as="alternateBounds" />
          </mxGeometry>
        </mxCell>
        <mxCell id="m-uryQRzLKnpch2HjsIr-102" value="userId, INT, NOT NULL, AIK" style="shape=partialRectangle;connectable=0;fillColor=none;top=0;left=0;bottom=0;right=0;align=left;spacingLeft=6;fontStyle=5;overflow=hidden;whiteSpace=wrap;html=1;" parent="m-uryQRzLKnpch2HjsIr-100" vertex="1">
          <mxGeometry x="30" width="290" height="30" as="geometry">
            <mxRectangle width="290" height="30" as="alternateBounds" />
          </mxGeometry>
        </mxCell>
        <mxCell id="m-uryQRzLKnpch2HjsIr-103" value="" style="shape=tableRow;horizontal=0;startSize=0;swimlaneHead=0;swimlaneBody=0;fillColor=none;collapsible=0;dropTarget=0;points=[[0,0.5],[1,0.5]];portConstraint=eastwest;top=0;left=0;right=0;bottom=0;" parent="m-uryQRzLKnpch2HjsIr-99" vertex="1">
          <mxGeometry y="60" width="320" height="30" as="geometry" />
        </mxCell>
        <mxCell id="m-uryQRzLKnpch2HjsIr-104" value="" style="shape=partialRectangle;connectable=0;fillColor=none;top=0;left=0;bottom=0;right=0;editable=1;overflow=hidden;whiteSpace=wrap;html=1;" parent="m-uryQRzLKnpch2HjsIr-103" vertex="1">
          <mxGeometry width="30" height="30" as="geometry">
            <mxRectangle width="30" height="30" as="alternateBounds" />
          </mxGeometry>
        </mxCell>
        <mxCell id="m-uryQRzLKnpch2HjsIr-105" value="userName, VARCHAR(45), NOT NULL" style="shape=partialRectangle;connectable=0;fillColor=none;top=0;left=0;bottom=0;right=0;align=left;spacingLeft=6;overflow=hidden;whiteSpace=wrap;html=1;" parent="m-uryQRzLKnpch2HjsIr-103" vertex="1">
          <mxGeometry x="30" width="290" height="30" as="geometry">
            <mxRectangle width="290" height="30" as="alternateBounds" />
          </mxGeometry>
        </mxCell>
        <mxCell id="m-uryQRzLKnpch2HjsIr-106" value="" style="shape=tableRow;horizontal=0;startSize=0;swimlaneHead=0;swimlaneBody=0;fillColor=none;collapsible=0;dropTarget=0;points=[[0,0.5],[1,0.5]];portConstraint=eastwest;top=0;left=0;right=0;bottom=0;" parent="m-uryQRzLKnpch2HjsIr-99" vertex="1">
          <mxGeometry y="90" width="320" height="30" as="geometry" />
        </mxCell>
        <mxCell id="m-uryQRzLKnpch2HjsIr-107" value="" style="shape=partialRectangle;connectable=0;fillColor=none;top=0;left=0;bottom=0;right=0;editable=1;overflow=hidden;whiteSpace=wrap;html=1;" parent="m-uryQRzLKnpch2HjsIr-106" vertex="1">
          <mxGeometry width="30" height="30" as="geometry">
            <mxRectangle width="30" height="30" as="alternateBounds" />
          </mxGeometry>
        </mxCell>
        <mxCell id="m-uryQRzLKnpch2HjsIr-108" value="userPasswordHash, CHAR(64), NOT NULL" style="shape=partialRectangle;connectable=0;fillColor=none;top=0;left=0;bottom=0;right=0;align=left;spacingLeft=6;overflow=hidden;whiteSpace=wrap;html=1;" parent="m-uryQRzLKnpch2HjsIr-106" vertex="1">
          <mxGeometry x="30" width="290" height="30" as="geometry">
            <mxRectangle width="290" height="30" as="alternateBounds" />
          </mxGeometry>
        </mxCell>
        <mxCell id="m-uryQRzLKnpch2HjsIr-109" value="" style="shape=tableRow;horizontal=0;startSize=0;swimlaneHead=0;swimlaneBody=0;fillColor=none;collapsible=0;dropTarget=0;points=[[0,0.5],[1,0.5]];portConstraint=eastwest;top=0;left=0;right=0;bottom=0;" parent="m-uryQRzLKnpch2HjsIr-99" vertex="1">
          <mxGeometry y="120" width="320" height="30" as="geometry" />
        </mxCell>
        <mxCell id="m-uryQRzLKnpch2HjsIr-110" value="" style="shape=partialRectangle;connectable=0;fillColor=none;top=0;left=0;bottom=0;right=0;editable=1;overflow=hidden;whiteSpace=wrap;html=1;" parent="m-uryQRzLKnpch2HjsIr-109" vertex="1">
          <mxGeometry width="30" height="30" as="geometry">
            <mxRectangle width="30" height="30" as="alternateBounds" />
          </mxGeometry>
        </mxCell>
        <mxCell id="m-uryQRzLKnpch2HjsIr-111" value="userCompany, VARCHAR(45)" style="shape=partialRectangle;connectable=0;fillColor=none;top=0;left=0;bottom=0;right=0;align=left;spacingLeft=6;overflow=hidden;whiteSpace=wrap;html=1;" parent="m-uryQRzLKnpch2HjsIr-109" vertex="1">
          <mxGeometry x="30" width="290" height="30" as="geometry">
            <mxRectangle width="290" height="30" as="alternateBounds" />
          </mxGeometry>
        </mxCell>
        <mxCell id="SrimqY8IVKDhNXtefk8D-70" value="" style="shape=tableRow;horizontal=0;startSize=0;swimlaneHead=0;swimlaneBody=0;fillColor=none;collapsible=0;dropTarget=0;points=[[0,0.5],[1,0.5]];portConstraint=eastwest;top=0;left=0;right=0;bottom=0;" parent="m-uryQRzLKnpch2HjsIr-99" vertex="1">
          <mxGeometry y="150" width="320" height="30" as="geometry" />
        </mxCell>
        <mxCell id="SrimqY8IVKDhNXtefk8D-71" value="" style="shape=partialRectangle;connectable=0;fillColor=none;top=0;left=0;bottom=0;right=0;editable=1;overflow=hidden;whiteSpace=wrap;html=1;" parent="SrimqY8IVKDhNXtefk8D-70" vertex="1">
          <mxGeometry width="30" height="30" as="geometry">
            <mxRectangle width="30" height="30" as="alternateBounds" />
          </mxGeometry>
        </mxCell>
        <mxCell id="SrimqY8IVKDhNXtefk8D-72" value="userFirstName, VARCHAR(45), NOT NULL" style="shape=partialRectangle;connectable=0;fillColor=none;top=0;left=0;bottom=0;right=0;align=left;spacingLeft=6;overflow=hidden;whiteSpace=wrap;html=1;" parent="SrimqY8IVKDhNXtefk8D-70" vertex="1">
          <mxGeometry x="30" width="290" height="30" as="geometry">
            <mxRectangle width="290" height="30" as="alternateBounds" />
          </mxGeometry>
        </mxCell>
        <mxCell id="2c5nBVZ5A8PJ-XaKH1z_-5" value="" style="shape=tableRow;horizontal=0;startSize=0;swimlaneHead=0;swimlaneBody=0;fillColor=none;collapsible=0;dropTarget=0;points=[[0,0.5],[1,0.5]];portConstraint=eastwest;top=0;left=0;right=0;bottom=0;" parent="m-uryQRzLKnpch2HjsIr-99" vertex="1">
          <mxGeometry y="180" width="320" height="30" as="geometry" />
        </mxCell>
        <mxCell id="2c5nBVZ5A8PJ-XaKH1z_-6" value="" style="shape=partialRectangle;connectable=0;fillColor=none;top=0;left=0;bottom=0;right=0;editable=1;overflow=hidden;whiteSpace=wrap;html=1;" parent="2c5nBVZ5A8PJ-XaKH1z_-5" vertex="1">
          <mxGeometry width="30" height="30" as="geometry">
            <mxRectangle width="30" height="30" as="alternateBounds" />
          </mxGeometry>
        </mxCell>
        <mxCell id="2c5nBVZ5A8PJ-XaKH1z_-7" value="userLastName, VARCHAR(45), NOT NULL" style="shape=partialRectangle;connectable=0;fillColor=none;top=0;left=0;bottom=0;right=0;align=left;spacingLeft=6;overflow=hidden;whiteSpace=wrap;html=1;" parent="2c5nBVZ5A8PJ-XaKH1z_-5" vertex="1">
          <mxGeometry x="30" width="290" height="30" as="geometry">
            <mxRectangle width="290" height="30" as="alternateBounds" />
          </mxGeometry>
        </mxCell>
        <mxCell id="2c5nBVZ5A8PJ-XaKH1z_-8" value="" style="shape=tableRow;horizontal=0;startSize=0;swimlaneHead=0;swimlaneBody=0;fillColor=none;collapsible=0;dropTarget=0;points=[[0,0.5],[1,0.5]];portConstraint=eastwest;top=0;left=0;right=0;bottom=0;" parent="m-uryQRzLKnpch2HjsIr-99" vertex="1">
          <mxGeometry y="210" width="320" height="30" as="geometry" />
        </mxCell>
        <mxCell id="2c5nBVZ5A8PJ-XaKH1z_-9" value="" style="shape=partialRectangle;connectable=0;fillColor=none;top=0;left=0;bottom=0;right=0;editable=1;overflow=hidden;whiteSpace=wrap;html=1;" parent="2c5nBVZ5A8PJ-XaKH1z_-8" vertex="1">
          <mxGeometry width="30" height="30" as="geometry">
            <mxRectangle width="30" height="30" as="alternateBounds" />
          </mxGeometry>
        </mxCell>
        <mxCell id="2c5nBVZ5A8PJ-XaKH1z_-10" value="userStreet, VARCHAR(45)" style="shape=partialRectangle;connectable=0;fillColor=none;top=0;left=0;bottom=0;right=0;align=left;spacingLeft=6;overflow=hidden;whiteSpace=wrap;html=1;" parent="2c5nBVZ5A8PJ-XaKH1z_-8" vertex="1">
          <mxGeometry x="30" width="290" height="30" as="geometry">
            <mxRectangle width="290" height="30" as="alternateBounds" />
          </mxGeometry>
        </mxCell>
        <mxCell id="2c5nBVZ5A8PJ-XaKH1z_-11" value="" style="shape=tableRow;horizontal=0;startSize=0;swimlaneHead=0;swimlaneBody=0;fillColor=none;collapsible=0;dropTarget=0;points=[[0,0.5],[1,0.5]];portConstraint=eastwest;top=0;left=0;right=0;bottom=0;" parent="m-uryQRzLKnpch2HjsIr-99" vertex="1">
          <mxGeometry y="240" width="320" height="30" as="geometry" />
        </mxCell>
        <mxCell id="2c5nBVZ5A8PJ-XaKH1z_-12" value="" style="shape=partialRectangle;connectable=0;fillColor=none;top=0;left=0;bottom=0;right=0;editable=1;overflow=hidden;whiteSpace=wrap;html=1;" parent="2c5nBVZ5A8PJ-XaKH1z_-11" vertex="1">
          <mxGeometry width="30" height="30" as="geometry">
            <mxRectangle width="30" height="30" as="alternateBounds" />
          </mxGeometry>
        </mxCell>
        <mxCell id="2c5nBVZ5A8PJ-XaKH1z_-13" value="userStreetNr, SMALLINT" style="shape=partialRectangle;connectable=0;fillColor=none;top=0;left=0;bottom=0;right=0;align=left;spacingLeft=6;overflow=hidden;whiteSpace=wrap;html=1;" parent="2c5nBVZ5A8PJ-XaKH1z_-11" vertex="1">
          <mxGeometry x="30" width="290" height="30" as="geometry">
            <mxRectangle width="290" height="30" as="alternateBounds" />
          </mxGeometry>
        </mxCell>
        <mxCell id="2c5nBVZ5A8PJ-XaKH1z_-14" value="" style="shape=tableRow;horizontal=0;startSize=0;swimlaneHead=0;swimlaneBody=0;fillColor=none;collapsible=0;dropTarget=0;points=[[0,0.5],[1,0.5]];portConstraint=eastwest;top=0;left=0;right=0;bottom=0;" parent="m-uryQRzLKnpch2HjsIr-99" vertex="1">
          <mxGeometry y="270" width="320" height="30" as="geometry" />
        </mxCell>
        <mxCell id="2c5nBVZ5A8PJ-XaKH1z_-15" value="" style="shape=partialRectangle;connectable=0;fillColor=none;top=0;left=0;bottom=0;right=0;editable=1;overflow=hidden;whiteSpace=wrap;html=1;" parent="2c5nBVZ5A8PJ-XaKH1z_-14" vertex="1">
          <mxGeometry width="30" height="30" as="geometry">
            <mxRectangle width="30" height="30" as="alternateBounds" />
          </mxGeometry>
        </mxCell>
        <mxCell id="2c5nBVZ5A8PJ-XaKH1z_-16" value="userZip, MEDIUMINT" style="shape=partialRectangle;connectable=0;fillColor=none;top=0;left=0;bottom=0;right=0;align=left;spacingLeft=6;overflow=hidden;whiteSpace=wrap;html=1;" parent="2c5nBVZ5A8PJ-XaKH1z_-14" vertex="1">
          <mxGeometry x="30" width="290" height="30" as="geometry">
            <mxRectangle width="290" height="30" as="alternateBounds" />
          </mxGeometry>
        </mxCell>
        <mxCell id="2c5nBVZ5A8PJ-XaKH1z_-17" value="" style="shape=tableRow;horizontal=0;startSize=0;swimlaneHead=0;swimlaneBody=0;fillColor=none;collapsible=0;dropTarget=0;points=[[0,0.5],[1,0.5]];portConstraint=eastwest;top=0;left=0;right=0;bottom=0;" parent="m-uryQRzLKnpch2HjsIr-99" vertex="1">
          <mxGeometry y="300" width="320" height="30" as="geometry" />
        </mxCell>
        <mxCell id="2c5nBVZ5A8PJ-XaKH1z_-18" value="" style="shape=partialRectangle;connectable=0;fillColor=none;top=0;left=0;bottom=0;right=0;editable=1;overflow=hidden;whiteSpace=wrap;html=1;" parent="2c5nBVZ5A8PJ-XaKH1z_-17" vertex="1">
          <mxGeometry width="30" height="30" as="geometry">
            <mxRectangle width="30" height="30" as="alternateBounds" />
          </mxGeometry>
        </mxCell>
        <mxCell id="2c5nBVZ5A8PJ-XaKH1z_-19" value="userTown, VARCHAR(45)" style="shape=partialRectangle;connectable=0;fillColor=none;top=0;left=0;bottom=0;right=0;align=left;spacingLeft=6;overflow=hidden;whiteSpace=wrap;html=1;" parent="2c5nBVZ5A8PJ-XaKH1z_-17" vertex="1">
          <mxGeometry x="30" width="290" height="30" as="geometry">
            <mxRectangle width="290" height="30" as="alternateBounds" />
          </mxGeometry>
        </mxCell>
        <mxCell id="2c5nBVZ5A8PJ-XaKH1z_-20" value="" style="shape=tableRow;horizontal=0;startSize=0;swimlaneHead=0;swimlaneBody=0;fillColor=none;collapsible=0;dropTarget=0;points=[[0,0.5],[1,0.5]];portConstraint=eastwest;top=0;left=0;right=0;bottom=0;" parent="m-uryQRzLKnpch2HjsIr-99" vertex="1">
          <mxGeometry y="330" width="320" height="30" as="geometry" />
        </mxCell>
        <mxCell id="2c5nBVZ5A8PJ-XaKH1z_-21" value="FK" style="shape=partialRectangle;connectable=0;fillColor=none;top=0;left=0;bottom=0;right=0;editable=1;overflow=hidden;whiteSpace=wrap;html=1;fontStyle=2" parent="2c5nBVZ5A8PJ-XaKH1z_-20" vertex="1">
          <mxGeometry width="30" height="30" as="geometry">
            <mxRectangle width="30" height="30" as="alternateBounds" />
          </mxGeometry>
        </mxCell>
        <mxCell id="2c5nBVZ5A8PJ-XaKH1z_-22" value="userCountry, CHAR(3), NOT NULL" style="shape=partialRectangle;connectable=0;fillColor=none;top=0;left=0;bottom=0;right=0;align=left;spacingLeft=6;overflow=hidden;whiteSpace=wrap;html=1;fontStyle=2" parent="2c5nBVZ5A8PJ-XaKH1z_-20" vertex="1">
          <mxGeometry x="30" width="290" height="30" as="geometry">
            <mxRectangle width="290" height="30" as="alternateBounds" />
          </mxGeometry>
        </mxCell>
        <mxCell id="2c5nBVZ5A8PJ-XaKH1z_-93" value="" style="shape=tableRow;horizontal=0;startSize=0;swimlaneHead=0;swimlaneBody=0;fillColor=none;collapsible=0;dropTarget=0;points=[[0,0.5],[1,0.5]];portConstraint=eastwest;top=0;left=0;right=0;bottom=0;" parent="m-uryQRzLKnpch2HjsIr-99" vertex="1">
          <mxGeometry y="360" width="320" height="30" as="geometry" />
        </mxCell>
        <mxCell id="2c5nBVZ5A8PJ-XaKH1z_-94" value="" style="shape=partialRectangle;connectable=0;fillColor=none;top=0;left=0;bottom=0;right=0;editable=1;overflow=hidden;whiteSpace=wrap;html=1;" parent="2c5nBVZ5A8PJ-XaKH1z_-93" vertex="1">
          <mxGeometry width="30" height="30" as="geometry">
            <mxRectangle width="30" height="30" as="alternateBounds" />
          </mxGeometry>
        </mxCell>
        <mxCell id="2c5nBVZ5A8PJ-XaKH1z_-95" value="userGender, ENUM(&#39;male&#39;, &#39;female&#39;, &#39;divers&#39;)" style="shape=partialRectangle;connectable=0;fillColor=none;top=0;left=0;bottom=0;right=0;align=left;spacingLeft=6;overflow=hidden;whiteSpace=wrap;html=1;" parent="2c5nBVZ5A8PJ-XaKH1z_-93" vertex="1">
          <mxGeometry x="30" width="290" height="30" as="geometry">
            <mxRectangle width="290" height="30" as="alternateBounds" />
          </mxGeometry>
        </mxCell>
        <mxCell id="SrimqY8IVKDhNXtefk8D-7" value="" style="shape=tableRow;horizontal=0;startSize=0;swimlaneHead=0;swimlaneBody=0;fillColor=none;collapsible=0;dropTarget=0;points=[[0,0.5],[1,0.5]];portConstraint=eastwest;top=0;left=0;right=0;bottom=0;" parent="m-uryQRzLKnpch2HjsIr-99" vertex="1">
          <mxGeometry y="390" width="320" height="30" as="geometry" />
        </mxCell>
        <mxCell id="SrimqY8IVKDhNXtefk8D-8" value="FK" style="shape=partialRectangle;connectable=0;fillColor=none;top=0;left=0;bottom=0;right=0;editable=1;overflow=hidden;whiteSpace=wrap;html=1;" parent="SrimqY8IVKDhNXtefk8D-7" vertex="1">
          <mxGeometry width="30" height="30" as="geometry">
            <mxRectangle width="30" height="30" as="alternateBounds" />
          </mxGeometry>
        </mxCell>
        <mxCell id="SrimqY8IVKDhNXtefk8D-9" value="userPhonePrefix, VARCHAR(6)" style="shape=partialRectangle;connectable=0;fillColor=none;top=0;left=0;bottom=0;right=0;align=left;spacingLeft=6;overflow=hidden;whiteSpace=wrap;html=1;" parent="SrimqY8IVKDhNXtefk8D-7" vertex="1">
          <mxGeometry x="30" width="290" height="30" as="geometry">
            <mxRectangle width="290" height="30" as="alternateBounds" />
          </mxGeometry>
        </mxCell>
        <mxCell id="SrimqY8IVKDhNXtefk8D-1" value="" style="shape=tableRow;horizontal=0;startSize=0;swimlaneHead=0;swimlaneBody=0;fillColor=none;collapsible=0;dropTarget=0;points=[[0,0.5],[1,0.5]];portConstraint=eastwest;top=0;left=0;right=0;bottom=0;" parent="m-uryQRzLKnpch2HjsIr-99" vertex="1">
          <mxGeometry y="420" width="320" height="30" as="geometry" />
        </mxCell>
        <mxCell id="SrimqY8IVKDhNXtefk8D-2" value="" style="shape=partialRectangle;connectable=0;fillColor=none;top=0;left=0;bottom=0;right=0;editable=1;overflow=hidden;whiteSpace=wrap;html=1;" parent="SrimqY8IVKDhNXtefk8D-1" vertex="1">
          <mxGeometry width="30" height="30" as="geometry">
            <mxRectangle width="30" height="30" as="alternateBounds" />
          </mxGeometry>
        </mxCell>
        <mxCell id="SrimqY8IVKDhNXtefk8D-3" value="userPhone, INT, DEFAULT NULL" style="shape=partialRectangle;connectable=0;fillColor=none;top=0;left=0;bottom=0;right=0;align=left;spacingLeft=6;overflow=hidden;whiteSpace=wrap;html=1;" parent="SrimqY8IVKDhNXtefk8D-1" vertex="1">
          <mxGeometry x="30" width="290" height="30" as="geometry">
            <mxRectangle width="290" height="30" as="alternateBounds" />
          </mxGeometry>
        </mxCell>
        <mxCell id="SrimqY8IVKDhNXtefk8D-4" value="" style="shape=tableRow;horizontal=0;startSize=0;swimlaneHead=0;swimlaneBody=0;fillColor=none;collapsible=0;dropTarget=0;points=[[0,0.5],[1,0.5]];portConstraint=eastwest;top=0;left=0;right=0;bottom=0;" parent="m-uryQRzLKnpch2HjsIr-99" vertex="1">
          <mxGeometry y="450" width="320" height="30" as="geometry" />
        </mxCell>
        <mxCell id="SrimqY8IVKDhNXtefk8D-5" value="" style="shape=partialRectangle;connectable=0;fillColor=none;top=0;left=0;bottom=0;right=0;editable=1;overflow=hidden;whiteSpace=wrap;html=1;" parent="SrimqY8IVKDhNXtefk8D-4" vertex="1">
          <mxGeometry width="30" height="30" as="geometry">
            <mxRectangle width="30" height="30" as="alternateBounds" />
          </mxGeometry>
        </mxCell>
        <mxCell id="SrimqY8IVKDhNXtefk8D-6" value="userMail, VARCHAR(100), CHECK LIKE &#39;%@%.%&#39;" style="shape=partialRectangle;connectable=0;fillColor=none;top=0;left=0;bottom=0;right=0;align=left;spacingLeft=6;overflow=hidden;whiteSpace=wrap;html=1;" parent="SrimqY8IVKDhNXtefk8D-4" vertex="1">
          <mxGeometry x="30" width="290" height="30" as="geometry">
            <mxRectangle width="290" height="30" as="alternateBounds" />
          </mxGeometry>
        </mxCell>
        <mxCell id="CpBTHu7pFJ8_8jRN4DaD-44" value="&lt;div&gt;&lt;font color=&quot;#009900&quot;&gt;/* csv-file with 1&#39;000&#39;000 users&lt;/font&gt;&lt;/div&gt;&lt;div&gt;&lt;font color=&quot;#009900&quot;&gt;Use the following instruction to import the date correctly:&lt;/font&gt;&lt;/div&gt;&lt;div&gt;&lt;font color=&quot;#009900&quot;&gt;SET `userCompany` = REPLACE(`userCompany`, &#39;&quot;&#39;, &#39;&#39;),&lt;/font&gt;&lt;/div&gt;&lt;div&gt;&lt;font color=&quot;#009900&quot;&gt;`userStreet` = REPLACE(`userStreet`, &#39;&quot;&#39;, &#39;&#39;),&lt;/font&gt;&lt;/div&gt;&lt;div&gt;&lt;font color=&quot;#009900&quot;&gt;&amp;nbsp; &amp;nbsp; `userTown` = REPLACE(`userTown`, &#39;&quot;&#39;, &#39;&#39;)&amp;nbsp;&lt;/font&gt;&lt;span style=&quot;color: rgb(0, 153, 0); background-color: initial;&quot;&gt;*/&lt;/span&gt;&lt;/div&gt;" style="rounded=0;whiteSpace=wrap;html=1;fillColor=none;fontColor=#ffffff;strokeColor=#005700;" parent="btX9GJ8fYtFLpP8O-0uu-4" vertex="1">
          <mxGeometry y="480" width="320" height="90" as="geometry" />
        </mxCell>
        <mxCell id="btX9GJ8fYtFLpP8O-0uu-5" value="" style="group" parent="1" vertex="1" connectable="0">
          <mxGeometry x="1415" y="1282" width="340" height="250" as="geometry" />
        </mxCell>
        <mxCell id="m-uryQRzLKnpch2HjsIr-125" value="tbl_review" style="shape=table;startSize=30;container=1;collapsible=1;childLayout=tableLayout;fixedRows=1;rowLines=0;fontStyle=1;align=center;resizeLast=1;html=1;fillColor=#008a00;fontColor=#ffffff;strokeColor=#005700;" parent="btX9GJ8fYtFLpP8O-0uu-5" vertex="1">
          <mxGeometry width="340" height="181.46103896103898" as="geometry" />
        </mxCell>
        <mxCell id="m-uryQRzLKnpch2HjsIr-126" value="" style="shape=tableRow;horizontal=0;startSize=0;swimlaneHead=0;swimlaneBody=0;fillColor=none;collapsible=0;dropTarget=0;points=[[0,0.5],[1,0.5]];portConstraint=eastwest;top=0;left=0;right=0;bottom=1;" parent="m-uryQRzLKnpch2HjsIr-125" vertex="1">
          <mxGeometry y="30" width="340" height="30" as="geometry" />
        </mxCell>
        <mxCell id="m-uryQRzLKnpch2HjsIr-127" value="PK" style="shape=partialRectangle;connectable=0;fillColor=none;top=0;left=0;bottom=0;right=0;fontStyle=1;overflow=hidden;whiteSpace=wrap;html=1;" parent="m-uryQRzLKnpch2HjsIr-126" vertex="1">
          <mxGeometry width="30" height="30" as="geometry">
            <mxRectangle width="30" height="30" as="alternateBounds" />
          </mxGeometry>
        </mxCell>
        <mxCell id="m-uryQRzLKnpch2HjsIr-128" value="reviewId, INT, NOT NULL, AIK" style="shape=partialRectangle;connectable=0;fillColor=none;top=0;left=0;bottom=0;right=0;align=left;spacingLeft=6;fontStyle=5;overflow=hidden;whiteSpace=wrap;html=1;" parent="m-uryQRzLKnpch2HjsIr-126" vertex="1">
          <mxGeometry x="30" width="310" height="30" as="geometry">
            <mxRectangle width="310" height="30" as="alternateBounds" />
          </mxGeometry>
        </mxCell>
        <mxCell id="m-uryQRzLKnpch2HjsIr-129" value="" style="shape=tableRow;horizontal=0;startSize=0;swimlaneHead=0;swimlaneBody=0;fillColor=none;collapsible=0;dropTarget=0;points=[[0,0.5],[1,0.5]];portConstraint=eastwest;top=0;left=0;right=0;bottom=0;" parent="m-uryQRzLKnpch2HjsIr-125" vertex="1">
          <mxGeometry y="60" width="340" height="30" as="geometry" />
        </mxCell>
        <mxCell id="m-uryQRzLKnpch2HjsIr-130" value="FK" style="shape=partialRectangle;connectable=0;fillColor=none;top=0;left=0;bottom=0;right=0;editable=1;overflow=hidden;whiteSpace=wrap;html=1;fontStyle=2" parent="m-uryQRzLKnpch2HjsIr-129" vertex="1">
          <mxGeometry width="30" height="30" as="geometry">
            <mxRectangle width="30" height="30" as="alternateBounds" />
          </mxGeometry>
        </mxCell>
        <mxCell id="m-uryQRzLKnpch2HjsIr-131" value="userId, INT, NOT NULL" style="shape=partialRectangle;connectable=0;fillColor=none;top=0;left=0;bottom=0;right=0;align=left;spacingLeft=6;overflow=hidden;whiteSpace=wrap;html=1;fontStyle=2" parent="m-uryQRzLKnpch2HjsIr-129" vertex="1">
          <mxGeometry x="30" width="310" height="30" as="geometry">
            <mxRectangle width="310" height="30" as="alternateBounds" />
          </mxGeometry>
        </mxCell>
        <mxCell id="m-uryQRzLKnpch2HjsIr-132" value="" style="shape=tableRow;horizontal=0;startSize=0;swimlaneHead=0;swimlaneBody=0;fillColor=none;collapsible=0;dropTarget=0;points=[[0,0.5],[1,0.5]];portConstraint=eastwest;top=0;left=0;right=0;bottom=0;" parent="m-uryQRzLKnpch2HjsIr-125" vertex="1">
          <mxGeometry y="90" width="340" height="30" as="geometry" />
        </mxCell>
        <mxCell id="m-uryQRzLKnpch2HjsIr-133" value="FK" style="shape=partialRectangle;connectable=0;fillColor=none;top=0;left=0;bottom=0;right=0;editable=1;overflow=hidden;whiteSpace=wrap;html=1;fontStyle=2" parent="m-uryQRzLKnpch2HjsIr-132" vertex="1">
          <mxGeometry width="30" height="30" as="geometry">
            <mxRectangle width="30" height="30" as="alternateBounds" />
          </mxGeometry>
        </mxCell>
        <mxCell id="m-uryQRzLKnpch2HjsIr-134" value="gameId, INT, NOT NULL" style="shape=partialRectangle;connectable=0;fillColor=none;top=0;left=0;bottom=0;right=0;align=left;spacingLeft=6;overflow=hidden;whiteSpace=wrap;html=1;fontStyle=2" parent="m-uryQRzLKnpch2HjsIr-132" vertex="1">
          <mxGeometry x="30" width="310" height="30" as="geometry">
            <mxRectangle width="310" height="30" as="alternateBounds" />
          </mxGeometry>
        </mxCell>
        <mxCell id="m-uryQRzLKnpch2HjsIr-135" value="" style="shape=tableRow;horizontal=0;startSize=0;swimlaneHead=0;swimlaneBody=0;fillColor=none;collapsible=0;dropTarget=0;points=[[0,0.5],[1,0.5]];portConstraint=eastwest;top=0;left=0;right=0;bottom=0;" parent="m-uryQRzLKnpch2HjsIr-125" vertex="1">
          <mxGeometry y="120" width="340" height="30" as="geometry" />
        </mxCell>
        <mxCell id="m-uryQRzLKnpch2HjsIr-136" value="" style="shape=partialRectangle;connectable=0;fillColor=none;top=0;left=0;bottom=0;right=0;editable=1;overflow=hidden;whiteSpace=wrap;html=1;" parent="m-uryQRzLKnpch2HjsIr-135" vertex="1">
          <mxGeometry width="30" height="30" as="geometry">
            <mxRectangle width="30" height="30" as="alternateBounds" />
          </mxGeometry>
        </mxCell>
        <mxCell id="m-uryQRzLKnpch2HjsIr-137" value="reviewScore, TINYINT" style="shape=partialRectangle;connectable=0;fillColor=none;top=0;left=0;bottom=0;right=0;align=left;spacingLeft=6;overflow=hidden;whiteSpace=wrap;html=1;" parent="m-uryQRzLKnpch2HjsIr-135" vertex="1">
          <mxGeometry x="30" width="310" height="30" as="geometry">
            <mxRectangle width="310" height="30" as="alternateBounds" />
          </mxGeometry>
        </mxCell>
        <mxCell id="2c5nBVZ5A8PJ-XaKH1z_-2" value="" style="shape=tableRow;horizontal=0;startSize=0;swimlaneHead=0;swimlaneBody=0;fillColor=none;collapsible=0;dropTarget=0;points=[[0,0.5],[1,0.5]];portConstraint=eastwest;top=0;left=0;right=0;bottom=0;" parent="m-uryQRzLKnpch2HjsIr-125" vertex="1">
          <mxGeometry y="150" width="340" height="30" as="geometry" />
        </mxCell>
        <mxCell id="2c5nBVZ5A8PJ-XaKH1z_-3" value="" style="shape=partialRectangle;connectable=0;fillColor=none;top=0;left=0;bottom=0;right=0;editable=1;overflow=hidden;whiteSpace=wrap;html=1;" parent="2c5nBVZ5A8PJ-XaKH1z_-2" vertex="1">
          <mxGeometry width="30" height="30" as="geometry">
            <mxRectangle width="30" height="30" as="alternateBounds" />
          </mxGeometry>
        </mxCell>
        <mxCell id="2c5nBVZ5A8PJ-XaKH1z_-4" value="reviewFeedback, TEXT, NOT NULL" style="shape=partialRectangle;connectable=0;fillColor=none;top=0;left=0;bottom=0;right=0;align=left;spacingLeft=6;overflow=hidden;whiteSpace=wrap;html=1;" parent="2c5nBVZ5A8PJ-XaKH1z_-2" vertex="1">
          <mxGeometry x="30" width="310" height="30" as="geometry">
            <mxRectangle width="310" height="30" as="alternateBounds" />
          </mxGeometry>
        </mxCell>
        <mxCell id="CpBTHu7pFJ8_8jRN4DaD-52" value="&lt;font color=&quot;#009900&quot;&gt;/* csv-file with 2&#39;000&#39;000 reviews. Each INSERT or&lt;br&gt;DELETE counts up or downin the table &#39;game&#39;&lt;br&gt;Use the following instruction to import the date correctly:&lt;br&gt;SET `reviewFeedback` = REPLACE(`reviewFeedback`, &#39;&quot;&#39;, &#39;&#39;)&amp;nbsp;*/&lt;/font&gt;" style="rounded=0;whiteSpace=wrap;html=1;fillColor=none;fontColor=#ffffff;strokeColor=#005700;" parent="btX9GJ8fYtFLpP8O-0uu-5" vertex="1">
          <mxGeometry y="181.46000000000004" width="340" height="68.54" as="geometry" />
        </mxCell>
        <mxCell id="eBqKPvb9ERlrnAuT2_BX-2" value="" style="group" vertex="1" connectable="0" parent="1">
          <mxGeometry x="1865" y="672" width="320" height="200" as="geometry" />
        </mxCell>
        <mxCell id="SrimqY8IVKDhNXtefk8D-106" value="tbl_emplSalary" style="shape=table;startSize=30;container=1;collapsible=1;childLayout=tableLayout;fixedRows=1;rowLines=0;fontStyle=1;align=center;resizeLast=1;html=1;whiteSpace=wrap;" parent="eBqKPvb9ERlrnAuT2_BX-2" vertex="1">
          <mxGeometry width="320" height="150" as="geometry" />
        </mxCell>
        <mxCell id="SrimqY8IVKDhNXtefk8D-107" value="" style="shape=tableRow;horizontal=0;startSize=0;swimlaneHead=0;swimlaneBody=0;fillColor=none;collapsible=0;dropTarget=0;points=[[0,0.5],[1,0.5]];portConstraint=eastwest;top=0;left=0;right=0;bottom=0;html=1;" parent="SrimqY8IVKDhNXtefk8D-106" vertex="1">
          <mxGeometry y="30" width="320" height="30" as="geometry" />
        </mxCell>
        <mxCell id="SrimqY8IVKDhNXtefk8D-108" value="PK, FK" style="shape=partialRectangle;connectable=0;fillColor=none;top=0;left=0;bottom=0;right=0;fontStyle=1;overflow=hidden;html=1;whiteSpace=wrap;" parent="SrimqY8IVKDhNXtefk8D-107" vertex="1">
          <mxGeometry width="60" height="30" as="geometry">
            <mxRectangle width="60" height="30" as="alternateBounds" />
          </mxGeometry>
        </mxCell>
        <mxCell id="SrimqY8IVKDhNXtefk8D-109" value="emplId, INT, NOT NULL" style="shape=partialRectangle;connectable=0;fillColor=none;top=0;left=0;bottom=0;right=0;align=left;spacingLeft=6;fontStyle=5;overflow=hidden;html=1;whiteSpace=wrap;" parent="SrimqY8IVKDhNXtefk8D-107" vertex="1">
          <mxGeometry x="60" width="260" height="30" as="geometry">
            <mxRectangle width="260" height="30" as="alternateBounds" />
          </mxGeometry>
        </mxCell>
        <mxCell id="SrimqY8IVKDhNXtefk8D-110" value="" style="shape=tableRow;horizontal=0;startSize=0;swimlaneHead=0;swimlaneBody=0;fillColor=none;collapsible=0;dropTarget=0;points=[[0,0.5],[1,0.5]];portConstraint=eastwest;top=0;left=0;right=0;bottom=1;html=1;" parent="SrimqY8IVKDhNXtefk8D-106" vertex="1">
          <mxGeometry y="60" width="320" height="30" as="geometry" />
        </mxCell>
        <mxCell id="SrimqY8IVKDhNXtefk8D-111" value="PK, FK" style="shape=partialRectangle;connectable=0;fillColor=none;top=0;left=0;bottom=0;right=0;fontStyle=1;overflow=hidden;html=1;whiteSpace=wrap;" parent="SrimqY8IVKDhNXtefk8D-110" vertex="1">
          <mxGeometry width="60" height="30" as="geometry">
            <mxRectangle width="60" height="30" as="alternateBounds" />
          </mxGeometry>
        </mxCell>
        <mxCell id="SrimqY8IVKDhNXtefk8D-112" value="salaryId, INT," style="shape=partialRectangle;connectable=0;fillColor=none;top=0;left=0;bottom=0;right=0;align=left;spacingLeft=6;fontStyle=5;overflow=hidden;html=1;whiteSpace=wrap;" parent="SrimqY8IVKDhNXtefk8D-110" vertex="1">
          <mxGeometry x="60" width="260" height="30" as="geometry">
            <mxRectangle width="260" height="30" as="alternateBounds" />
          </mxGeometry>
        </mxCell>
        <mxCell id="SrimqY8IVKDhNXtefk8D-113" value="" style="shape=tableRow;horizontal=0;startSize=0;swimlaneHead=0;swimlaneBody=0;fillColor=none;collapsible=0;dropTarget=0;points=[[0,0.5],[1,0.5]];portConstraint=eastwest;top=0;left=0;right=0;bottom=0;html=1;" parent="SrimqY8IVKDhNXtefk8D-106" vertex="1">
          <mxGeometry y="90" width="320" height="30" as="geometry" />
        </mxCell>
        <mxCell id="SrimqY8IVKDhNXtefk8D-114" value="" style="shape=partialRectangle;connectable=0;fillColor=none;top=0;left=0;bottom=0;right=0;editable=1;overflow=hidden;html=1;whiteSpace=wrap;" parent="SrimqY8IVKDhNXtefk8D-113" vertex="1">
          <mxGeometry width="60" height="30" as="geometry">
            <mxRectangle width="60" height="30" as="alternateBounds" />
          </mxGeometry>
        </mxCell>
        <mxCell id="SrimqY8IVKDhNXtefk8D-115" value="emplPercentage, TINYINT" style="shape=partialRectangle;connectable=0;fillColor=none;top=0;left=0;bottom=0;right=0;align=left;spacingLeft=6;overflow=hidden;html=1;whiteSpace=wrap;" parent="SrimqY8IVKDhNXtefk8D-113" vertex="1">
          <mxGeometry x="60" width="260" height="30" as="geometry">
            <mxRectangle width="260" height="30" as="alternateBounds" />
          </mxGeometry>
        </mxCell>
        <mxCell id="SrimqY8IVKDhNXtefk8D-116" value="" style="shape=tableRow;horizontal=0;startSize=0;swimlaneHead=0;swimlaneBody=0;fillColor=none;collapsible=0;dropTarget=0;points=[[0,0.5],[1,0.5]];portConstraint=eastwest;top=0;left=0;right=0;bottom=0;html=1;" parent="SrimqY8IVKDhNXtefk8D-106" vertex="1">
          <mxGeometry y="120" width="320" height="30" as="geometry" />
        </mxCell>
        <mxCell id="SrimqY8IVKDhNXtefk8D-117" value="" style="shape=partialRectangle;connectable=0;fillColor=none;top=0;left=0;bottom=0;right=0;editable=1;overflow=hidden;html=1;whiteSpace=wrap;" parent="SrimqY8IVKDhNXtefk8D-116" vertex="1">
          <mxGeometry width="60" height="30" as="geometry">
            <mxRectangle width="60" height="30" as="alternateBounds" />
          </mxGeometry>
        </mxCell>
        <mxCell id="SrimqY8IVKDhNXtefk8D-118" value="validDate, DATETIME" style="shape=partialRectangle;connectable=0;fillColor=none;top=0;left=0;bottom=0;right=0;align=left;spacingLeft=6;overflow=hidden;html=1;whiteSpace=wrap;" parent="SrimqY8IVKDhNXtefk8D-116" vertex="1">
          <mxGeometry x="60" width="260" height="30" as="geometry">
            <mxRectangle width="260" height="30" as="alternateBounds" />
          </mxGeometry>
        </mxCell>
        <mxCell id="CpBTHu7pFJ8_8jRN4DaD-49" value="&lt;font style=&quot;&quot; color=&quot;#009900&quot;&gt;&lt;font style=&quot;&quot;&gt;&lt;font style=&quot;font-size: 12px;&quot;&gt;/* csv-file with 15&#39;000 entrys&lt;/font&gt;&lt;br style=&quot;&quot;&gt;&lt;/font&gt;Use the following instruction to import the date correctly:&lt;font style=&quot;font-size: 9px;&quot;&gt;&lt;br style=&quot;font-size: 9px;&quot;&gt;SET `validDate` = STR_TO_DATE(`validDate`, &#39;%Y-%m-%d&#39;) &lt;/font&gt;&lt;font style=&quot;font-size: 12px;&quot;&gt;*/&lt;/font&gt;&lt;/font&gt;" style="rounded=0;whiteSpace=wrap;html=1;fillColor=none;fontColor=#ffffff;strokeColor=#ffffff;fontSize=9;" parent="eBqKPvb9ERlrnAuT2_BX-2" vertex="1">
          <mxGeometry y="150" width="320" height="50" as="geometry" />
        </mxCell>
        <mxCell id="eBqKPvb9ERlrnAuT2_BX-4" value="Text" style="text;html=1;strokeColor=none;fillColor=none;align=center;verticalAlign=middle;whiteSpace=wrap;rounded=0;" vertex="1" parent="1">
          <mxGeometry x="1195" y="804" width="60" height="30" as="geometry" />
        </mxCell>
        <mxCell id="eBqKPvb9ERlrnAuT2_BX-8" value="" style="group" vertex="1" connectable="0" parent="1">
          <mxGeometry x="190" y="260" width="628.24" height="590" as="geometry" />
        </mxCell>
        <mxCell id="eBqKPvb9ERlrnAuT2_BX-6" value="" style="rounded=0;whiteSpace=wrap;html=1;" vertex="1" parent="eBqKPvb9ERlrnAuT2_BX-8">
          <mxGeometry width="628.24" height="590" as="geometry" />
        </mxCell>
        <mxCell id="eBqKPvb9ERlrnAuT2_BX-7" value="&lt;font style=&quot;font-size: 15px;&quot;&gt;&lt;b&gt;&lt;u&gt;To use LOCAL INFILE, you must configure the following.&lt;/u&gt;&lt;/b&gt;&lt;/font&gt;&lt;br style=&quot;&quot;&gt;&lt;br style=&quot;&quot;&gt;&lt;div style=&quot;&quot;&gt;&lt;br&gt;&lt;/div&gt;&lt;div style=&quot;&quot;&gt;1 -&amp;gt; Open the context menu (left-click) on the desired connection in the MySQL Connection Overview.&lt;br&gt;&lt;/div&gt;&lt;div style=&quot;&quot;&gt;2 -&amp;gt; Edit Connection.&lt;/div&gt;&lt;div style=&quot;&quot;&gt;3 -&amp;gt; Add the following configuration in the Server Connection Manager under Connection -&amp;gt; Advanced -&amp;gt; Others.&lt;/div&gt;&lt;div style=&quot;&quot;&gt;&lt;br&gt;&lt;/div&gt;&lt;div style=&quot;&quot;&gt;&lt;div&gt;&lt;u&gt;&lt;b&gt;&lt;font face=&quot;Courier New&quot;&gt;DATA LOAD LOCAL INFILE CONFIGURATION&lt;/font&gt;&lt;/b&gt;&lt;/u&gt;&lt;/div&gt;&lt;div&gt;&lt;div&gt;&lt;font face=&quot;Courier New&quot;&gt;OPT_LOCAL_INFILE=1&lt;/font&gt;&lt;/div&gt;&lt;div&gt;&lt;font face=&quot;Courier New&quot;&gt;secure-file-priv=0&lt;/font&gt;&lt;/div&gt;&lt;/div&gt;&lt;/div&gt;" style="text;html=1;strokeColor=none;fillColor=none;align=left;verticalAlign=middle;whiteSpace=wrap;rounded=0;" vertex="1" parent="eBqKPvb9ERlrnAuT2_BX-8">
          <mxGeometry x="10" y="10" width="610" height="150" as="geometry" />
        </mxCell>
        <mxCell id="eBqKPvb9ERlrnAuT2_BX-5" value="" style="shape=image;verticalLabelPosition=bottom;labelBackgroundColor=default;verticalAlign=top;aspect=fixed;imageAspect=0;image=data:image/png,iVBORw0KGgoAAAANSUhEUgAAA3kAAAJUCAYAAACote+JAAAAAXNSR0IArs4c6QAAAARnQU1BAACxjwv8YQUAAAAJcEhZcwAADsMAAA7DAcdvqGQAAHQOSURBVHhe7b3trzTJeZ83X4LkHwj83RGSIA4cO8s9yD524pgJE36QAwSxaHgjQwNBPlIA2dpElKys7DCKkj22YngfS46JRIy9iqPI0Jh+EaxHkOBgxUjiS0geii8StXz4shRFEIKEQPqkj52+q6tq7qq5q6ffZqam57oW1z7T1VXVNTVzqvt3es45m9/93d9tfvu3f7v5+te/3nzta19rvvrVrzZf+cpXmi9/+cvNl770peaLX/xi8/z58+YLX/hC89Zbbzl/4zd+AxEREREREU/k5z//+WgoC3lMsplkNMlqktvefvttl+W+8Y1vNL/zO7/TbCTgvfLKK4h4Qr/tm9/RvOObv83c98or39m8553vaN75nu809p1PGePYMbjn9c73NN9p7JvilDEs5ne+p3nnO9rn0/rN32aXjXm+Y+fG1S++Ry7vkNdm7HPus/b5CC75nCdrvXfx5A56j/LaVGn+2l3LenPNfud73rns+eHS627F/uZv/qYLehu5gycFAAAAAAAAcJ1IppNPYsodvY2kPUIeAAAAAADA9SKZTj7GKT9+t5HPbxLyAAAAAAAArhfJdPLze/Izehv5HyEPAAAAAADgepFM97nPfc79MpaNfG6TkAcAAAAAAHC9SKb7zGc+4z6yuZGkR8gDAAAAAAC4XiTT/eqv/qr7UwsbSXpDQt7jV/+/5r/88Y80/+nrvzhKaSNtAQAAAAAA4DRIpvvUpz7V/Pqv/3qzkT+mNyTk/YUf/5Xm3//vP9j8iR/8ydb/q3ny6k8OUtpIWwAAAAAAADgNkuk++clPNr/2a7/WbOR23pCQ9x//yC80L/3A/9H83Ke/2vzCZ7/W/PRHnjff/D/9tCs7prQFAAAAAACA0yCZ7hOf+ETz2c9+ttnIr9kcEvL+o7/+rPn3vu/vN//k/33e/Mn/9ieab//Rn2n++eNXnD/94bea9/zIB91+S2kLAAAAAAAAHZvNxoWyErJP6gxFMt3HP/5x98tXNvKZzSEh70//jz/TvPi9H2j+/I/8o+Z//xefdo/f+YM/0Tz5/r/XfMvf2DX/7BNfbH7sZz/R3L33A26fVtraPGvu24Fv7u0Q+Pzpk/aJPWmePvcFNfHs3k165337TC7N8+bpkzCe1idP25JKef60eVLr6woAAAAAcAYkxP1L//K/Yga9vn0lJNN97GMfaz796U83G/nM5pCQ96d+6B8373jl/c73/9wnmm/+oX/QvPuvvdG87yffjOU/9FO/2Pyzjz9vXnrv/xbLRGlrIyHvSfPkiXXB7wNgjWHAhRQV7Nrtp5dMeW48mybJypceU0L3OhPqAAAAAAD2WGFuSsATJNN99KMfdb9hc3DI+5P/3U83f/wv/ZjzP//hf9D86M98JG5rv/fHnzX/9GNfSMqkrU138X9/3wa9PAHInbL7+zrDgYytmjtl3R28ws3QSiDkAQAAAABY6FA3NeAJkuk+8pGPuN+wOTjk/YlXf7L5Y//V69Gf+tBnmiev/J2kLPij//TDzcM/fDNuS1ubcPEv/+qPPEpwCeX7cPDsXn0cMaYaX+fp/uOTOjDabVr83a+u/tM0hKh99kcx5ZjpcSJm226MEmblzuSTPJTp0Hi0fTYeV98aoyLpUx+7b+7657U8R+nHRu+fdXMVtrvXwPdtzvfQ8eXH8cUAAAAAAFdGCHdTA54wKeS99P1vNH/0/keif+YHf7x5/z//SFIW/GPf9TebX3nrt5qX/vJTty1tbfYX+xLG4oW6XPS70JOFgYgul8fthX5o7H5Wzgo9h21Ck+fJz/5lx2z7M8OcChkHoeSgbXe82I+MUaWS/XMf2F4T56pE1zYezgWqdB7suTu2zxpnNyeH48zqJ9vdcUaPTx7HRgAAAAAA18vFQt7d936g+SPf/lp0+9f/z+Z73/9PkjLtX/37P9u8/sFfdI+lrY262FdhpS/0hDs3xVA2pM1BMMrGEet7+8KEr++qFNtaY1SBybyL19de4dpYodZj7C/Ob7Lds680zuJYjvU1YXx+DGbwBQAAAAC4EkLAk3/147FMCnnv+J73N//mt/1Q9OGnfqF553/zNCnT/tvf/sPNR55/vfl3/+Jrrq2Nvoj3H9F81l68xwBWCgO+rqt0LAgYbaS8N+RZQaXMc7kTOCrkdG0koIR/feHg9nu6u2ddKDIw+lwm5BnjHDz+/r6Gja/DzX0b9orPHwAAAACgUiTM5aHOKhvCpJD3x7/7x5p/41v/WvRv/vS/aP7Dv/Q/Nz/0Ez/b/Jm/8qPJvuAP/8Sz5kf+4S+4tjbZRbu/67a/O6P2y77kjldo1xMEetvsg0EXFNJ9vXeI2iC6360/olhqm4+xRcbz5L65b93nkxHtNX7ekqDT9t/9ds2uz7gvCVV5v3r72D5rnHouNMf7Gj++PfL6HR4TAAAAAKBe+sJc374Sk0Lev/Ndf6v5pj//A9Hv/JE3mu9+/Sebv/dzH26+73/56WRf8I/8hb/a/N+f/pJra5NftEtIyENP2N8FCPfRQBeOdEgoBYFSmxb1Mc7+X7zSenCbSI5R2G+2zcco+LHlfQ9un5G303cqk326n76569vXUpwjqbcvD8Vyd25fr6+vnmPqbfX62T+DCQAAAABQL3Id2xfiZJ/UGcqkkPdH/+LfaP61b3lv9F//c9/f/ONf/nTzg//rP2ruvv19zcvv+7vJ/ljvPd/n2laNCxkEBQAAAAAAuE4mhbz/5Pv/TvNNf+6vNH/4v/ivi37Tt3zvYVnbRtrWjLvLlPyMHgAAAAAAwPUwKeT98me/2Pyp7/lbzb/1bf/DKKWNtK0L9TFOPu4HAAAAAABXzqSQBwAAAAAAAHVCyAMAAAAAAFgRhDwAAAAAAIAVQcgDAAAAAABYEYQ8AAAAAACAFUHIAwAAAAAAWBGEPAAAAAAAgBVByAMAAAAAAFgRZsj7vd/7PURERERERLxCCXmIiIiIiIgrkpCHiIiIiIi4Igl5iIiIiIiIK5KQh4iIiIiIuCIJeYiIiIiIiCuSkIeIiIiIiLgiCXmIiIiIiIgrkpCHiIiIiIi4Igl5iIiIiIiIK5KQh4iIiIiIuCIJeYiIiIiIiCtykZD3Hd/xHYir0XqP43X46quvIiIiIq5O67qnz8VCHsDSfP3rX/ePzgch77qVRRAAAABgTRDyYFUQ8nCshDwAAABYG4Q8WBWEPBwrIQ8AAADWBiEPVgUhD8dKyAMAAIC1QciDVUHIw7HedMh7/rR58uRp89xvzuN58/TJptncP/PbV8BSz3/Recx4dt9sNk+apyfpHAAA1gohD1YFIQ/HehjyfFg5dtG+xIV9Xx+yb9OOQ7l4flownDx/+mQf8Kb0e6zNgmONDOlzqTpzkKB3yv4BAGB1VBfy3EVNdiXz7H7gBZe6GHqivu3pLj6sfUNPzO47qfv2F/1OtR7zqS8srpCrCXm7bfqe2u7seufw8aG5u3toHvPHU5U+2ud09/CYls3t90QehDz3dXXf3D85cvfk1F9/ef+y3c7rosvPYs/hWXOv7zadem6WYsg4l6ozi+4bD5c89QAAwHVRX8jLL67cyfPJkRNodoEh2/5s6AJe0lbq+qA34MTcBcT7ttWeZ/fp9lk5+cXEdXMNIe/x4a59T22bnSrbbdPts7p0AHP9bZvt3V3z8KjLriPkyde8rA/yzaX8G0JP5RtObj3wd/t8SI/rid+OH69z7WRN68rvn+3buSVKfT0n34ySMutrXZeVjpesV7Le+e1SfbM/1UaNXzSDRnKnKZubdr1M50661d94y8bi/+3qdyZzVdovyD5f5pT6flekUMccU/5c2sLy2PU8hfalfrPyMM5kbPu6gtSP70cAAIAjVBjynjbP1MlMLrTun3Yn9fb0mn03M4Q7dSGTEPb7zYC/SDAvohLkeEb7QHJC1hdF5QuU4xcm+nhdIN3Xty+eXPUxY3G7jAuMFVB/yHtsHnT4yfV3wbrXxgc/H5AetqF802x3PeUH/ejj7ZptLJf6Mp799l0bNmMYGzMW17fX13mUu5XhDmUoax93ITe092Nz+yUYhj734zr6nFx5z5weMQ156mteBxf/9bVfe1r811f3tZOtQWGfa6f604/D/lhv3959IynpPxCOUzhe+9CtmfuO/CcPesbn2nVrTbI+yIYbl1qT3HNQ/XgOAogeu+sjmztNGKMek65vzpWxP3sOyRgiQ+q0xHlrKdUR9NjVPLn56+vX1d/PY/eNw/Jr6tBjAgAAOEKVIa87Wbcnu3CS0yc7faJTj91HOtuTd3ISzE+Skax/X3qA7DcuaDrSi4X0oqhwgWKVh7H44v2Y80Dr0WOOj6eMZX/Mi96ZXJjqQ54LJKW7dl0AC6HGhSEJST7cxLAj4UkCU6nc9aOOIfVceReciqEseTxyLKGvpA+5Q+nr6mNoQxB0/fqgJmX6cRyP9Zz846VCnv76cl9X/sI9KffoMv+11gXQYLbGWI9jWfc1nAQoXT/i1wvZZx3PVdHrohq/Vf9gHB5XPxu/Q82J4mjIy5+H61+NRY8hr5+XH9vvi4vHLdWRx/mY8jqCVc+s418Ps9/C663rWfv1MQAAAHqoNOTJxUl3knPXKsnJzV/k+DoxwATkAkdOjiHkmCdFdaHUd9Ls25/vk22rz7DdV56c1MWesely3Ufed99Y3PP3x/G71sJVhDwr7Fj7XHhpg41VLtt95QfvKaOfvF3eR95331jCdl4WHudlemzWfqu9buNUoW+GOuS5b5Bkx3HhJf9aEnSZtV8o1QmPD9qpr02rz2I7jXyDSL62275CnVL9Un+ybY5Bxjcz5Lm+VR9hf/6v3z14f/zGmSevJ5Tayr/WmKzHfWP3xV09P3+lfh1HXm+NCu8AAADHqDbkxZNkeKxOfl24k5Oj339A2GdfkBRPzAcU2gt52zBeq9w6Vqk8MKS81Ids943FbyYXGL7k2qn/45pyR6pw10mHm7A9NeTp8nx/X3mpD9meEvJa5S7g9sGXuX7U8w91dRvrsS5bWB3yDu6e67vfyddOS/g6cxvd19LBNbhuZz1W/97vk0D3kdFnqr5DH6NwPI+Ernv5OHfs89j40v3JpwH0GPIgFbACVpibvI9s2x1LtkN5qf6x/e459AUqIa1zcOyueF/ebRSfS297Y/50/YPX2/3YQf9rmgRpAACAHuoNeZrsROm225NhPOHJtj4zqvrJydqhTqR5vwaufRaC9j8/MeCiKGyXyrN+9vR8XPPggmP8WA4vMPzmlXPdv3il5yOSOuCUgk/cTvvZ2/NxzTCeQh9HxxK2zbKur4M7dq2u37zcfFx6Tr7OQh/XTL5eHPK1ZQWujvCJg3i3T55n0H+txXbW41jWfQ0f3D1UZfkv4jCP53d1+9J1y6wfj5/vV2uMbpP3GfHzpMYX50bCph5bS9iX7A9j0WMS8vLSfnksYTOOtVXXC6g6emzmmLoW++fSPsHi2H2Z02ib1Ldeb6HYT+F8AAAAUOA6Q5474ekLiu4EGE+M2cVGF9T2++OJMj+hFi5g8vbxIzNJ+zx4ecJ2qTw81v0XysNh4wWHvhBJ6h4ZS+kCYwVcQ8gTu6C3fw1cgJJ9LrCE8jx4+fZhu1QeHuv+C+UhNMnPzsn20F+8Yh6zr0z97F44VnI83abvcRxPa1K+0M/kQUq+hvQQv7lUCxLm1pKKSndQAQAAClQX8gYx9YQ34oIFrpNrCXlYj4S8Hkatmf6bbRcMVvquWfmu45Xh7jxmd3EBAACOcJUhT07kU68j9hcBnDTXCCEPx0rIAwAAgLVxnXfyAAoQ8nCshDwAAABYG4Q8WBWEPBwrIQ8AAADWBiEPVgUhD8dKyAMAAIC1QcgDmAkh77qVRRARERFxbVrXPX0uGvJ+67d+q/nyl7+MeJX+5m/+JiEPEREREa/eRUOeXCj/wR/8AeJVKu9fQh4iIiIiXruEPEQvIQ8RERER1yAh75K+9f7mXe96f/OWtW+SP9+8stk073r/W8Y+PCYhDxERERHX4MVD3lvvf1ez2byref9b9n7nkmHo519pNsf6kuO5P7IePDK+qS4c8n7+FRXw5Hm+8vMHdY7pXo+edsf2X7OEPERERERcgxcOeW8173/Xu9pjvqv/7tPid7yOmB/Ph75Xfl7VWcIln5cb4yvNz4ftiSHvliXkISIiIuIavGzICyHHClXveqV55V3dXbR3uX+9Ibi4UOPLQtukXVdX7m4d1gnHkpDp9/v6ybhcHW9eZhw/v8slx47B0Kjf26cObK6eel7WncUk1HUf2+zq+rt7bn/bh5S5Y6bP3bwDqNsk/bT7rX3SJnkOrWo+apeQh4iIiIhr8KIhT0JRFw66O3oxuLigkG3rMOTq70NQDFNJuy7odCFL9a/70oFG6rxSCF9O6S8cs3D8pM6A+slxpP7+OSeBMXlerTLubHz7uVR1dMCSbR0cta5/v0+3023CWMN+a1/2HA7GULmEPERERERcgxcMeSp4tdtJSEnCT2Fb3y1qdW2Terp/9VjXCf3ovkN5XqZDW+n47b4Y4HTAKdXPx6KP2bcvCZCdyV1DMQ9YRuByQTKOqRDyYht/zFDWt8+V5e3rd2jIe+utt9DQmitEREREPL+XC3lG8On9GGPftlk+IOTpdn3Hz8us/UEfbJLQVarf12fv8Q5D3qA7efl27FP1p+slbQh5QQk0kELIQ0RERKzHi4W8g1DSF8TMkJOGqPcffPxxQMhrQ4gZxPLjybY+Xun4al96d3DIeKVOGK+/yxYCUjaeZF/wWMDq25bHS4Q8N0++n4P29UvIm064m4d4a1prBCIi4qW9UMjTAWxvDH5ZqOnq+7t9ITS4QOHLQoBK2g0IeVYfRrn5i05KbVvlLl4aYAv19VgO6qiwlI8nmRtdR7UJYbPVjeUgcOk5lV+g4tvqelaQC2XWvvaxC6BhnK7vwzrlx5eVkDcdLnavW16/aTJviIhYqxe7k4cjzMNgQTNcXtDDu7V1S8ibDhe71y2v3zSZN0RErFVC3jU4MOR1d8UuGfTU3UFx0JjrkZA3HS52r1tev2kyb4iIWKuEPETvoiHv2X36sdX7Z37HBXj+evPSS683z/PHC8LF7nXL6zdN5g0REWt10ZD39ttvuwtlxGtU3r9LhLznr7/UBrv7Rse6Z/fp9lk5UbDTcLF73d7s67fbxm/EbHft9uNrzYsvvtY8WnUNed8jImKtLhryAK6dJULe6y+91LxeSlQSuOIdPh/8fAh7/T6Ubxp3469ULiT96OM9a+5judR/3o5nv/1SGzaTu3qx7pGxHMG62H0x9i2+2Lz2mO5f1JEX566+jGu7S8p327ZsTD/X4IC56Q0rYa68L772aNfrc+zrc8xsTJvNttlZ9XrdNdvwvgzjGzlOQh4iItYqIQ9AsUTIeym7i7enC2AhNLk7frLhw1YMU/JRTwlipXLXjzqGD2bP2/8k0B2EsrhfPx45Fr9Zwgx5+mLZXZRPuRAf6NgQ4epvm+2LKny6shfH9XMNDpibvrASg5DbboNRFowHOfb1OWben9yRG9u/9JG/J0eOk5CHiIi1SsgDUCwS8kqhSIctwQWqNqxZ5bLdV94Gsf1dDNHoJ6DLdR95331j8ZsljoY8d9dEXVC7C+wwdn03RYJXV77dPTavxcdWu9Dfvp7o7jRZ/Ydjh37a8e1ea0OdvzMld/G2r3XlMu7Hdl/oMx3ja81rcsfP7wtjM+uHY8Xy1jAv1hhd/2Pm4Ni4jLmRPjL7Q54Vzrt+45jUXbFkHtxzHfj6DHnuQf98D95fyTz4cSfHCs9F6ocyr/Sn+03aqddTSchDRMRaJeQBKJYIeffJxycVY4PV0PLAkPJSH7J9ypCX3GkxAl+4wA4X0+5npdRj17a7ME9CVbirpC/OS/2H7aQsDQfFj+vJGORYsl+NoXgHKdTPxnxw3FBfH//oHJTaFcYVj+n3GfaFFfcRVgk6+R28+BzVYzeO/fh2W/84GcPU5+7r6zZ+270XYh86FKbzX3zP6DG4ssIYw7aXkIeIiLVKyANQLBHyyr94pecjklawKgautJ89PR/XDOMp9HF0LH6zhBny2v6TuyRhn78Qj/uc7QW1ddGtH+cX2q4fI0S4cqP/0C6rH0KMCwJ9/ZTGMKV+Xtc5cA6OtSu1DfsMB4UVF7za48Wwtw9C7i6oC1JdqOqbb/c4Gb+vXxqzNf68j1JdazuMTe8Lj/W/un9n9pxaCXmIiFirhDwAxRIhT+iCnrpA3Kcp9VHLPHh5wnZf4Er6aS2Uh8M+879IZegvXjGP2YMZ8vQFtL5A1hfXWl1uPc7byXbfBXuoZ5nXz/txZf5OUl6u+z5WP78LVeon3196PKRdvl1qoxweVtI7XF24y+56xXryvhrx+pTqWPWH9FHa7htT/m9oV5CQh4iItUrIA1AsFfJujd6QJ7q7QCEIdAFg/5E6r3XRnTxO2x189O5Y/9rSRXwoz/YnHwfU7Y7Vd2Mxwt9Cc2C2y7fl8UEIS+0LKy/GO3et1nHa8cSf9Wu3t/Hn/uRn6vxzT8Yw9bkX6vaWp8ca93HNI++hVkIeIiLWKiEPQEHIm8bRkNfqLrBD4JGL6fYiOtxxPAhQfY9juzS4hI9dHv5ij9ZsLEmfhfL4s2jS53bbleftjtWXOuFjjsFQbo1R99/3uK9dXr81mZtQR9kXVvQvTTn8BSQqyLntLhyF+vp4R1+f/Dlaj4NWWalcyuKx1HvGOkZelo8xtPUS8hARsVYJeQAKQt40uNgdqAQ+fWesEie/fvnHUW9M3veIiFirhDwABSFvGlzsltV3+Kxf3lGDU18/eW7HPtK4ZnnfIyJirRLyABSEvGlwsXvd8vpNk3lDRMRaJeQBKAh50+Bi97rl9Zsm84aIiLVKyANQEPKmIXOCiIiIiMtqXYsOkZAHoCDkAQAAAEANEPIAFmJKyLPqICIiIiJOVSDkASwEIQ8RERERL61AyANYCEIeIiIiIl5agZAHsBCEPERERES8tAIhD2AhCHmIiIiIeGkFQh7AQhDyEBEREfHSCoQ8gIUg5CEiIiLipRUIeQALQchDRERExEsrEPIAFoKQh4iIiIiXViDkASwEIQ8RERERL61AyANYCEIeIiIiIl5agZAHsBCEPERERES8tAIhD2AhCHmY++qrryIiYkFr3UTE+QqEPICFIORhrlzEAADAIYQ8xNMpEPIAFoKQh7mEPAAAG0Ie4ukUCHkAC0HIw1xCHgCADSEP8XQKhDyAhSDkYS4hDwDAhpCHeDoFQh7AQhDyMJeQBwBgQ8hDPJ0CIQ9gIQh5mHvRkPf2B5p3v/sDzdt+cxK9fbzdfODdm2bz3jf99sKMHf+b7202m/c2JxoNACwMIQ/xdAqEPICFIORhbjHkuUDSBqSgBKUlQpnmxCHv7Q+82wc8H/b08/G++wNdS1c3lr+7ccXSt6qbBzRp49rrejKWvnYyr6cKnQCwKIQ8xNMpEPIAFoKQh7lmyHMhRQeaN5v3hvByNSGvHXMIaxqjvgt4uqyt894Q3lT5PjR2vPle1b+u29tOAqcxLgCoDkIe4ukUCHkAC0HIw9xiyMuCUBdO1N0pH1refO9hWdf+vW0wzMoF2Rfqi+o4x/vywbOnj4j5HFoOygthUMjrJtvSTgVhva+3nWz6O4AAcFY+9rGP+UeHWPsIeYinUyDkASwEIQ9zzZDXxpEY6PKApsNLggpLUi8GJx2Gun5jl8X+Sn0JA/sofSwyr18cQ0u2L7kjl/ev6/a1E/jIJsDZ+f3f//3mW7/1W5sPfvCDvmSPlMk+qaM5S8h7fGju7h6aR2vfEOe2x/PLa+YUCHkAC0HIq9QLnuTtkLfHBZQQ9qxAlPzsngpmsZ76eGLePt8+2lfLsW1P8W7ZwPYO2RfH06qCmdx1THKa7qennYOQB3ARrKBXCnhCb8iTdVe+vre7pHy3bcuOrcd6zT7V+j+33yWsYQxT7Rv7lOel28yZF2mrzy+bu+bhsbRv02x3R/aF8r73cdb27uExqTtVgZAHsBAXCXm7bbKo5AvJWZWFaolFNjhkcSy55FhmtD8W8jr83TgrICV36WaEvEF9tRzbDpSC1EF9ddcwp9R3W3Lwc3W6brGdh5AHcDF00OsLeMLRkHe3bbZ32UV2u310PT7H+j+33yWsYQxT7Rv7lOel28yZl7ytbG+2za64T4W5fJ9su3/73se7ZquDpGwvdB0nEPIAFuLcIe/x4a4Ndn7x8e626fZZzRe5uR5dHFXdXD2WueOa0d4MeW0ISe6ChdCSh5c82By7k5cHKgk7uv3RvoSePjQH7TxGubtbqcvaOtYvXolY5bqs1M5TvMsIAGchBL2+gCccD3kPza49z4U7G/INvu1DtrbHb3KG88Rj83AXyjbNXXtOlPoP8s1BX2bffVHnzqS89WD9z44h4yv1FfTPJ/ajtrtzuW/b+9y0E8bglFCxb5fcbdLt/PgO5q1UHtr4snTM+TGNscfxTXleU19zY17989u/3jL2dE6S90Ioy/fJN+AlrPny8vtY9b+wAiEPYCHOG/JkUbMWfq8sLHEhu8Ci7RfZw5PVkbG4vr2+TlUneVfeM++Z9p08CVKq7xiqJLD5Mn8nKv6yFPfLUaxglt31klAW+m3LdRg63penp489hTt0hQCW/NKXcEexUPcgpEm9OJ62fqFdR8+dQwA4GxLu+gKeMCTkxYvgsJ2XH9Q3HrdrR1zz5eI7tt+Xu6Dl7qCk5Ulf2qS81Fepvtp249s/j+4btT3PTTt2DP7cGJ+bs9DOjUvVDfNWKi+O2Tqm3p+VH+wb8rxadZvRY/TbVllsa+xz+j79MffnOX+dENuoerKt+nKfTpI21vOaoUDIA1iIs4Y8t6CoxSqxsCj6Rehg4SuVFxfEAYt2fDxyLKGvgz6sxbE0PuNx8fkZY8vKD/uaG/LWgbtDd4KPRR78PN4YJKDyUU2Aq2BYyNtfBLs1OZT7dX1/US3680G+ZofHetsq1+eZvH7YtspLfYXtUh233Z1ver/JmO/X9eaMwSoL7axy2e4rt8ac18/b5eX5vryeO86EuZBt19YYY6gX6ur9Vj+6fn59ktdV5eb7OPbTKtcmcsyFwp5AyANYiLOHvIPFprBPts+9aOs+8r77xhK2s7IqT/IDXHPIa2Ned+dx0VAld+LCzw6OxN2BnNgWAM7O0JAX12Zd3rcu5211vVJ72R6z/uvyUl9hu1Qn6VeFvYN9BXU9q/9jY7DKQjurXLaHluf7h5bn+/J6sp0/r1De10a283LLvB99LKt9sW8j/On+rL6cvt1B+XgFQh7AQpw15LmFoHBHKV88wsJilcv20PJ8f195qQ/Z7htL2M7LQjtdbrUJ5m11vVJ72R46toGuO+QBAExncMgzy7tQFD9xkdfJzxd6n9E+/STH/tzqykvjCMco9lWqr/pty7fxZ9LkUzJy7J7nph07hrEf17TmrVSe9bO355M/aj7K+4Y8r1bdZvQYlXlbd3et0K/uz2on2wdtvKFc/tXPp1R/ggIhD2Ahzhvy/GKXLZL7z/Mbi2K+eOhFxiqfs2gX+jg6lrBdKkvKexZsqTNywd+fPKS8cJJ3/fJxTQCAucwLef5xu4bHT3Ko+uHTH8nPh/e2V+fS8LE5q70yHmPQLwcJ5+y83+48FMtD4Ot5btqxY8j7dec/q52UWfNWKg+PVd/peXNfHs65ydhDf97Rz6t1/Gvequvldb3d69ae93dZW30tkPdbmsdgLO+up8w+ZyoQ8gAW4twhT9QnDWf4jlCy4Fxg0daLbFL3yFjCdqksL0/6blX1xy/46uRROsm7+oQ8AIC59IY8RJylQMgDWIhLhDysW0IeAIANIQ/xdAqEPICFIORhrlzEICKirbVuIuJ8BUIewEIQ8hARERHx0gqEPICFIOQhIiIi4qUVCHkAC0HIQ0RERMRLKxDyABaCkIeIiIiIl1Yg5AEsBCEPERERES+tQMgDWAhCHiIiIiJeWoGQB7AQhDxEREREvLQCIQ9gIQh5iIiIiHhpBUIewEIQ8hARERHx0gqEPICFIOQhIiIi4qUVCHkAC0HIQ0RERMRLKxDyABaCkIeIiIiIl1Yg5AEsBCEPLeU1v2WtOUFERMTTKcw5BxPyABSEPLTMX/NbgpCHiIh4fueegwl5AIpzhjzpB6/HW0Weu/X+RURExNM59xxMyANQnDvkWeW35jXMQ/6a3xK8TxEREc/v3HMwIQ9AQcg7v9cwD/lrfkvwPkVERDy/c8/BScj7Q3/7/2ne8R3fY1bsk5AHa4GQd36vYR7y13wyz19vXnrp9ea537woA8fC+xQREfH8zj0HZ3fyPtX86T/7XWbFPgl5sBYIeef3GuYhf81tnjevv7RpNn3BiZCHiIiIA5x7DjY+rsmdPLhdCHnn9xrmIX/NTVxoum/uX3qpeb2UnAh5iIiIOMC552B+Jg9AUUPIe3GzaTbRbbMz6pzVx9eaF198rXm09i1g7wImx1bz8eJrj+XyE44zf80tnr/+UvNSm+6e3W/cvxEJU2qs7k6fK7tvnvkqTfvo3m9LP7HuxgdGH8heb/sO++5jY2mblSfHVKHTGovfVWLOCQYRERGnOfcc/If/7Hc1/+rffbP52U99kpAHUEXI00Flt202JwxYg7xgyNtuXmxeewzbu2a73XX/WuUXDXnyUU0fpp7dq/DUBbAYyHxY66qpcmmzT217QrkPZ0l910/3EdG06T4wOuIxy2PpY84JBhEREac59xwsn8589ScIeQCO6kKeCzTd3bzH117c34EJIccHm9e2Unas3rbZvtiVb3ePzWvxsT+W1Mnb/d6+nhjvmOX1jo2jJ3z1LWDhuafl+zlJyv0YLhLyksAkYSq9AxeDlN5Wwe7Z/ZG7baV+8nIhb+9sQ1+pD79ZYs4JBhEREac59xy8/7gmIQ+gupDngpIVXOQOX7h71V7Ex6DWW88HMinTj13/WXDSgSkJT4V6+Tjc9r7ebmuFtc6+BWznQmOru4N3pDwZ57Lmr3lO+hHLTveRzd5gJXfh5I5bGwpDmQtoWeCTfaV+8nLBKhNKffjNEnNOMIiIiDjNuedgQh6AooqQp8OCDi0+SCX7rGBzrJ71OG/j9MEsr2/V03WcEgZVHz0OWsBcMG37y8JeUn4whuXMX/Ocg49Mxo9Tqrt6LS4MqmAl2/f39/uf4cuCV6xfDGilj2vmZUL/WErMOcEgIiLiNOeeg42Q95fNin0S8mAt1HYnL+rCVfgIpd8O4UzXH1LPeqzLckttS3USj4e94QtY4WOaobzvOcw0f81zDu+IqUAlgc/NwaZ5SQJdHtaSX8Ai1bu6Sf1iyPOPfX3RhbusLIa5vrEUmHOCQURExGnOPQenIe/jn2zewd/Jgxum6pCnyuPHOPNgM6Se+bgLY+bHPqVODFeFetlxZXsbfhOm+7k+FTwz+xawF62PY8q/pXI9hgXNX/NbYs4JBhEREac59xy8/8Urn2o2f+hvf7j5z76bj2vC7VJtyGuNP4fW+uJ2Www2R+v1PfbtnKrf0OfhL17x9XQ/znAHT7WL+1L7FjD9S19Kvwwm+eUvsUw8/lHRoeav+S0x5wSDiIiI05x7DpY/ofAf7H6Fv5MHINQQ8m7Na5iH/DW/JXifIiIint+55+D9xzUJeQCEvAt4DfOQv+a3BO9TRETE8zv3HEzIA1AQ8s7vNcxD/prfErxPERERz+/cczAhD0BByDu/1zAP+Wt+S/A+RUREPL9zz8GEPADFOUKetMfr81ax5gIRERGHaV0LDjGcg619QyTkASjOFfIAAAAAYN0Q8gAq4RIhz6qDiIiIiNerQMgDqARCHiIiIiLOVSDkAVQCIQ8RERER5yoQ8gAqgZCHiIiIiHMVCHkAlUDIQ0RERMS5CoQ8gEog5CEiIiLiXAVCHkAlEPIQERERca4CIQ+gEgh5iIiIiDhXgZAHUAmEPEREREScq0DIA6gEQh4iIiIizlUg5AFUAiEPEREREecqEPIAKoGQh4iIiIhzFQh5AJVAyENERETEuQqEPIBKIOTdli+88MJorX4QERERtQIhD6ASCHm3pYS2MRDyEHFRHx+au7uH5tHat4Sn7v+c7rbNZrNxbnfGfsTKFAh5AJVAyLstCXk4yDVdKOPplfeLDyPi3cOjXU+c+t7qa6f3lepNPe4Qhxx/tLtmu7lrHh6tfQPMxyHbSX/S/7bZhf2/99g83LWv30Gb7PVc7PmdSD2+2se6QgVCHkAlEPJuy8VCnnXyvMUTai3PeelxcHGEg83DSLu93an9mVPfW33t9L5LvHdPcUzpMwlhY01D3OPDXTvGu/0dwXzMbnvbbNs68bUslp15fsdY+/hWrkDIA6gEQt5tSchbqUvPPa8lDja/I6SU91G8w+eDgn5vWftdW+kzlMtHFf1dJr+d3inM9m23rv+H7b7MBRt1XAk8YV9y5yqYjMs/N9deAk8oDx+htI9/+Px0P8b4wrGd6fN3Yzza1+FrsNvu53TXjmu3a8cW5k4/bnUhsN3etX3Fct//o3xsNAT3UObb7c1fM1+3d8xZXas8tPFlo94nM16Lo+8RNBUIeQCVQMi7Lc8V8swTZPFErR1zobC/4NIn9/0Fg3FB5seYXBQVxmU9h4My39/h8zt+ERF1daaM1ZflF5lygWbWE8ddiCWvL2JBCQbu/ZPcwZP3mnrvhfdUfG8V9vv3s/11UnhP6n3yOLy3ZVsCij6u278/rgs//nFn9zUS2ruveXlerp1at9zPyxlfL/FxXz/G+OSxVvc5tK9MqdcFtnZOt35Mvk95zfbtZM79c9PjUWOI9ZNxBa3XbOTzL5W7fia+T+LjKWPpe49gSYGQB1AJhLzb8iwhzzxBlk7Ufts59kJBXZTox3EMxgWZK9fHKIzL1cueQ6nMPY+RFxG+D6erM3SsxjFCH7HfUr2R85uPE/GY7r3rw55//4ZvKMRvIoT31rH9ed9970m9L68XtmN5956PAS3Xam+OS/rxX7d6X3g8tJ982yof2leu7A+vRVwD5HmHf1W92M/I53XQvlAm233Pv6986vtE95H33ftaHHmPYFGBkAdQCYS82/I8d/KME6Q7qeqTtHEC7e1TbecnZ+tx3i5cuOyyctefNS7rJF94XtbxXL/ZOHX9sG2W9YzVOka+r1QvLx9bF3GQ8v7teQ+F8mP7h5bn+/J6YfugvfU1rurrbfP5+K/TmkNeeC3a8L3/Rs62HXNbrtq5b+7E9a8zfiIgq7d9MI5pjWPomMP20PJ8f195qQ/ZHvRaFN4jWFQg5AFUAiHvtjxPyAtl6gRp1c8d0qds5/1Zj/N24YLsWHA60DrJG88r70e2redtHe+gbOBYwzHyfaV6efnYuoiW8l5xd4nUtnvvdF8n6Z3jAfv7PoYX3u+5el/sX+2TbfXvNvzMmTuWD2qhfjau4t1tfVde9h0cf2A/+bZZPrAvQ/m5PPmFK/qTArIdf+7Omu/w3A7678Zx8GkE8zUb+fxL5Vk/ewe8Twp9DBmL+R7RfaOpQMgDqARC3m25WMhzJ8304kifOA9PkKUTtXbihYL1WJeJRy5arAuFg+fQhi6rrOtv5EVE2LbKBo41HkP2Sd148VGqN3F+EXvt3lf7u0BqXXDvS7Uvf19b+43y8P4MP/u3Dyh7476t+mUbYjhePG73ng99W32lx1eBQbXL7+6Yxy/1Y40vbJfKh/Rl6L6mjX7iOmD2IXOk1ze1T4dbbTI+3/+QMYftUnl4rPoe/D6Z/FoU3iOuj/R1x1SBkAdQCYS823K5kNeanWD3J/6+E6RVX5nVGXShYD3O+um9KMrruv3WczDK8mPH/ccuIvx2KFP9Dh9rerGRXACX6mXHGnwhhnjr8jWBeFSBkAdQCYS823LRkFez13RBxsUjYv3ydYp4VIGQB1AJhLzbUkLbWK1+qpeQh4iIeFYFQh5AJRDyEBEREXGuAiEPoBIIeYiIiIg4V4GQB1AJhDxEREREnKtAyAOoBEIeIiIiIs5VIOQBVAIhDxERERHnKhDyACqBkIeIiIiIcxUIeQCVQMhDRERExLkKhDyASiDkISIiIuJcBUIeQCUQ8hARERFxrgIhD6ASCHmIiIiIOFeBkAdQCYQ8RERERJyrQMgDqARCHiIiIiLOVSDkAVQCIQ8RERER5yoQ8gAqgZCHiIiIiHMVCHkAlUDIQ0RERMS5CoQ8gEog5CEiIiLiXAVCHkAlEPLW4QsvvDBaqx9ERETEKQqEPIBKIOStQwltYyDkIeJJ3W2bzWbj3O6M/XN8fGju7h6ax6HlJYfUH9snXs5beK0qf44CIQ+gEgh565CQhyf1VBcWpwwCeB7lveFfw81m2+xc+a7Zbu6ah8es7lKW3o9j36dD+lnqWGMccvxr9BTP6xbmakh5JQqEPIBKIOStw8VCnnUCWeyk8tg83LUXgrov6bu9OLx7eNzX08fz+0MQcPWSsnBReQKXet5L9TPFsccu1Z/zHHTbpB8VBOb0j5c3f/1k+xJfm2PfR0P6GdvnEl7imOd2qed46dfq3Fb+HAVCHkAlEPLW4VWEPNfPttneqe/wF8vkePndgHZ7u8vqhH0ncNHnfeKxlqzhOZTaSvkpgwCez+Q1lq/b/Tdmkm/qhLpxfxryH7b7duHO7uPDXSxL68u6YZX741nHOShvPXhv+m9G+f132609NnWsZIwH/fm6YX94z7v2+jmE52wf//A56X7suRs0huRrUF47vS/Ut16ntp7f3o8t9CXPYb//sH72HA++ebd/vfrnduBrJXUL/WvNY1ntrOcVn7s4ch6tY/s6h2Pw+0t9u+NfToGQB1AJhLx1eK6QN/gkqNt7pa2czHftiS3euQt9y8f2DgKcOlHmWuOMGheZeX29LY9j/XC8E12EDL4Ted7nEC322WqWWxctnf0XrNnzEwf3X7gokrZ4Gf3rE1+DfDuafU2Hev41jxfksh5Y7cM64epnX4OhH9eucBz/vksu/K3j6HJ3LGNsoY7bvz/Wrn2Px+M602O6sRrPofvosm+bH9897uvn2NwV2raPZT1O2rrywvzlx1L1pM9t+9y7fW25VT8+l+xx7/H25Ydzq+qGx+ZcFPoP26Hs4FhD52HmPFrHDnVdH9YcDnhOF1Ag5AFUAiFvHZ4l5Mm/Q0+CYTsqF/v+gkZfhKj68SSZlbmLeH9BEu09jnFCzOvH7fQEqi9+0mP0nazzOfF1ggf9FI4XPfNzCNtJWdpnWl6aB1W/8Boffzywf7d9ZN7xfOrX0trW5e3rGMO5s33t+trnbcL7Ia+v+8nbOI8cR6vLS21iefe1sv/mSqbV3hqL6yf9pkZy/KH95NtWWWgrj2Mgka8jdfwh86faxGAifel/S2PLH1vHOza3YqlPvV3s39dzGscqtcuPI86ax8Kxw9gnP6fzKxDyACqBkLcOz3Mnb8RJULcP9WK/Iy9mRDmBSt9meNFK3yNPlHl5aK/3uXLreRpzkpv3Uzpe9NzPwbfT9a0+Q7nVR6n+2Mfy75D+h8w7ns/89Tl4vUaWh235V9/t0uV5ff0+yffrenm7Y/VKbQ7aFt6TVvvie3rEuljqJ9+2ykJbty3fVJLH7fFDHauPQrm7g7cLbX1f7XrtviFjHdc6Rul40Z6v975+wvbR/rXqWKV2Zvm8eew0jp3XLZVXokDIA6gEQt46PE/IC2UDToKZ7u6Sa7M3fnxQtXcXDA+lPuW4/iRfPK6qI4Z6ef2+cusYeb0D1Zzk+/r60ceLXuo5tPb1aZXn+63tMY91mbZU3jfveD7z1+fI6xXvyAZL7bNyt46UypM7R4XjuPJ9aIz9JXVapR/ra0hvq3+34ePn7kJfhVJnOpbDsfp6+d3vg+MP7Cffdhba+v2yLR+1jB+jL82f1XdbJj9THdo+PrQBr+3rIKz6unFbHsev2/Lx+ue2q3P0tSr1rzWPNWIeWifPo3XsnR679Z4d8JwuoEDIA6gEQt46XCzkZScUUV9MDD4JJkrdrE64oDk4WXb9xX3qQiQ5MR60C2bHCvXkXxUESifK+FxD26UvQvqOFz3zc9CGY7m6Iy4sYjtjW48hLz94PLz/o/OO51Fem/Y1i3ddQ5l+vbRJffW1nr2+YTt+ZLs1/kyn1UfWzjyOlIdPBbQmv9QkMxz3oE44RjxW956Nfcb3pTIZi5oj1S7/RoV5/FI/1vjCti4vHKvbZ5WF+q3Jc1b1srXiIKz2jC0+R5kz63hD5lb3U3qtwmPVVxxjtHAsq132PKKu7pR5NI6t65Tes1bfsc/LKBDyACqBkLcOlwt5rcUTx4iTYN7fwcnHXxjE71aqffEioQs7sd9wIZEcLzuhioXxuKDiy45eOHkXvwg56McYv3jW57Cv6/aHsjEXFrpd3k+reRGm6+SPj/U/cN4Rq/XgPY14/QqEPIBKIOStw0VD3ppcw4UUF4OI65Ova1yhAiEPoBIIeetQQttYrX5WJyEPERHxLAqEPIBKIOQhIiIi4lwFQh5AJRDyEBEREXGuAiEPoBIIeYiIeDbzjx/rbT6ajHjVCoQ8gEog5CEi4tnsC3mIeNUKhDyASiDkISLiHPWf9oh/lkPCW/wzF+HvqKV/FuXuYZduhz+x4YPfg//TG2LydyN9mdMfzxwDIp5VgZAHUAmEPEREnKwLXfu/zbhrg9rO/R1D9fca9d06/bi0z/Wpgl3825nd30dMAl+sn4/B10HEsykQ8gAqgZCHiIjTDX+YPgt14a5a1O8PwUzXtUKeVafY1hgDIp5dgZAHUAmEPEREnK8KWnkY0xaDmnpcqhPv6BltnYQ9xEsqEPIAKoGQh4iIk22D1vbh0W/Lz9zJz99lH6vM6uuPVibbIbTl4S1uS7/h5/vS+odj8PsJfIhnUyDkAVQCIQ8REacb7p513oWw5QLWvlzfgdv5X6gS6sbt7BevmHfs5G7eQb99YyDkIZ5LgZAHUAmEPEREvEol8G139j5EPLsCIQ+gEgh5iIh4LYa7fp3cpUOsSYGQB1AJhDxEREREnKtAyAOoBEIeIiIiIs5VIOQBVAIhDxERERHnKhDyACqBkIeIiIiIcxUIeQCVQMhDRERExLkKhDyASiDkISIiIuJcBUIeQCUQ8hARERFxrgIhD6ASCHmIiIiIOFeBkAdQCYQ8RERERJyrQMgDqARCHiIiIiLOVSDkAVQCIQ8RERER5yoQ8gAqgZCHiIiIiHMVCHkAlUDIQ0RERMS5CoQ8gEog5N2WL7zwwmitfhARERG1AiEPoBIIebelhLYxEPIQ8SI+PjR3dw/No7UPO08xR8z7aeyb19222Ww2zu3O2H9FCoQ8gEog5N2W1YW80olvqQuNW7lgudULs1t93rUpr4O/SBXvHh7temPktT2uNUdz523JeT/XWKSeev9tNnfNw6NRb44ney67ZnuK8V5IgZAHUAmEvNtysZB3cFKdeGItnfimnFDVd0Od2938E7N2bl9H2z82D3ftuIceQ/d3quc5td+lxyZ96Nd2s212oXzu+HCm+UVquy1fewf1RsprdNxTzNGSfc7ta2j7vJ5shzWiFkvPpcaxzlAg5AFUAiHvtlw05C1xIdB34hvR/+PD3f7C37vbtttLjVOc29ex9m7/ttneDQzLur+anqe45HjEvD8J9LK99HFwghLyChep8vrEYO7f1/41e9juQ3v8iFpSvzV/bfPXW213a0DW7ujxs3G7ffI1GNrsx5b0r0KtddyDMj1uN6ZwXPnGjn+cjFWV5WNN6rWGfoPhWEnbTvujgPL6qToPvn3oK+4rPOfivPpvWvl67u6u2V93/Hj319WRfUb7OOZMf+z9PGTvycLzyJ/7wWsV2upy/2/5NVH9J+Wtul9n4fixrOd9UKkCIQ+gEgh5t+XJQ15yMursvUhy9fVFlS73/cvjvJ0+pruYsMpbB/RTywWLjEPKd+0xk/Z6nuN21l8baPfj7bQvnK3np+vb/XbHTy9IpL45d319JGOxLmA6Dy5G4/MOZf4iLpTn+/W2PI7HbNX1/b+9x8ajynvWzV9yB8+/RmFbz7me5xDY/fsrlof6ob1VlvS5P5b7Bs/Q42vdvvA+bnWfDlB9BKU8fFIgP+6RscjXzLYt647flhvP3X1dxf71WEfMUd42zrOq679W9/23xj4L8xe2g8lclPqS7Z7+XFvZJ+NR8186Zm5eL3mupeNmzz2U533l5fLvwWti9T/gtTooT9uU3wf1KhDyACqBkHdbLhry2pNOvHAWrROgeWHhy+PJa39Sdye10I9r13NhoMt0nXzf0H7Ei12wqLp6zvI2+XGSY1rzXhhnsb6qkzw2LgZzw9zJY7OPgRcweixB3V/rwfsk2186ZizX/x47Ng5X5q+dT/26JmuEvBfja+Pb5K9JXh62rbK43b3OSSCTfUOOrz3YJ/36r8u8v9JxzTIJe10/MQiGOQr/5s+rb65K27psTF2rTP7Vz1c/p3yfdTzdl9XGuZ8j9zXdliXfALP6tLTGU9rnlOPK67Q/fjxWfsy83Npv9V/qJ2xb5WbfRl8VKxDyACqBkHdbnutOXnKS0icwfSKUcqu+PqnlbZzqxBza6D6sfX395Puscem+rDbO/bhGX7Ak+7ILS90mH4P1WG/Lv9Y4S/VLj/P6QSnXfY/pw7U9Mpakbs9xSn0cKy/tD9s4QX/xXJrL0pwPeS2O1lEBy2ovlsrNff5rcdeW6zt8fcctlMmasN21Za6dfNOkLW9DsfsGQ96fbA/52jgYhyobU9cqs/aF/dZc9PWVP7b03yCYHPL0cfTrUOxDXh+jXl4/Ly/tD9ul8iH1rDbW+6BiBUIeQCUQ8m7Li4U8d7IacGHg6qmTWr7f1F+Ihb61x/pxx7v8BUsIhVrXNm9TGkOpXl6e77e2rcdWP1JWuvAd0odrP+BCtlSmy0t95Hfm8vqldmEbjytzFu7ghm03h13IiXdJD/bn2+nXcbxbG+qFuurCPNZpy7fxay3cFR94/L594f2Tlfcetw2Eh2NpH0vd9nFYEx4f2oC33frnm47V9W/d4Rs6R8aY7edt3KGP9YbNn56Lg/6lLL5ehf7iPqmXPr+0vbGty/Wx3fp77LjZcw99ZMc4eH75sYr9p8/FfK3EpL+0r/L7oF4FQh5AJRDybsuLhjxVXrowODyplU6gqa5ddvJPf/FKoZ+B44p1j144hH1ST/7tuWCJGhda+uLSuuCQbb0vH2/cHva8k22z376LwW77+NjSsRy+1l35wXapTJfLv+Y8Ga9BqK//zfsL2zjA7r2x/wZF/p5X+47Nuf/miJj+POhe99oe1OneW7E8hKwhx9fm9dV7Kv7cYWv/cQtjyd+L1jcgYrvC17V4bI5Cm7yt1Vcoj8dtvz6Lv3il1Zebc1HoP9SN37QKfYmufjdfcW1JAprVfr8vahy7e5/4+S48j1K5+R4LxzCOVex/wPv5YOxJXz3vg0oVCHkAlUDIuy0XDXnxRBRsT6jysab8hOW3ixcGuo/QVp/USnUy9YnZmQeIQj8Xu2DxZckYo/sLQvuitqsX+8svII497/yY2bbZb9aPPEdz7gb3UbiAybdLZVl5cZ7UhZZTykO7IcfG25HX/3bltV9EgZAHUAmEvNtysZCHeI1K4JPwb+1D5EL/duW1X0SBkAdQCYS821JC21itfhCvRX23Ud9VRUTEZRUIeQCVQMhDRERExLkKhDyASiDkISLizcjH8oY5d56Y55tUIOQBVAIhDxERV60OHEuGjyX6PdXYprjkWC79XPAiCoQ8gEog5CEi4qo9VZBaoq+awtCS81TT88KzKRDyACqBkIeIiHNM/nyJDgn5L7xxF/7bZuv/rt52t/8be/HPjiTt1N+VU6Z/LkX9LTQdKuJ2+nf8wp/XeFC/kKf32L6fw/p2v93x07+VJ/XNMff1kYwl/XMj5tiDrs6UOZ46T+qXGSXlrf65mO8PXKUCIQ+gEgh5iIg4WXdhv7/Q37XhYJf9vUh3kR/+bmUIFe7vF6rH7uJf2mWh4VgoCH8WI6+rt/PHamxHj12sr+okj7uwFOtbhjHLY7OPvvkrjCXo6kyc4/xxcZ6MsWXlsS/XT/7+8HVwdQqEPIBKIOQhIuJ0u4v7gzs6ISyEbdmvy63Hrp6/4xM1QkFeL7TNj9l3rLye/Kv7dGZj7utL96PrB6Vc9z2mD9f2yFisMuux/KvH4fRzXGqbt8/Le8dmvD9wtQqEPIBKIOQhIuJ81cX8kCBgPc7bWbq+wkcM/bbVVm+XHuvtvDzfb21bj61+pMwac+lx3odr3xek/HZeZj222gRLbfW2VT5obIS9W1Ag5AFUAiEPEREn217Mbx8e/bZ8VFHCTPrRveTjhuHC33yctjPNwoPrW7alXAWIWB7ahH1Z+6PHLtb3jw/6NT6umfVxfGwD5i+p77fzMvNxzxxLnZHzFMfmyvdBVr8uh+8P3596vXAdCoQ8gEog5CEi4nS7i/7w0b+7cEHvLuJDuREc+h6r/mIYUu7ULwPRv6zEBQujXLfJy48eW+/P67ea/Wb9SCAqjXlYH8eCl9/Oy/oex75bVR/j50kFNfczgHn7vvcHIW9tCoQ8gEog5CEiIiLiXAVCHkAlEPIQERERca4CIQ+gEgh5iIiIiDhXgZAHUAmEPEREREScq0DIA6gEQh4iIiIizlUg5AFUAiEPEREREecqEPIAKoGQh4iIiIhzFQh5AJVAyENERETEuQqEPIBKIOQhIiIi4lwFQh5AJRDyEBEREXGuAiEPoBIIeYiIiIg4V4GQB1AJhDxEREREnKtAyAOoBEIeIiIiIs5VIOQBVAIhDxERERHnKhDyACqBkLcOX331VUTExbTWGUTEPgVCHkAlEPLWoVyUAQAsASEPEacoEPIAKoGQtw4JeQCwFIS8Ffr40NzdPTSP1r4+d9tms9k4tztjP6JSIOQBVMLthLzH5uGuO1Hl3m23005+c5x6wi1IyAOApRgV8mQtk7V0u0vKd9u2bMoat/DaeFR9vKWPfa7nMuQ5TBrLrtlu7pqHR2vfDTlkfse4RB+VKhDyACrhJu/k1bDALjwGQh4ALMXokHe3bbZ3Kgy4srvruJA95fngEuea0jGnjEXabLbNztp3S17idbxSBUIeQCUQ8tS2+1cuVro7fNvd/u5f/JiKO+l1ZRv9Hc6k3J8US8fJ7irePTz69tO/Y0rIA4ClGB/yHprdQxvqZC1ry+Qu3vZhv/49tvvCerdfN+UukV//Qj+yb+fbuX571uO4nqbjGLSOR7O1OHyqY0gfUse3S84Fpb7jOh/KjPAUnkN4HOtIX91jcy5jO+OYSd/751Q+f6WvT+jL3ZVN6qXnuQe5c6vLYj1rbkrvidx0DPF1j2XWGLK6Vnlo48vS4+fHLLxHDvo4MhbXt9fXOfjaCP1esQIhD6ASCHlq2y3YfrF3P4egHrv6svj7hTzppzsphIXcLdry0aXScfLHYbt4ojtuGvKeNffhpCHePzPK79utQKkcAG6RKSEvro9hO1/jgrKeho92unVP1lS5kPbrn27ftx7n/Q9tF+rn7Ub1UToX+G2zvHCe0PVVv7J/2waKrn5bbvUv48nPNX1jCc+j3XbHd/V6nsuQ8bt+dZDp6a9keB5JeReu9v2KA8cQXqdSeXGM1jH1fv145FhCX7oPV3c/jl37escxXakCIQ+gEgh5aluXW4/l33bxjuHJ2S7Kum6oXyq3+l/AJOQ9u29irmueN0+fPGmePpfiTSx//vRJDH+lcgC4TaaFPP9zeOECN1/v9Lqp1j53cdyWJXf0ZH/ePn+sy8a0C/WDVp1jfci/+vk4jQv0Uj9h22iz23ZBzF3wS50QHEIIcu3UccN4SscJ5uWuH38M3Z/Tj6uvX93+oLzQnzavl48579cqc30UxiDbfeX62E6jn7xd3kfed99YwnZS1gVFc36uVIGQB1AJhDy1rcutx3m7YF4u28cW+1JfE03v5GnkLp3cnQv/ep4/bZ48edpGwFI5ANwqU0NeXPt0uSvb30E6WPvkTkd7oXt1IS+U9VnqJ2wbF/cSere79uLf1ZU7S22ddo5icLbmsu84wbzc9WWcp7R9/Zba9/UXdG173hNDy1w/PWMYWp7v7ysv9SHbQ+fjoGw9YU8g5AFUAiFPbety83H68Yy9fR/b2C/arlz3qRd0t61OeiM9DHlyB09OGiHAZWEubpfKAeBWmRzyrPJsf7IOurVT1kH5169/Vjvrsfxrra/H2vn6yThDP6HO0T5K54JM3XfpPKHri20b+SU2IfQ+PrQBb7tN58bXLT5nfW4JWm3d8XueS9KmMP6s397+gtZYkj7EkR/X1O3Ddqm8OMaej2vm75GxYwnbuqz9dxt/blKOPf0aoBYFQh5AJRDy1LYu73vcLuzxIx5meXbh4cvzP9UQPtq0/4H8JUNeQEKbfFyTkAcAw1g05LWPw1qXroPZhba7o9eunaGd7rfw2FxfB7RLxtka1+Ixfchjf2znsb7jOh/aGEHMKfOizgXZz3SZc6nHperEu6Ni33hL+7J+zfHndQ7qqf6U9nsirZP3494rQ8YQtkvl4bHqO3nOqjy8Pw/eIwd1j4wlbCdl3ddAOFbyel2pAiEPoBJuMuSt0HLIa2Ob+5m7LLzxcU0AKDAq5CEiegVCHkAlEPLWoQ55z5/eu1+00iEhjl+8AgDDIeQh4hQFQh5AJRDy1mFyJ+/Zffz4h7jPbBL4Qnn+EU2rHABuEUIeIk5RIOQBVAIhbx0mIQ8AYAaEPEScokDIA6gEQt46JOQBwFIsEvKsXzhxDi91XER06wchD6ASCHnrkJAHAEtRTcib0gchD/FiCoQ8gEog5K1DQh4ALAUhDxGnKBDyACqBkLcOCXkAsBRjQ57+e3Wb5I+ab5vtXVYubWRfrJ/+fbEH9/fIpKz7w9Sh38O/M1fqr5WQh3gRBUIeQCUQ8tYhIQ8AlmLWnTz5493bnQ9e+yDmgqALX+kfQXflsb764+iiD35dYJN2PhAm+7I/qp60QcRzKhDyACqBkLcOCXkAsBSjQ54PaMmdtDxsuTptSBtaHvaFMldPHcNZ6C/vBxHPokDIA6gEQt46JOQBwFKMCnkufGUfnZSQZYWvuSEv32+Vl+oh4skVCHkAlUDIW4eEPABYitEhT4Wq+LFMq1w+ltn3cc08nEmZBEC3nX0sMyrl1sdC2+2kPSKeWoGQB1AJhLx1SMgDgKUYFfJad+6XpXTebbddWHMBS320Uge4ZJ8PYVbIaw19H/7ildZQX34O0JfF40s5IQ/xrAqEPIBKIOStQ0IeACzF2JCHiCgKhDyASiDkrUO5KENEXEprnUFE7FMg5AFUAiEPEREREecqEPIAKoGQh4iIiIhzFQh5AJVAyENERETEuQqEPIBKIOQhIiIi4lwFQh5AJRDyEBEREXGuAiEPoBIIeYiIiIg4V4GQB1AJhDxEREREnKtAyAOoBEIeIiIiIs5VIOQBVAIhDxERERHnKhDyACqBkIeIiIiIcxUIeQCVQMhDRERExLkKhDyASiDkISIiIuJcBUIeQCUQ8tbh5gc+j4i4mNY6g4jYp0DIA6gEQt46lIsyAIAlIOQh4hQFQh5AJRDy1iEhDwCW4ipD3uNDc3f30Dxa+445p23u0L5222az2Ti3O2N/ySXHiqnW3F7ivXHFCoQ8gEq4upAni6Q/MYp3D49x3+PDXSxP9o1ZWEP/211Svtu2ZaqP3mOpcjGewI19m81d8/Do989QhzzpFwBgKlNCXnFNXNrSej5mnRd1/bFt+xzU167ZTl37h45b9hVej1s+V/ZqPf8xc2Kp28/t6woUCHkAlXBdIS8/Mbbb/gTjTiTJ4il1/QllzMLq6m6b7Z06jiu7i32MOpZst/vcyWvMOEZKyAOApRgb8nrXRFXvpI5dX3X9JdfmIX1Jnc222Vn7jjlo3JwrJ2kdd+5YdPtLPa8zKhDyACrh+kKedWLMT2jesKCOWVh93V17cgoXKPKdye1D6GPCsYaMQ/bN+E4lIQ8AlmJcyBuwJibrtlrH3b7sTo1v9yB3hKReYTteNMf2rWa5ta4+Ng93+3Z32606Rqd9V6mwRo8ahzz/tK6cb+J2Ng/xfBG2Y3n2HJJAreY4ccL5q6Sve/ZzZTCvo7ZduAzzGerI/lCmx5WUq/pB16+E2bxtN//xfWI+34XfZ1egQMgDqITrCnn+oyCyCOqPiKjFXdeNJ7rifsNYN2ub/3vQtu9Yal9cxL2hrts3fWEn5AHAUowKecfWxPaxu/gPF7Pys2hu/d7vT/rx62R+8Ztsu+NJ+1K50W/YtsrzY8gYB/c1YRxmP94wP3mdsD2wn9WeK4N5e31cNe+7Nljtiq+FlFuvnd8OZercnNydjO/l7LFW9+n6mvo+uw4FQh5AJVxbyIvK4igLv3UyjPadTAqquuEk6RbkUD7pWBPGMVJCHgAsxdIhT18A77b+glnayRqeaKyTpe2+cqvfUC+vnz/W20P6mtLWaqPrhfalfkN5XsdyrefKvE7clj5kPOp1kn1hbqPGcazjWnVi3/v3ePKNDK1uXzqe69MYX6h3RQqEPIBKuNqQ5wwLrPxr3AXTC6heWPvUdd3C6xfaWD7hWH37FpKQBwBLMSrkHVsT3bZ8bM2v1aGstB7m5aXtoeUldb05fU1pq/fJYz1/pfZWeV6n6ArPlXmdgzZy/EKYCx7to1AnPNfWLtyF+fV1tLp96Xh5+RUrEPIAKuGqQp4shPrjEGphLP2Ad/Kdxbivx1LdAceyf3B94Dhkn3VCHCghDwCWYlzIO7Imqjpb+ZmkWKbWxtiuNV8ni9vSfr9m7sdQ6DfXrbl5MFH7Bvc1YRz6eNmxY3s9vrxct7XChZSv9VwZlDqF+dnG95h8c0Fem9JrIeXWa6fqZGNxdfK5Dc8plGn1OLO+9tul8V2fAiEPoBKu605e+kPM+Q8nu8U37lMLpl+E9/uMk2IwX4QL5cOPpcZ4sE/td/vS5zNGQh4ALMXYkCcW18SgW+OytTdfE2WNlTLzQtjYDh9FbA2/1MKVW/2G9srwMcOkraiPMaSvsePQ/beGceTt9ZzG8kLbNGSs+Fzp+8373s9bF5hieZiXvM8wxtJrFyy1i4YgqctSF3ufXYECIQ+gEq4r5A1UL5w3IiEPAJZiSsjDK/QGz5WLKyGROYwKhDyASlhlyGvdf2e09B229Lt9e/u/I1erhDwAWApC3u14a+fKpZX5O7hrfcMKhDyASlhryLs1CXkAsBSEPEScokDIA6gEQt46JOQBwFIQ8hBxigIhD6ASCHnrkJAHAEtByEPEKQqEPIBKIOStQx3yAADmQMhDxCkKhDyASiDkrUNCHgAsBSEPEacoEPIAKoGQtw4JeQCwFGNDXvK30My/++V/E6P/lf0P7jc6bpudq6P/Fpv8Jke/PaR9bIeINSgQ8gAqgZC3Dgl5ALAUo0JeFtR2W3mswlqoI+HPBzf9K+eTX0Evf3Nsu2sfD2+PiPUoEPIAKoGQtw4JeQCwFOPu5IW/o5aFsngXLtjuD2FNt4/BTgKfumM3tD0iVqNAyAOoBELeOiTkAcBSjAt5QRX2SmHMLH9sHu4kILbtw75R7RGxFgVCHkAlEPLWISEPAJZiVMhrg9f24dFvS2CTu3Fd4Dv4WGUhpMnP9G232+Yu9jOivZTpu4iIeDEFQh5AJRDy1iEhDwCWYtydvHAHrzMGNRe+9uXuF7IUQp4Z1Ia2t9oi4kUUCHkAlUDIW4eEPABYinEhDxGxUyDkAVQCIW8dykUZIuJSWusMImKfAiEPoBIIeYiIiIg4V4GQB1AJhDxEREREnKtAyAOoBEIeIiIiIs5VIOQBVAIhDxERERHnKhDyACqBkIeIiIiIcxUIeQCVQMhDRERExLkKhDyASiDkISIiIuJcBUIeQCUQ8hARERFxrgIhD6ASCHmIiIiIOFeBkAdQCYQ8RERERJyrQMgDqARCHiIiIiLOVSDkAVQCIQ8RERER5yoQ8gAqgZC3Dl999VVExMW01hlExD4FQh5AJRDy1qFclAEALAEhDxGnKBDyACqBkDfSx4fm7u6hebT2XVBCHgAI1vowRuGkIa/SNfQk7rbNZrNxbnfG/lvzll77G1Ug5AFUAiGv8/HhLp6MxbuHx/1+fWIi5AFAxVjrwxiFKSHvatbQs41l12w3d83Do7VvhCooOrc7u945nDlf8h6J74uanhcupkDIA6gEQp6/OElOXHJyVhcpNV2gFCTkAYBgrQ9jFMaGvKtaQ891fDnOZtvsrH0D7YJz2sduO6/PWc6cu922C72Dn9ex4136vYQHCoQ8gEog5BW+2xpPHo/Nw93+u4137YlIyh+2+7L4MRx3Ug/lvk/fT1e/O4l1JzhfL5ygXNvp3/Ul5AGAYK0PYxTGhbzzr6EHx4lt/H7XZtts1XG7Y9hj2a/BYZ/uxx6ruY5Hu5Cb7D/af/7cZKw954Qx4+15Hmk/+njpc9jusrmTAH90DPo5SX+yfeR5aX1fU0Ne8hqp59b/2uEcBUIeQCXcfMgrniTCCSmrI4/bE0M8QcpHTtw+VV+3yeu77X29+N1LVz7wxGfYF/KeP32iTnSb5snT52FH80SVbzb3zbPmefP0iS7bG9vlSD9PnrYtDykeO/DsPtm/uX/mdwh+LLrvnmMdkDy/9rn57WQMob+k7mGbZDs/vtn2SVOaLptnzf3Q5wXQg7U+jFEYFfLCWnew70RraKK02e9zF+/ysT/XRq2n7qOBhbHEY5f6Mcbqyo11XKuPM7R/bXaM1CnjNcpLc+7D8MG44n7ZHvmc5Jhxf+l5ZSbHMzy2X1s4/kXvjK5QgZAHUAmEvNJJQp38dJ28fth2J478Qr9tf9B/d2JMv8M531LIcyErCQ9tmGiP74JOHlgkcOltK9BYFOr1HrulC4ASLPc8u1fbrt/7NvyowDR0TAFdv6+/vn4P+sjq9bUdQAzCM/oACFjrwxiFk4e8WWuo0uqruO760Kf3hcdD+4nbA9Zx3XZo/9ox+0r9he2+8jFzrsutPnva7rY++JX6joa5PbT7+O+x/aovNyZVxx13wGuHkxUIeQCVcPMhT5/8dbk+EZUe6+28PN+fly98orFDnoQq445SMdhI/TxkDQgeZr0jx27/e6rDloGEHwmEz+7V3behYwro+uGxhNlwxzCU9fVr9eF2ePraDmWJPgBarPUh+Oabb5rlWmFUyLvYGmrsk20zaKgx6n3h8dB+8u2+dVzXHdp/YmFexaH9he2h5fn+vnKrz+Jz0h/R7HleuaVxBPv2u/Go4xzU7XntcLICIQ+gEgh5/mMmxuKf/NKAcCLITxRxu2vT//GWbnsbv9uoTnzuGANPfIZmyCsGBx/msv0Hd96GBg+r3pBjZ3fxUlQI1HcYh44poOurxxIcXc4LZW48csLX+vEV+ohYbWMdeb7ZPmf23K1+ASZgrQ+iBLygtT8ojAt5Z15DE9M2yUcGdZv48cT2sTmWgf2E7fZfcx0P9XRdtz2w/0xXLwsh3ccLx4/XLC/Ned/HNeN4RjynrKz8vPbbTqsvbd9+65iy3ZYffe1wsgIhD6ASCHmd3UlnfxGen9zkoyZSnvygvqhPJPJY9RFOKOlJqDsxhjrpRdAFQp4ay8HHBYcGD6vekGP39Z3slzY+8A0dU0DXtx7n/8q+nFIfgb62Q1miD4AWa33QAe9Y0BPGhjzxfGtoZtLGB4W8n4NA0ZUP/cUrh2MtrONaq+2x/g3zeXVBSvYN6S9sl8rDY91/oTy8nnHu5DkndcrPSZ5DPkfF56U1+hqzP4xV3L/WA147nKxAyAOoBELeOjRDng5HmhAojgWLocHDrHfk2KX9nvhzakrz5wiPoetnbeUY9099WV+/PX04+tq655k+j07u5MFpyNeGPNjl27nClJBXlcfCAZ5VCVsHdwVxlQqEPIBKIOStQzvkdUEmvUPXhY5BgWlo8CjU6z12Sxfk0rDT/eKV7rdqJr9oM3xkc2wY0vUP2voAdqzf3j5a+toOZYk+AFrytcEKdIQ8PJ9y5yy9k4rrVSDkAVQCIW8dlkKekN8Vi+HpWLAYGjyknupfB7fisT35fvcLUczj+jt/z8rHOiAZV1vP6vdYeLT6iNulMrF8lzLn2BwBjCFfG0phbtUhDxEvokDIA6gEQt467At5AHA7WOvDGAVCHiJOUSDkAVQCIW8dnifklX6+bPhdq9NQ67gAzo+1PoxRuMmQx0c8TydzezMKhDyASiDkrUPu5AGAYK0PYxROHvL0RX8tAeAS47iV8BOe56083xtWIOQBVAIhbx0S8gBAsNaHMQpnDXm1SAA5ncztzSgQ8gAqgZC3Dq8q5MkvO/EfqXS/ZKT0S08AYDTW+jBGYXTIk4v4+DFp/ffSts32LpSHX6Pf/aHtUDb0b9U9qL95NujX8bu+9G913P+Wx/RvtPm/T+qPM/xvypX+ALr1nIcds3uOxhj1eEomYxswd0n9cc/FbJscS8/7fl+c26TugL51X1i1AiEPoBIIeevwekKe/y2ZkuhCuDtVyFukX/3zfj2/yROgEqz1YYzCuJDX/XHpJMzIH7Z2F+vqIn23bb+G0vARg5N73NePCgHST2ib/WHrvd1xkr/PJu2sP7gdysM49NjEZHwqvOT1QlnpOWutY7bjToPOvt2uDcIHfSSOnbs5z6XQNj+WVtex6o4ZF1atQMgDqARC3jq8mpDn/txAFpYqvpP37H7/Jw3cnzrg7xtA5VjrwxiFUSEvvxB3F/DthfrBBbpcwKd3fdy+8HhoP/l2nyFMtY93WxVYXN8qFOrjl46Xt3GqQKLrxrLsOeu2fcd07Yz+S+bt3bF65s7tV2OxjpW3Dc9lV2h7UF+pj6v/tfZbfeu+sGoFQh5AJRDy1mEp5CV/gy0EKRe0wglU/wbK9LdU3j/NwlcIY/7fp20Aine3in1qjN+CqfrrH5vC1b9v7p/s+9Ef+4zjCv26PnWwlHEMuSuX1Qv9+U2AGrHWhzEK1xPyQhjKDcFAPhoqj9t6+nj6DlXoL//XtTf2h3LLgzo6GI04ZtJeP5+CeXvZ7pu74vGUB3XUc7Ha9vWZHzevWyrHq1Mg5AFUAiFvHZohLws3z+7lcSm4PG+etqEpuVGVh5qw7frVdUeEIb1P9+fKBvYj5ToAup/xa9u5cjUu1V7fkXP19xvtMfMLRNGYq4NtgPqw1ocxCqNCng8i5kcF9QV7/Ehe+1j2heAS6w3sZ2QQkH628nN/D49dWdbeHUe2Q7n8q0JV3J+NzzQfW3jOQ46p27Xb2zBeF1RDQOx+njE+l+jYuZvxXEpt8/rWvvzffH/fuKTOsbCLF1cg5AFUAiFvHdp38kKAyYKTK8sCjRWo8rKwbZVbfbpd+zuJTySV6bZ5f0P7acNqcnz3PNvQ90z1LehjqWD37L50pzGHkAfXh7U+jFEYF/Ja3QV4+JpV4S2WqXKv/LyclA/9xSuHgcBvH9P1aR87Ob7q14WkfH/sa9+2Cz37fg/2q+P2HlMdu+urCzuxfgx1Uq7uCGqTYw+Yu6R+a3J8Y7+eQ6ttfixt2Jf/m+8Pj/O+Y3n6OmJ9CoQ8gEog5K1DO+QFVNjTwUdjledlYbtU7jd70XXz/ob2c1BvQMhr///0iQS0tu5BW3VBEfV1dagbOj6AC2KtD2MURoc8y/xC/hY89XNWP2N4cm/x9cPZCoQ8gEog5K1DM+S1oeQ+3rKSkCN3sLpQs/+oZaDwcU0VctzdNAk5Zsiy+jTQbcPjWDawn/z4cpcu6ceTbcv47+Uu4LDbeA5+8QpcG9b6MEaBkDfREz9nucPY+xHLJSXk4QQFQh5AJRDy1qF9Jy+9SxXDjYQfVW7/QpYu3Jgfk8zDlFDqM0e3DY/zsmP95HVCENX9CNa2vjM3CD2HY9sCnB9rfRijsEjIQ8SbUyDkAVQCIW8d2iFvpeThDQAi1vowRoGQh4hTFAh5AJVAyFuHhDwAEKz1YYwCIQ8RpygQ8gAqgZC3Dm8q5AFAEWt9GKNAyEPEKQqEPIBKIOStQ0IeAAjW+jBGgZCHiFMUCHkAlUDIW4eEPAAQrPVhjAIhDxGnKBDyACqBkLcOCXkAIFjrwxgFQh4iTlEg5AFUAiFvHRLyAECw1ocxCoQ8RJyiQMgDqARC3jok5AGAYK0PYxQIeYg4RYGQB1AJhLx1SMgDAMFaH8YoEPIQcYoCIQ+gEgh565CQBwCCtT6MUSDkIeIUBUIeQCUQ8tYhIQ8ABGt9GKNAyEPEKQqEPIBKIOStQ0IeAAjW+jBGgZCHiFMUCHkAlUDIW4eEPAAQrPVhjAIhDxGnKBDyACqBkLcOCXkAIFjrwxgFQh4iTlEg5AFUAiFvHRLyAECw1ocxCoQ8RJyiQMgDqARC3jok5AGAYK0PYxQIeYg4RYGQB1AJhLx1SMgDAMFaH8YoEPIQcYoCIQ+gEgh565CQBwCCtT6MUSDkIeIUBUIeQCUQ8tYhIQ8ABGt9GKNAyEPEKQqEPIBKIOStQ0IeAAjW+jBGgZCHiFMUCHkAlUDIW4eEPAAQrPVhjAIhDxGnKBDyACqBkLcOCXkAIFjrwxgFQh4iTlEg5AFUAiFvHRLyAECw1ocxCoQ8RJyiQMgDqARC3jok5AGAYK0PYxQIeYg4RYGQB1AJhLx1WAx5z582Tzb3zTO/eXQbAK4aa30Yo0DIQ8QpCoQ8gEog5K1DQh4ACNb6MEaBkIeIUxQIeQCVQMhbh8WQBwA3hbU+jFEg5CHiFAVCHkAlEPLWISEPAARrfRijQMhDxCkKhDyASiDkrUNCHgAI1vowRoGQh4hTFAh5AJVAyFuHhDwAEKz1YYwCIQ8RpygQ8gAqgZC3Dgl5ACBY68MYBUIeIk5RIOQBVAIhbx0S8gBAsNaHMQqEPEScokDIA6gEQt46JOQBgGCtD2MUCHmIOEWBkAdQCYS8dUjIAwDBWh/GKBDyEHGKAiEPoBIIeeuQkAcAgrU+jFEg5CHiFAVCHkAlEPLWISEPAARrfRijQMhDxCkKhDyASiDkrUNCHgAI1vowRoGQh4hTFAh5AJVAyFuHhDwAEKz1YYwCIQ8RpygQ8gAqgZC3Dgl5ACBY68MYBUIeIk5RIOQBVAIhbx0S8gBAsNaHMQqEPEScokDIA6gEQt46JOQBgGCtD2MUCHmIOEWBkAdQCYS8dUjIAwDBWh/GKBDyEHGKAiEPoBIIeeuQkAcAgrU+jFEg5CHiFAVCHkAlEPLWISEPAARrfRijQMhDxCkKhDyASiDkrUNCHgAI1vowRoGQh4hTFAh5AJVAyFuHhDwAEKz1YYwCIQ8RpygQ8gAqgZC3Dgl5ACBY68MYBUIeIk5RIOQBVAIhbx0S8gBAsNaHMQqEPEScokDIA6gEQt46JOQBgGCtD2MUCHmIOEWBkAdQCYS8dUjIAwDBWh/GKBDyEHGKAiEPoBIIeeuQkAcAgrU+jFEg5CHiFAVCHkAlEPLWISEPAARrfRijQMhDxCkKhDyASiDkrUNCHgAI1vowRoGQh4hTFAh5AJVAyFuHhDwAEKz1YYwCIQ8RpygQ8gAqgZC3Dgl5ACBY68MYBUIeIk5RIOQBVAIhbx0S8gBAsNaHMQqEPEScokDIA6gEQt46JOQBgGCtD2MUCHmIOEWBkAdQCYS8dUjIAwDBWh/GKBDyEHGKAiEPoBIIeeuQkAcAgrU+jFEg5CHiFAVCHkAlEPLWISEPAARrfRijQMhDxCkKhDyASiDkrUNCHgAI1vowRoGQh4hTFAh5AJVAyFuHhDwAEKz1YYwCIQ8RpygQ8gAqgZC3Dgl5ACBY68MYBUIeIk5RIOQBVAIhbx0S8gBAsNaHMQqEPEScokDIA6gEQt46JOQBgGCtD2MUCHmIOEWBkAdQCYS8dUjIAwDBWh/GKBDyEHGKAiEPoBIIeeuQkAcAgrU+jFEg5CHiFAVCHkAlEPLWISEPAARrfRijQMhDxCkKhDyASiDkrUNCHgAI1vowRoGQh4hTFAh5AJVAyFuHhDwAEKz1YYwCIQ8RpygQ8gAqgZC3Dgl5ACBY68MYBUIeIk5RIOQBVAIhbx0S8gBAsNaHMQqEPEScokDIA6gEQt46JOQBgGCtD2MUCHmIOEWBkAdQCYS8dUjIAwDBWh/GKBDyEHGKAiEPoBIIeeuQkAcAgrU+jFEg5CHiFAVCHkAlEPLWISEPAARrfRijQMhDxCkKhDyASiDkrUNCHgAI1vowRoGQh4hTFAh5AJVAyFuHhDwAEKz1YYwCIQ8RpygQ8gAqgZC3Dgl5ACBY68MYBUIeIk5RIOQBVAIhbx0S8gBAsNaHMQqEPEScokDIA6gEQt46JOQBgGCtD2MUCHmIOEWBkAdQCYS8dUjIAwDBWh/GKBDyEHGKAiEPoBIIeeuQkAcAgrU+jFEg5CHiFAVCHkAlEPLWISEPAARrfRijQMhDxCkKhDyASiDkrUNCHgAI1vowRoGQh4hTFAh5AJVAyFuHhDwAEKz1YYwCIQ8RpygQ8gAqgZC3Dgl5ACBY68MYBUIeIk5RIOQBVAIhbx0S8gBAsNaHMQqEPEScokDIA6gEQt46JOQBgGCtD2MUCHmIOEWBkAdQCYS8dUjIAwDBWh/GKBDyEHGKAiEPoBIIeeuQkAcAgrU+jFEg5CHiFAVCHkAlEPLWISEPAARrfRijQMhDxCkKhDyASiDkrUNCHgAI1vowRoGQh4hTFAh5AJVAyFuHhDwAEKz1YYwCIQ8RpygQ8gAqgZC3Dgl5ACBY68MYBUIeIk5RIOQBVAIhbx0S8gBAsNaHMQqEPEScokDIA6gEQt46JOQBgGCtD2MUCHmIOEWBkAdQCYS8dUjIAwDBWh/GKBDyEHGKAiEPoBIIeeuQkAcAgrU+jFEg5CHiFAVCHkAlEPLWISEPAARrfRijQMhDxCkKhDyASiDkrUNCHgAI1vowRoGQh4hTFAh5AJVAyFuHhDwAEKz1YYwCIQ8RpygQ8gAqgZC3Dgl5ACBY68MYBUIeIk5RIOQBVAIhbx0S8gBAsNaHMQqEPEScokDIA6gEQt46JOQBgGCtD2MUCHmIOEWBkAdQCYS8dUjIAwDBWh/GKBDyEHGKAiEPoBIIeeuQkAcAQr42vPnmmwdlfeUCIQ8RpygQ8gAqgZC3Dgl5ACDka4OEuTzQWWVBgZCHiFMUCHkAlUDIW4eEPAAQ8rUhBLoQ6vLtXIGQh4hTFAh5AJVAyFuHhDwAEKz1QQe7voAnCoQ8RJyiQMgDqARC3jok5AGAYK0P4pCAJwqEPEScokDIA6gEQt46JOQBgGCtD8FjAU8UCHmIOEWBkAdQCYS8dUjIAwDBWh/GKBDyEHGKAiEPoBIIeeuQkAcAgrU+jFEg5CHiFAVCHkAlEPLWISEPAARrfRijQMhDxCkKhDyASiDkrUNCHgAI1vowRoGQh4hTFAh5AJVAyFuHhDwAEKz1YYwCIQ8RpygQ8gAqgZC3Dgl5ALAUhDxEnKJAyAOoBELeOpSLMkTEpbTWGUTEPgVCHkAlEPIQERERca4CIQ+gEgh5iIiIiDhXgZAHUAmEPEREREScq0DIA6gEQh4iIiIizlUg5AFUAiEPEREREecqEPIAKoGQh4iIiIhzFQh5AJVAyENERETEuQqEPIBKIOQhIiIi4lwFQh5AJRDyEBEREXGuAiEPoBIIeYiIiIg4V4GQB1AJhDxEREREnKtAyAOoBEIeIiIiIs5VIOQBVMIlQh4AAAAArA9CHkAlEPIAAAAAYAkIeQCVcK6Qh4iIiIjr17oWHKIwpz0hD0BxjpCHiIiIiNinQMgDWAhCHiIiIiJeWoGQB7AQhDxEREREvLQCIQ9gIQh5iIiIiHhpBUIewEIQ8hARERHx0gqEPICFIOQhIiIi4qUVCHkAC0HIQ0RERMRLKxDyABaCkIeIiIiIl1Yg5AEsBCEPERERES+tQMgDWAhCHiIiIiJeWoGQB7AQhDxEREREvLQCIQ9gIQh5iIiIiHhpBUIewEIQ8hARERHx0gqEPICFIOQhIiIi4qUVCHkAC0HIQ0RERMRLKxDyABaCkIeIiIiIl1Yg5AEsBCEPERERES+tQMgDWAhCHiIiIiJeWoGQB7AQhDxEREREvLQCIQ9gIQh5iIiIiHhpBUIewEIQ8hARERHx0gqEPICFIOQhIiIi4qUVCHkAC0HIQ0RERMRLKxDyABaCkIeIiIiIl1Yg5AEsBCEPERERES+tQMgDWAhCHiIiIiJeWoGQB7AQU0IeAAAAAMDSEPIAFoKQBwAAAAA1QMgDWIihIQ8RERER8dRa16JDXCzkIa5F6z2OiIiIiHgtLhLyEBERERERsQ4JeYiIiIiIiCuSkIeIiIiIiLgiCXmIiIiIiIgrkpCHiIiIiIi4Igl5iIiIiIiIK5KQh4iIiIiIuCIJeYiIiIiIiCuSkIeIiIiIiLgiCXmIiIiIiIgrkpCHiIiIiIi4Igl5iIiIiIiIK5KQh4iIiIiIuCIXC3kf/OAHb0prDoZo9YXMZw1a8ztEqy8cpzWvQ7T6Qltr/hCxXq2vY7xurdd5iFZft6Y1L8dcNOR99atfvQmnTrZ4S/M0VObz8vIaXE7m/vTOmWNEvIysb+uSc910p84dIW+CvFGXlfm8vLwGl5O5P71z5hgRLyPr27rkXDfdqXNHyJsgb9RlZT4vL6/B5WTuT++cOUbEy8j6ti4510136twR8ibIG3VZmc/Ly2twOZn70ztnjhHxMrK+rUvOddOdOneEvAnyRl1W5vPy8hpcTub+9M6ZY0S8jKxv65Jz3XSnzh0hb4JX+0b90PuaF154X/Mha98Fvdr5LFnpPPe5utfgimTuT++cOUbEy8j6ti6rP9dVfO02de6qDHkvbDbNC+/70L6ssomv5Y0q87RRvvyGXS86ZB4vMNdXO58lwxxOnctbfw1efiMpe+PltuxU82HN9Znn/9Rzf5E5VV9Hs76WFnLOHCPiZVzy3KLXo2BynTnEY+eGN15Oj5Gtu2dVj/XM57SSpz7XjdJ6rSqZJ8upc1dnyHvh5eblF15o3vchX1bZxNfyRk3mROaofaP2XkwNmccLzPXVzmfJuXN406+B9bX/wunmw5rrM8//qef+4nMq21O/lhZyzhwj4mVc8tzinLu297T/0PteaMPCy80bquyNl9Ptszr3uZ7AU5/rhlp8rSqcs+DUuas05LWTLCk7fBdET7w8Dsl74y9cDvaHF+9DzfvaC5ylv8hqeaMevBlHz1O2381XKPPf5TLrLWv186nn7aBcLqD3c+YuZM12bzQvx3ns6nULTSjjNRBlvt5o5yV8h1XuOL38PjWPyVz4r21Xpr/OZa71vp65S16jrMz9a7y+uu4Cnnruq5rT8Ng6XrI/HNuv4X7/++QOpG875rWYM8eIeBmXPLc49Tqjy+J6tF/PkvOza2Ocm2M/sq/n3JwcI13zDta0vrWuMNbD64tsrG2ASdfXsO/IWFzfy3nqc91Qi6+Vn4fiPLUevi/yuj3vgxlOnbt6Q177r7sYUW/6D+kLDdEolxfg5fYN3b1B2/LwIixoLW/U+GaMhnkozNPRecwe99Vb0OrnM3/eYVv+1V/Q7va/qh/bdQtu76JZ+qbGTb4G2bzH5yzl+3l0i62fs7hWSD9xLgfMXV+Z/Gu9vrruAp567vdzd8E5je1Kx9v3a67h7rXIxnNwjLJz5hgRL+OS5xbnwdpUWM/cerMvj3fkzLXNl+t+EgtrnmtjrGml8tJYS9cXeqzx8cixhL4W8tTnuqEWX6tB85S/L0qvi99eyKlzV3XIi5Ol/20nPqZoZze5b7zcXYzFW67hBXEXEIfHmGM1b9SDN5J/s5XmacA8Jm/QvnoLehXzqffpeUzaSP32ffhGtv+gnlfK9dyGOrp+Xse5/tdAAoY8V7fIlubRzY2fixhC9mvBoLnL+9RlB/v867vwd+lOPffhOVx0Tvu+lnz73jXcandwjLJz5hgRL+OS5xantY6Y65msV0PXtp5ya587ZmEtlO2+cmusef28Xd5H3nffWML2Qp76XDfU4nM7Nk/W+8LtM16XsH8hp85d3SGv1X1XN3y0qOeN5+q90b4Abr98Z6Od5PYiJX5nYkGrfaOW3qBD9+s6+eMTenXzWSofE/KkTAcGXaf0+IRW9xq4+fELZZiDfC50nfA1L6/BmLmz6pSOF17fKw15yXyVnqOuc445VcfrXcOtdvkxepwzx4h4GZc8tzhHryOy5quL9mL9nnODdUzprzSWoeX5/r7yUh+y3TeWsL2Qpz7XDfXoa1Wap1hXvS9ONFe5U+eu+pAXJ9OVdY/N4NZOtPxygfA56Q+9r704ePnlxS/IxFreqNY8dXNTmKf4Zuyfx/2buafeglY/n9kXuLt1L3XzL+7wEYdQHvcbH6fI2sY+wz5eg71xrtK5cHOm7tS7kNB+ze9/VmLI3EmddMGP/Wav0bV+hOXsc5rPW9Km53htu+Ianvd5cIx+58wxIl7GJc8tzt61SSlrUVzz5PztzxHSPrnY3+vWsmzf/uN8xppXWtNK5cW117i+EPVYC30cHUvYXshTn+uGWnytBszT4fui9Los69S5u4KQ16ovruRFaCc03haNdWWi1cXaiS7IxFreqOkt4uw7E9Y86S/c4jzKm70rcxdbPfWW8hrms1sUun3xh5jzuckX1J75lgUhzLOY/GB0682+BtZzK85jukh3+6yyI3NXqpOX530v5Knn/uxzejBvfWuT7rtnDZc2+jj59hHnzDEiXsYlzy1Oa93I1yu3v7twD2X7b3Jl52bdT6u+TnCqb2AdrHmlNa1UHh7r/gvlIXDEserri6TukbGE7YU89blujOZrpZ+3NU+l90VSt7Wiuasy5NVuTW/UNXi183mihfAS8p42PNPry9yf3jlzjIiXkfVtXXKum+7UuSPkTZA36rJe7XwS8pyrfU8T8lbjnDlGxMvI+rYuOddNd+rcEfImyBt1WZnPy8trcDmZ+9M7Z44R8TKyvq1LznXTnTp3hLwJ8kZdVubz8vIaXE7m/vTOmWNEvIysb+uSc910p84dIW+CvFGXlfm8vLwGl5O5P71z5hgRLyPr27rkXDfdqXO3aMi7Ja05GKLVFzKfNWjN7xCtvnCc1rwO0eoLba35Q8R6tb6O8bq1XuchWn3dmta8HDMJeZ/73OcmhzxERERERES8vIQ8RERERETEFSmZ7sMf/nDz+PhIyENERERERLx2CXmIiIiIiIgrkpCHiIiIiIi4IiXTLfLbNREREREREfHyEvIQERERERFXpGS6j370o82v/uqvNptf//VfJ+QhIiIiIiJesZLpPvaxjzWf/vSnm83nP/95Qh4iIiIiIuIVK5nu4x//ePOZz3ym2fzGb/wGIQ8REREREfGKlUz3iU98ovnsZz/bbL7whS8Q8hAREREREa9YyXTy5xPkx/E2X/ziFwl5iIiIiIiIV6xkOvl5PPmk5ubtt992BYiIiIiIiHi9yl9OkE9qbr72ta81X/7yl5u33nrL3dqTz3DKr92UW33ymU754T35LS3y6zjlL6j/yq/8SvPLv/zLzS/90i8hIiIiIiLiGZQMJllMMplkM8loktU++clPuvz2uc99zmW6L33pS83mG9/4RiNB7ytf+UojH92U5Ce/cVNSoFSU384ijeSP6kkHYgh/iIiIiIiIeHolg4U8JtlMMppkNcltkt8kx0nA++pXv9r8/8nYTPhnX7OtAAAAAElFTkSuQmCC;" vertex="1" parent="eBqKPvb9ERlrnAuT2_BX-8">
          <mxGeometry x="10" y="173.39999999999998" width="606.48" height="406.6" as="geometry" />
        </mxCell>
      </root>
    </mxGraphModel>
  </diagram>
</mxfile>
